 <svg  version="1.0" xmlns="http://www.w3.org/2000/svg"  width="1350.000000pt" height="1689.000000pt" viewBox="0 0 1350.000000 1689.000000"  preserveAspectRatio="xMidYMid meet">  <g transform="translate(0.000000,1689.000000) scale(0.100000,-0.100000)" fill="#ffffff" stroke="none"> <path d="M6487 15174 c-9 -10 -83 -23 -162 -29 -38 -4 -74 -10 -79 -16 -13 -12 -46 -12 -46 1 0 6 7 10 15 10 8 0 15 5 15 10 0 13 -57 13 -65 0 -4 -6 -15 -8 -24 -5 -10 3 -53 -4 -97 -15 -43 -11 -91 -20 -106 -20 -30 0 -33 -4 -18 -23 6 -7 19 -23 29 -37 l19 -25 36 19 c20 11 36 23 36 28 0 15 38 8 44 -8 6 -15 9 -15 29 5 23 21 61 28 71 13 3 -5 18 -7 34 -4 16 2 43 -3 60 -12 40 -20 62 -20 77 1 8 10 29 17 60 19 32 2 60 12 86 29 35 25 41 26 76 15 21 -7 59 -24 85 -37 60 -33 80 -26 76 24 -3 37 -4 38 -58 50 -60 12 -183 17 -193 7z"/> <path d="M6765 15131 c-3 -6 0 -27 7 -49 11 -35 16 -39 62 -50 116 -26 131 -26 161 2 30 28 82 35 91 12 4 -11 10 -48 13 -78 1 -13 56 -9 69 4 9 9 17 9 36 -1 15 -9 38 -11 65 -6 33 5 42 4 47 -9 7 -19 83 -66 107 -66 9 0 38 -13 66 -29 l49 -29 23 24 c18 19 30 23 48 19 31 -8 78 -56 86 -87 7 -28 73 -68 113 -68 21 0 32 -7 40 -25 12 -25 37 -31 112 -28 42 2 64 -5 91 -30 14 -13 35 -30 47 -36 16 -9 22 -21 22 -47 0 -30 4 -35 29 -40 16 -3 38 -19 50 -35 12 -16 29 -29 39 -29 27 -1 63 -37 78 -78 11 -33 16 -37 44 -34 25 2 40 -7 82 -48 56 -55 68 -60 68 -29 0 11 5 29 10 40 9 16 -2 27 -91 91 -55 40 -151 121 -213 179 -126 119 -172 149 -266 175 -74 20 -168 67 -243 123 -53 38 -112 61 -161 61 -28 0 -89 22 -191 69 -33 16 -91 34 -130 40 -38 7 -94 24 -123 37 -42 19 -69 24 -136 24 -62 0 -97 5 -131 20 -53 23 -61 24 -70 11z"/> <path d="M5840 15079 c-9 -6 -44 -7 -88 -3 -42 3 -78 2 -85 -4 -7 -5 -31 -12 -54 -15 -24 -3 -62 -14 -85 -25 -24 -11 -61 -26 -83 -32 -22 -7 -56 -21 -75 -30 -19 -10 -147 -55 -283 -100 -176 -59 -260 -92 -289 -114 -110 -83 -173 -126 -185 -126 -14 0 -118 -69 -188 -125 -22 -17 -92 -66 -155 -108 -115 -76 -175 -134 -252 -244 -21 -30 -38 -58 -38 -63 0 -10 -113 -126 -200 -205 -53 -48 -114 -137 -197 -290 -25 -46 -70 -103 -131 -165 -52 -52 -102 -104 -111 -115 -21 -23 -61 -116 -61 -140 0 -21 -38 -105 -48 -105 -12 0 -64 -88 -72 -123 -5 -18 -22 -72 -39 -122 -53 -159 -111 -346 -111 -362 0 -8 -9 -42 -19 -76 -11 -34 -27 -89 -36 -122 -9 -33 -25 -78 -35 -100 -27 -57 -50 -152 -50 -205 0 -25 9 -78 20 -118 11 -39 20 -83 20 -96 0 -14 -18 -59 -40 -101 -42 -80 -48 -110 -27 -139 12 -16 14 -17 27 -1 10 12 10 19 2 27 -26 26 -14 62 28 86 21 12 48 22 58 22 15 0 21 10 28 43 10 56 6 93 -17 144 -28 62 -31 208 -5 248 26 40 76 183 76 219 0 16 13 72 29 125 16 53 32 112 36 131 4 19 11 40 15 45 12 17 40 107 40 130 0 12 16 66 36 119 26 70 33 100 25 109 -15 19 -2 57 20 57 11 0 28 9 38 19 11 11 28 24 39 30 26 14 37 78 17 98 -22 22 -18 48 10 61 25 11 29 23 25 73 -1 21 4 27 23 31 14 3 33 1 42 -4 21 -12 41 4 50 40 9 37 54 82 81 82 28 0 54 35 54 71 0 15 9 48 20 73 14 34 29 50 57 63 42 20 53 50 33 88 -17 31 2 63 48 82 20 8 59 34 87 58 27 23 69 54 93 69 24 15 42 34 42 44 0 11 18 44 39 74 22 30 43 67 46 81 4 14 14 29 23 32 10 3 26 24 38 47 15 29 34 48 67 66 26 13 47 30 47 38 0 10 12 14 39 14 29 0 44 6 58 23 18 23 102 87 113 87 14 0 100 89 100 103 0 8 6 17 13 20 17 6 76 -3 83 -14 3 -5 14 -9 25 -9 14 0 19 6 17 18 -4 25 29 72 50 72 10 0 42 22 71 49 53 50 60 52 174 67 26 4 47 11 47 15 0 22 67 49 120 49 43 0 59 4 73 20 9 11 25 20 34 20 36 0 93 21 122 45 22 19 36 24 59 19 25 -5 42 2 96 40 36 25 74 46 84 46 10 0 28 11 40 25 42 48 78 23 96 -67 7 -29 41 -47 59 -29 8 8 8 14 -1 23 -18 18 -15 38 6 38 24 0 52 35 52 65 0 27 -22 33 -50 14z"/> <path d="M6210 14799 c0 -11 5 -17 10 -14 6 3 10 13 10 21 0 8 -4 14 -10 14 -5 0 -10 -9 -10 -21z"/> <path d="M6475 14767 c-4 -10 -5 -21 -1 -24 10 -10 18 4 13 24 -4 17 -4 17 -12 0z"/> <path d="M5473 14755 c-3 -9 -3 -18 0 -21 9 -9 27 6 27 22 0 19 -19 18 -27 -1z"/> <path d="M6610 14731 c0 -5 7 -14 15 -21 13 -10 15 -9 15 9 0 12 -6 21 -15 21 -8 0 -15 -4 -15 -9z"/> <path d="M5846 14711 c-8 -12 3 -41 15 -41 12 0 12 37 0 45 -5 3 -12 1 -15 -4z"/> <path d="M5446 14686 c3 -9 11 -16 16 -16 13 0 5 23 -10 28 -7 2 -10 -2 -6 -12z"/> <path d="M7580 14646 c0 -8 4 -17 9 -20 10 -7 23 19 14 28 -11 11 -23 6 -23 -8z"/> <path d="M6417 14633 c-15 -14 -7 -43 12 -43 14 0 17 6 13 25 -4 25 -13 31 -25 18z"/> <path d="M4952 14598 c3 -7 13 -15 22 -16 12 -3 17 1 14 10 -3 7 -13 15 -22 16 -12 3 -17 -1 -14 -10z"/> <path d="M5405 14579 c-4 -6 -4 -13 -1 -16 8 -8 36 5 36 17 0 13 -27 13 -35 -1z"/> <path d="M5005 14550 c-11 -17 5 -32 21 -19 8 6 14 15 14 20 0 12 -27 11 -35 -1z"/> <path d="M7790 14541 c0 -11 5 -23 11 -27 14 -8 29 14 22 33 -8 20 -33 16 -33 -6z"/> <path d="M7020 14468 c0 -7 7 -22 15 -33 14 -18 16 -18 31 -3 9 9 14 24 11 32 -7 19 -57 22 -57 4z"/> <path d="M7492 14454 c1 -9 9 -19 16 -22 9 -3 13 2 10 14 -1 9 -9 19 -16 22 -9 3 -13 -2 -10 -14z"/> <path d="M6850 14410 c0 -5 7 -10 15 -10 8 0 15 5 15 10 0 6 -7 10 -15 10 -8 0 -15 -4 -15 -10z"/> <path d="M7546 14386 c3 -9 11 -16 16 -16 13 0 5 23 -10 28 -7 2 -10 -2 -6 -12z"/> <path d="M5795 14380 c-4 -6 5 -10 19 -10 14 0 26 5 26 10 0 6 -9 10 -19 10 -11 0 -23 -4 -26 -10z"/> <path d="M6350 14376 c0 -8 5 -18 10 -21 6 -3 10 3 10 14 0 12 -4 21 -10 21 -5 0 -10 -6 -10 -14z"/> <path d="M7230 14304 c0 -14 4 -23 10 -19 6 3 10 15 10 26 0 10 -4 19 -10 19 -5 0 -10 -12 -10 -26z"/> <path d="M6830 14289 c0 -24 23 -21 28 4 2 10 -3 17 -12 17 -10 0 -16 -9 -16 -21z"/> <path d="M8552 14268 c-29 -29 6 -98 50 -98 28 0 58 -37 58 -71 0 -15 5 -31 11 -34 5 -4 14 -18 19 -31 5 -13 18 -24 28 -24 25 0 62 -41 62 -68 0 -14 9 -27 25 -34 14 -6 30 -24 37 -39 11 -25 14 -27 29 -13 27 24 42 -5 37 -73 l-3 -57 43 -24 c24 -14 46 -32 49 -41 11 -37 38 -81 49 -81 22 0 42 -36 49 -85 11 -80 12 -83 58 -90 44 -8 77 -29 77 -52 0 -7 -8 -13 -18 -13 -28 0 -31 -8 -15 -41 12 -24 19 -28 40 -23 34 9 53 -16 46 -61 -4 -25 3 -50 25 -97 16 -35 33 -80 37 -102 6 -34 21 -55 68 -93 12 -10 13 -19 5 -47 -14 -43 5 -96 33 -96 10 0 23 -9 29 -19 6 -12 17 -17 28 -14 28 7 56 -40 40 -67 -10 -15 -10 -22 0 -32 15 -15 16 -50 0 -66 -14 -14 -2 -44 53 -124 54 -79 75 -153 83 -282 5 -83 10 -114 23 -128 10 -11 20 -45 24 -76 4 -31 10 -83 14 -115 7 -51 5 -60 -12 -77 -32 -29 -40 -132 -15 -202 12 -35 16 -61 11 -69 -5 -8 -9 -28 -9 -45 0 -23 6 -34 25 -42 37 -17 35 -75 -5 -133 -16 -24 -30 -52 -30 -61 0 -9 -4 -20 -10 -23 -17 -10 -12 -101 6 -116 11 -9 14 -22 9 -43 -9 -46 -10 -65 -1 -133 7 -56 6 -63 -11 -69 -39 -12 -47 -22 -59 -69 -13 -49 -22 -181 -14 -187 3 -2 14 -8 25 -14 15 -9 20 -22 20 -55 0 -42 -1 -44 -33 -47 -20 -2 -42 4 -61 17 -39 28 -44 27 -39 -14 2 -19 1 -35 -2 -35 -4 0 -21 -13 -38 -28 -21 -19 -33 -41 -38 -69 l-6 -41 104 5 104 6 52 -51 52 -51 0 -86 c0 -47 -4 -95 -10 -105 -5 -10 -12 -69 -16 -131 -4 -63 -10 -118 -14 -124 -5 -5 -11 -28 -15 -50 -6 -37 -15 -61 -50 -140 -22 -51 -71 -147 -109 -215 -20 -36 -47 -87 -58 -115 -40 -91 -141 -282 -210 -395 -21 -36 -43 -72 -47 -80 -4 -8 -14 -26 -21 -40 -8 -14 -16 -67 -18 -120 -4 -113 -23 -162 -82 -212 -52 -45 -124 -68 -215 -68 -82 0 -89 -5 -99 -66 -3 -23 -16 -74 -30 -115 -13 -41 -31 -103 -41 -139 -9 -36 -22 -76 -27 -90 -6 -14 -14 -41 -18 -60 -8 -37 -24 -84 -47 -137 -7 -17 -13 -38 -13 -47 0 -8 -6 -30 -14 -48 -8 -18 -21 -52 -30 -75 -33 -89 -49 -129 -62 -158 -7 -16 -20 -46 -28 -67 -9 -20 -16 -43 -16 -51 0 -9 -4 -18 -9 -21 -11 -7 -43 -113 -64 -211 -47 -215 -64 -882 -28 -1075 9 -52 25 -107 35 -122 21 -32 89 -82 160 -118 51 -26 145 -122 201 -205 46 -69 116 -142 205 -212 41 -33 111 -100 155 -149 44 -49 87 -95 95 -101 29 -24 121 -74 174 -93 29 -11 88 -46 132 -78 43 -32 120 -84 169 -116 50 -32 99 -66 110 -76 34 -31 129 -77 224 -110 76 -27 114 -33 233 -40 79 -5 161 -14 183 -20 22 -6 58 -15 80 -20 22 -4 67 -15 100 -23 131 -35 224 -57 305 -71 88 -16 152 -33 330 -91 125 -41 178 -53 285 -66 205 -26 582 -139 805 -242 36 -16 81 -33 100 -37 19 -4 55 -12 80 -18 25 -6 81 -18 125 -27 44 -9 105 -22 135 -30 117 -30 190 -45 219 -45 17 0 56 -7 88 -15 31 -8 94 -15 139 -15 47 0 100 -6 124 -15 23 -8 62 -15 86 -15 l44 0 0 64 0 63 -67 6 c-297 28 -533 67 -763 127 -19 5 -69 16 -110 25 -41 9 -139 43 -218 76 -157 66 -323 124 -398 139 -27 5 -89 21 -139 35 -49 14 -144 34 -210 45 -125 21 -160 29 -310 74 -130 40 -214 61 -350 91 -66 14 -174 39 -240 55 -211 51 -257 60 -390 75 -273 32 -299 43 -600 244 -104 70 -233 149 -285 176 -80 41 -111 64 -195 149 -55 56 -136 131 -180 168 -44 37 -109 102 -145 145 -117 140 -204 224 -292 284 -145 98 -153 131 -145 604 6 389 27 566 87 735 60 169 72 203 86 235 44 100 134 365 205 604 55 185 65 197 189 231 71 19 91 31 151 90 68 67 94 115 109 201 25 140 35 169 111 309 121 222 345 677 377 765 38 102 71 329 74 506 1 77 -2 92 -25 132 -15 25 -54 70 -88 100 -64 58 -69 76 -33 117 7 9 16 34 20 58 5 33 3 43 -10 48 -20 8 -21 33 -1 40 11 5 15 23 15 73 0 51 6 79 27 121 24 51 26 69 33 240 6 146 12 198 28 245 17 50 19 70 11 110 -35 186 -39 255 -22 362 16 98 16 110 0 196 -10 51 -24 137 -32 192 -26 172 -35 204 -96 325 -32 64 -59 125 -59 135 0 43 -37 128 -76 177 -24 28 -48 66 -54 82 -6 17 -24 58 -39 91 -15 33 -32 74 -38 90 -18 50 -83 198 -98 225 -8 14 -22 41 -32 60 -10 19 -37 60 -61 89 -24 30 -59 85 -77 121 -18 36 -63 104 -99 150 -36 46 -66 89 -66 95 0 7 -9 20 -20 30 -11 10 -20 24 -20 32 0 13 -185 238 -245 298 -16 17 -49 52 -73 78 -46 50 -52 53 -70 35z"/> <path d="M6600 14256 c0 -11 30 -39 36 -34 2 3 -5 13 -16 23 -11 10 -20 15 -20 11z"/> <path d="M7190 14230 c-12 -7 -11 -12 4 -29 24 -26 36 -27 36 -2 0 25 -22 42 -40 31z"/> <path d="M8032 14221 c2 -7 7 -12 11 -12 12 1 9 15 -3 20 -7 2 -11 -2 -8 -8z"/> <path d="M4284 14129 c-9 -16 12 -33 31 -25 14 5 15 9 5 21 -15 18 -26 19 -36 4z"/> <path d="M6937 14084 c-13 -13 -7 -24 14 -24 11 0 19 5 17 12 -5 14 -22 21 -31 12z"/> <path d="M8127 14084 c-9 -10 2 -24 19 -24 8 0 14 7 14 15 0 15 -21 21 -33 9z"/> <path d="M8450 14076 c0 -8 5 -18 10 -21 6 -3 10 3 10 14 0 12 -4 21 -10 21 -5 0 -10 -6 -10 -14z"/> <path d="M6740 14050 c-8 -5 -11 -12 -8 -16 10 -9 38 3 38 16 0 12 -10 13 -30 0z"/> <path d="M8245 13990 c-8 -13 20 -24 36 -15 8 6 7 10 -2 16 -18 11 -26 11 -34 -1z"/> <path d="M7290 13969 c0 -11 5 -17 10 -14 6 3 10 13 10 21 0 8 -4 14 -10 14 -5 0 -10 -9 -10 -21z"/> <path d="M4765 13960 c-3 -5 3 -10 14 -10 12 0 21 5 21 10 0 6 -6 10 -14 10 -8 0 -18 -4 -21 -10z"/> <path d="M8155 13909 c-4 -6 -4 -13 -1 -16 8 -8 36 5 36 17 0 13 -27 13 -35 -1z"/> <path d="M6930 13856 c0 -16 6 -26 14 -26 9 0 12 7 9 20 -8 31 -23 34 -23 6z"/> <path d="M7116 13841 c-3 -5 0 -11 8 -14 15 -6 26 1 26 15 0 11 -27 10 -34 -1z"/> <path d="M8061 13791 c-10 -6 -10 -10 -1 -16 13 -8 24 -1 19 14 -3 6 -10 7 -18 2z"/> <path d="M8440 13755 c0 -19 24 -29 48 -20 16 6 16 7 -2 21 -26 18 -46 18 -46 -1z"/> <path d="M8663 13723 c-18 -7 -16 -33 2 -33 8 0 15 9 15 20 0 11 -1 20 -2 19 -2 0 -9 -3 -15 -6z"/> <path d="M8095 13660 c-4 -6 -3 -16 3 -22 6 -6 12 -6 17 2 4 6 3 16 -3 22 -6 6 -12 6 -17 -2z"/> <path d="M3920 13605 c-10 -12 -10 -15 4 -15 9 0 16 7 16 15 0 8 -2 15 -4 15 -2 0 -9 -7 -16 -15z"/> <path d="M4050 13570 c-12 -8 -12 -10 2 -15 20 -8 41 2 33 16 -8 11 -16 11 -35 -1z"/> <path d="M8632 13568 c-22 -28 -25 -68 -6 -83 11 -8 24 -14 29 -14 6 0 2 6 -7 13 -10 7 -18 21 -18 31 0 10 8 24 18 31 12 9 14 16 6 24 -8 8 -14 7 -22 -2z"/> <path d="M7160 13441 c0 -33 23 -52 41 -34 7 7 2 20 -15 38 l-26 28 0 -32z"/> <path d="M3992 13451 c4 -13 18 -16 19 -4 0 4 -5 9 -11 12 -7 2 -11 -2 -8 -8z"/> <path d="M7505 13449 c-8 -12 14 -31 30 -26 6 2 10 10 10 18 0 17 -31 24 -40 8z"/> <path d="M8692 13428 c-20 -20 -14 -29 21 -26 20 2 32 8 32 18 0 19 -36 25 -53 8z"/> <path d="M8400 13390 c0 -5 4 -10 9 -10 5 0 18 -3 28 -7 16 -6 16 -5 4 10 -15 19 -41 23 -41 7z"/> <path d="M7870 13375 c0 -21 30 -31 40 -14 11 17 3 29 -21 29 -10 0 -19 -7 -19 -15z"/> <path d="M8960 13355 c0 -9 5 -15 11 -13 6 2 11 8 11 13 0 5 -5 11 -11 13 -6 2 -11 -4 -11 -13z"/> <path d="M7277 13333 c-18 -4 -18 -6 -1 -24 19 -21 34 -17 34 12 0 19 -2 20 -33 12z"/> <path d="M8635 13299 c-10 -14 -1 -21 19 -13 9 3 13 10 10 15 -7 12 -21 11 -29 -2z"/> <path d="M3770 13279 c7 -11 14 -18 17 -15 8 8 -5 36 -17 36 -7 0 -7 -6 0 -21z"/> <path d="M8782 13288 c5 -15 28 -18 29 -3 0 6 -7 12 -17 13 -10 3 -15 -1 -12 -10z"/> <path d="M8960 13258 c0 -13 4 -30 9 -37 8 -12 11 -9 16 11 7 28 1 48 -16 48 -5 0 -9 -10 -9 -22z"/> <path d="M7310 13266 c0 -2 7 -9 15 -16 12 -10 15 -10 15 4 0 9 -7 16 -15 16 -8 0 -15 -2 -15 -4z"/> <path d="M7195 13240 c-9 -15 5 -52 18 -47 15 5 16 49 0 54 -6 2 -14 -1 -18 -7z"/> <path d="M7027 13224 c-14 -14 -6 -24 19 -24 16 0 24 5 22 13 -5 14 -31 21 -41 11z"/> <path d="M3612 13209 c2 -6 8 -10 13 -10 5 0 11 4 13 10 2 6 -4 11 -13 11 -9 0 -15 -5 -13 -11z"/> <path d="M7500 13191 c0 -12 6 -21 15 -21 8 0 15 4 15 9 0 5 -7 14 -15 21 -13 10 -15 9 -15 -9z"/> <path d="M6663 13182 c-13 -2 -23 -8 -23 -13 0 -13 37 -11 45 2 9 14 5 16 -22 11z"/> <path d="M8197 13143 c-9 -9 -9 -33 1 -33 4 0 13 9 20 20 10 16 10 20 -1 20 -8 0 -17 -3 -20 -7z"/> <path d="M8640 13127 c0 -8 9 -17 21 -20 15 -4 19 -1 17 11 -4 21 -38 29 -38 9z"/> <path d="M6845 13119 c-10 -14 -1 -21 19 -13 9 3 13 10 10 15 -7 12 -21 11 -29 -2z"/> <path d="M7290 13091 c-21 -6 -22 -8 -7 -14 19 -7 47 1 47 14 0 10 -4 10 -40 0z"/> <path d="M8760 13086 c0 -9 7 -16 16 -16 17 0 14 22 -4 28 -7 2 -12 -3 -12 -12z"/> <path d="M5780 13080 c0 -5 7 -10 15 -10 8 0 15 5 15 10 0 6 -7 10 -15 10 -8 0 -15 -4 -15 -10z"/> <path d="M7470 13075 c0 -8 5 -15 10 -15 6 0 10 7 10 15 0 8 -4 15 -10 15 -5 0 -10 -7 -10 -15z"/> <path d="M6160 13060 c0 -5 11 -10 25 -10 14 0 25 5 25 10 0 6 -11 10 -25 10 -14 0 -25 -4 -25 -10z"/> <path d="M4260 13050 c0 -5 7 -10 15 -10 8 0 15 5 15 10 0 6 -7 10 -15 10 -8 0 -15 -4 -15 -10z"/> <path d="M6323 13044 c-11 -29 13 -37 31 -10 16 25 16 26 -4 26 -11 0 -23 -7 -27 -16z"/> <path d="M4305 13040 c3 -5 13 -10 21 -10 8 0 14 5 14 10 0 6 -9 10 -21 10 -11 0 -17 -4 -14 -10z"/> <path d="M7757 13034 c-16 -16 -6 -35 16 -32 12 2 22 10 22 18 0 16 -26 25 -38 14z"/> <path d="M9140 13025 c0 -8 5 -15 10 -15 6 0 10 7 10 15 0 8 -4 15 -10 15 -5 0 -10 -7 -10 -15z"/> <path d="M3470 13011 c13 -25 33 -28 28 -4 -2 10 -11 19 -21 21 -16 3 -17 1 -7 -17z"/> <path d="M8550 13011 c0 -12 5 -21 10 -21 6 0 10 6 10 14 0 8 -4 18 -10 21 -5 3 -10 -3 -10 -14z"/> <path d="M6600 12995 c-30 -32 -16 -52 23 -34 28 13 31 18 21 43 -8 22 -17 20 -44 -9z"/> <path d="M7380 12975 c0 -8 8 -15 17 -15 9 0 24 -7 34 -16 25 -23 34 1 9 26 -23 23 -60 27 -60 5z"/> <path d="M6806 12973 c-11 -11 -6 -23 8 -23 8 0 17 4 20 9 7 10 -19 23 -28 14z"/> <path d="M7620 12970 c0 -5 -7 -15 -15 -23 -12 -13 -12 -17 5 -32 10 -9 29 -15 42 -13 22 3 24 6 16 34 -5 19 -16 34 -28 37 -11 3 -20 1 -20 -3z"/> <path d="M8836 12945 c-32 -29 -36 -61 -7 -45 11 5 31 10 45 10 32 0 36 34 7 49 -15 8 -24 5 -45 -14z"/> <path d="M4170 12934 c0 -14 4 -23 10 -19 6 3 10 15 10 26 0 10 -4 19 -10 19 -5 0 -10 -12 -10 -26z"/> <path d="M8150 12945 c0 -15 34 -55 46 -55 20 0 17 23 -6 43 -20 16 -40 23 -40 12z"/> <path d="M8546 12922 c-3 -6 -1 -14 5 -17 15 -10 25 3 12 16 -7 7 -13 7 -17 1z"/> <path d="M3997 12913 c-13 -12 -7 -23 13 -23 11 0 20 7 20 15 0 15 -21 21 -33 8z"/> <path d="M8270 12902 c0 -10 16 -33 35 -52 32 -31 36 -33 62 -21 l28 13 -43 20 c-23 11 -47 29 -53 39 -12 24 -29 24 -29 1z"/> <path d="M8627 12914 c-8 -8 1 -24 14 -24 5 0 9 7 9 15 0 15 -12 20 -23 9z"/> <path d="M8910 12880 c0 -33 11 -38 30 -15 10 12 10 18 0 30 -19 23 -30 18 -30 -15z"/> <path d="M7980 12880 c0 -11 2 -20 5 -20 2 0 9 9 15 20 9 16 8 20 -5 20 -8 0 -15 -9 -15 -20z"/> <path d="M7800 12876 c0 -9 13 -14 40 -14 28 -1 40 3 40 14 0 10 -12 14 -40 14 -27 0 -40 -4 -40 -14z"/> <path d="M8865 12795 c-5 -2 -22 -6 -37 -9 -37 -8 -35 -29 2 -43 24 -9 30 -9 30 3 0 7 9 18 20 24 28 15 16 35 -15 25z"/> <path d="M4056 12764 c-3 -9 -6 -25 -6 -37 l0 -21 20 22 c11 12 20 28 20 37 0 20 -26 20 -34 -1z"/> <path d="M8944 12759 c-3 -6 0 -15 7 -20 22 -14 29 -11 29 11 0 21 -24 27 -36 9z"/> <path d="M3312 12748 c6 -18 28 -21 28 -4 0 9 -7 16 -16 16 -9 0 -14 -5 -12 -12z"/> <path d="M8570 12750 c0 -5 7 -10 15 -10 8 0 15 5 15 10 0 6 -7 10 -15 10 -8 0 -15 -4 -15 -10z"/> <path d="M9080 12700 c0 -11 5 -20 10 -20 6 0 10 9 10 20 0 11 -4 20 -10 20 -5 0 -10 -9 -10 -20z"/> <path d="M8642 12693 c-39 -5 -41 -34 -3 -43 13 -3 27 -14 31 -25 5 -13 9 -15 14 -6 4 6 2 18 -4 26 -6 8 -9 23 -5 35 3 11 5 19 3 18 -2 0 -18 -3 -36 -5z"/> <path d="M6545 12600 c3 -5 13 -10 21 -10 8 0 14 5 14 10 0 6 -9 10 -21 10 -11 0 -17 -4 -14 -10z"/> <path d="M6775 12581 c-7 -12 12 -24 25 -16 11 7 4 25 -10 25 -5 0 -11 -4 -15 -9z"/> <path d="M8912 12579 c2 -7 10 -15 17 -17 8 -3 12 1 9 9 -2 7 -10 15 -17 17 -8 3 -12 -1 -9 -9z"/> <path d="M8615 12570 c3 -5 13 -10 21 -10 8 0 14 5 14 10 0 6 -9 10 -21 10 -11 0 -17 -4 -14 -10z"/> <path d="M8688 12550 c-26 -46 1 -49 48 -6 l39 36 -35 0 c-29 0 -38 -6 -52 -30z"/> <path d="M8815 12530 c-9 -14 11 -38 47 -56 26 -14 28 -13 28 6 0 14 -7 20 -21 20 -12 0 -23 8 -26 20 -6 22 -18 26 -28 10z"/> <path d="M3920 12481 c0 -16 6 -21 26 -21 33 0 30 33 -4 38 -17 3 -22 -2 -22 -17z"/> <path d="M8720 12447 c0 -21 8 -41 20 -52 11 -10 21 -30 21 -44 1 -17 3 -20 6 -8 3 11 14 17 33 17 30 0 56 23 45 40 -3 5 -19 10 -35 10 -21 0 -33 8 -49 35 -26 44 -41 45 -41 2z"/> <path d="M5867 12455 c-10 -7 -17 -21 -15 -31 2 -15 6 -13 21 10 22 32 19 40 -6 21z"/> <path d="M3830 12443 c0 -10 4 -24 9 -32 7 -11 11 -9 20 8 7 12 9 26 6 31 -10 17 -35 11 -35 -7z"/> <path d="M9262 12428 c3 -23 28 -34 54 -24 24 9 -2 46 -32 46 -21 0 -25 -4 -22 -22z"/> <path d="M6940 12430 c0 -5 7 -10 15 -10 8 0 15 5 15 10 0 6 -7 10 -15 10 -8 0 -15 -4 -15 -10z"/> <path d="M5630 12375 c0 -8 5 -15 10 -15 6 0 10 7 10 15 0 8 -4 15 -10 15 -5 0 -10 -7 -10 -15z"/> <path d="M8905 12340 c-7 -12 2 -30 16 -30 12 0 12 27 0 35 -5 3 -12 1 -16 -5z"/> <path d="M9380 12326 c0 -8 5 -18 10 -21 6 -3 10 3 10 14 0 12 -4 21 -10 21 -5 0 -10 -6 -10 -14z"/> <path d="M5715 12250 c-8 -12 20 -24 35 -15 5 3 10 10 10 16 0 12 -37 12 -45 -1z"/> <path d="M3558 12228 c12 -12 24 -19 28 -15 10 10 -16 37 -34 37 -13 0 -12 -4 6 -22z"/> <path d="M8955 12230 c-10 -17 12 -37 25 -24 8 8 6 15 -4 23 -10 9 -16 9 -21 1z"/> <path d="M9515 12227 c-2 -7 -8 -27 -14 -45 -7 -23 -7 -40 0 -53 5 -10 11 -19 13 -19 7 0 46 86 46 102 0 19 -40 32 -45 15z"/> <path d="M8782 12218 c3 -7 13 -15 22 -16 12 -3 17 1 14 10 -3 7 -13 15 -22 16 -12 3 -17 -1 -14 -10z"/> <path d="M6020 12195 c-10 -12 -9 -16 3 -21 19 -7 60 14 52 27 -9 14 -41 11 -55 -6z"/> <path d="M8875 12190 c-3 -5 -4 -14 0 -20 8 -13 35 -1 35 16 0 16 -26 19 -35 4z"/> <path d="M9371 12136 c-7 -8 -10 -24 -6 -36 5 -15 15 -20 41 -20 19 0 34 -4 34 -10 0 -5 5 -10 10 -10 17 0 11 40 -7 47 -10 3 -27 14 -39 25 -18 16 -23 17 -33 4z"/> <path d="M3445 12130 c-4 -6 -3 -16 3 -22 6 -6 12 -6 17 2 4 6 3 16 -3 22 -6 6 -12 6 -17 -2z"/> <path d="M8890 12133 c1 -17 28 -43 44 -43 12 0 16 7 14 23 -2 16 -11 23 -30 25 -16 2 -28 0 -28 -5z"/> <path d="M6993 12116 c-34 -16 -28 -24 22 -28 69 -5 88 9 40 30 -30 14 -32 14 -62 -2z"/> <path d="M6775 12080 c17 -19 55 -28 55 -14 0 12 -35 33 -54 34 -18 0 -18 -1 -1 -20z"/> <path d="M5726 12064 c-9 -8 -16 -22 -16 -30 0 -8 -4 -14 -10 -14 -5 0 -10 -4 -10 -10 0 -17 15 -11 50 20 18 17 40 30 47 30 8 0 11 5 8 10 -9 15 -52 12 -69 -6z"/> <path d="M3076 12058 c-21 -67 -1 -88 42 -45 21 22 23 28 12 41 -15 19 -49 21 -54 4z"/> <path d="M9550 12040 c0 -5 7 -10 15 -10 8 0 15 5 15 10 0 6 -7 10 -15 10 -8 0 -15 -4 -15 -10z"/> <path d="M5636 11994 c-8 -21 -8 -24 3 -24 5 0 11 9 14 20 6 24 -8 27 -17 4z"/> <path d="M9032 11998 c-19 -19 -14 -30 10 -26 13 2 24 11 26 21 4 20 -18 23 -36 5z"/> <path d="M3654 11966 c-3 -9 -3 -28 1 -43 5 -21 8 -24 16 -12 12 19 11 56 -1 64 -6 3 -13 -1 -16 -9z"/> <path d="M3050 11931 c0 -37 22 -57 40 -36 11 13 11 20 0 40 -18 34 -40 32 -40 -4z"/> <path d="M3510 11938 c0 -17 3 -19 12 -10 7 7 21 12 33 12 16 0 17 2 5 10 -27 17 -50 12 -50 -12z"/> <path d="M5546 11944 c-10 -26 4 -35 29 -18 14 9 22 20 19 25 -9 15 -41 10 -48 -7z"/> <path d="M6313 11935 c-19 -21 -16 -27 7 -13 17 11 22 10 30 -2 5 -8 12 -11 16 -8 7 8 -20 38 -33 38 -4 -1 -14 -7 -20 -15z"/> <path d="M9142 11938 c6 -18 28 -21 28 -4 0 9 -7 16 -16 16 -9 0 -14 -5 -12 -12z"/> <path d="M6714 11886 c-6 -17 2 -36 17 -36 12 0 12 37 -1 45 -6 3 -13 -1 -16 -9z"/> <path d="M9000 11885 c0 -8 5 -15 10 -15 6 0 10 7 10 15 0 8 -4 15 -10 15 -5 0 -10 -7 -10 -15z"/> <path d="M5070 11860 c0 -5 10 -10 23 -10 18 0 19 2 7 10 -19 13 -30 13 -30 0z"/> <path d="M9057 11863 c-27 -7 -16 -37 14 -41 17 -2 29 3 33 13 11 31 -3 39 -47 28z"/> <path d="M9231 11844 c-30 -21 -13 -40 26 -29 15 5 32 7 38 6 5 -1 1 7 -9 18 -23 25 -25 25 -55 5z"/> <path d="M3542 11828 c7 -19 38 -22 38 -4 0 10 -9 16 -21 16 -12 0 -19 -5 -17 -12z"/> <path d="M9584 11829 c-3 -6 -1 -16 5 -22 9 -9 14 -8 21 3 9 15 4 30 -10 30 -5 0 -12 -5 -16 -11z"/> <path d="M9403 11808 c-13 -6 -23 -18 -23 -27 0 -9 -7 -24 -15 -34 -19 -25 -8 -47 22 -47 23 0 25 -3 19 -33 -5 -26 -2 -38 14 -52 11 -10 20 -24 20 -32 0 -7 4 -13 9 -13 18 0 20 17 6 36 -26 35 -19 54 20 54 36 0 47 13 19 24 -9 3 -26 6 -38 6 -47 0 -62 54 -26 90 12 12 18 25 15 30 -7 12 -14 12 -42 -2z"/> <path d="M5995 11789 c-10 -30 0 -34 29 -11 22 16 23 21 10 26 -25 10 -32 7 -39 -15z"/> <path d="M7587 11703 c-13 -12 -7 -33 8 -33 8 0 15 9 15 20 0 20 -11 26 -23 13z"/> <path d="M3115 11680 c-3 -5 3 -10 15 -10 12 0 18 5 15 10 -3 6 -10 10 -15 10 -5 0 -12 -4 -15 -10z"/> <path d="M5602 11678 c6 -18 28 -21 28 -4 0 9 -7 16 -16 16 -9 0 -14 -5 -12 -12z"/> <path d="M9135 11630 c-7 -12 2 -30 16 -30 12 0 12 27 0 35 -5 3 -12 1 -16 -5z"/> <path d="M6826 11621 c-7 -11 22 -23 35 -15 5 3 7 10 4 15 -8 12 -32 12 -39 0z"/> <path d="M3425 11600 c-10 -11 -15 -23 -12 -27 8 -7 47 25 47 39 0 14 -16 9 -35 -12z"/> <path d="M6166 11565 c-3 -9 1 -18 10 -22 19 -7 39 11 30 26 -10 16 -33 13 -40 -4z"/> <path d="M5275 11559 c-4 -6 -4 -13 -1 -16 8 -8 36 5 36 17 0 13 -27 13 -35 -1z"/> <path d="M6750 11552 c0 -10 44 -32 62 -32 6 0 3 9 -7 20 -18 20 -55 28 -55 12z"/> <path d="M6562 11511 c2 -7 7 -12 11 -12 12 1 9 15 -3 20 -7 2 -11 -2 -8 -8z"/> <path d="M2868 11426 c-6 -29 -1 -39 29 -55 16 -8 25 -24 29 -51 8 -51 20 -51 28 1 8 48 2 59 -29 59 -19 0 -24 6 -27 32 -4 39 -24 48 -30 14z"/> <path d="M6428 11426 c-27 -20 -22 -36 11 -36 35 0 48 15 31 35 -15 18 -20 18 -42 1z"/> <path d="M6082 11421 c2 -7 7 -12 11 -12 12 1 9 15 -3 20 -7 2 -11 -2 -8 -8z"/> <path d="M9175 11410 c-8 -12 20 -24 35 -15 6 3 8 11 5 16 -8 12 -32 12 -40 -1z"/> <path d="M3464 11396 c-3 -8 -4 -23 -2 -33 3 -16 5 -16 26 5 12 12 22 27 22 32 0 16 -40 12 -46 -4z"/> <path d="M9530 11401 c0 -4 11 -6 25 -3 14 2 25 6 25 8 0 2 -11 4 -25 4 -14 0 -25 -4 -25 -9z"/> <path d="M9317 11383 c-12 -11 -8 -50 6 -62 11 -8 18 -6 32 9 17 19 17 21 0 40 -19 21 -28 24 -38 13z"/> <path d="M9564 11319 c-3 -6 -2 -15 2 -19 12 -12 38 5 30 19 -9 14 -23 14 -32 0z"/> <path d="M2950 11256 c0 -9 7 -16 16 -16 9 0 14 5 12 12 -6 18 -28 21 -28 4z"/> <path d="M6122 11229 c2 -6 8 -10 13 -10 5 0 11 4 13 10 2 6 -4 11 -13 11 -9 0 -15 -5 -13 -11z"/> <path d="M2902 11191 c-12 -35 0 -213 18 -271 6 -19 10 -62 8 -95 -3 -59 -2 -60 24 -63 19 -2 30 3 38 18 7 14 17 19 27 16 12 -5 14 -1 9 16 -4 13 -10 41 -13 63 -3 22 -11 47 -17 55 -36 46 -41 79 -20 133 3 10 -4 16 -25 20 -41 9 -39 29 6 66 31 26 36 34 27 49 -6 9 -25 18 -41 20 -26 3 -32 -1 -41 -27z"/> <path d="M9202 11194 c2 -15 9 -29 16 -32 10 -3 13 4 10 24 -2 15 -9 29 -16 32 -10 3 -13 -4 -10 -24z"/> <path d="M6170 11165 c0 -8 5 -15 10 -15 6 0 10 7 10 15 0 8 -4 15 -10 15 -5 0 -10 -7 -10 -15z"/> <path d="M9442 11124 c1 -9 9 -19 16 -22 9 -3 13 2 10 14 -1 9 -9 19 -16 22 -9 3 -13 -2 -10 -14z"/> <path d="M9200 11105 c0 -8 7 -15 15 -15 8 0 15 7 15 15 0 8 -7 15 -15 15 -8 0 -15 -7 -15 -15z"/> <path d="M9560 11055 c0 -14 5 -25 10 -25 6 0 10 11 10 25 0 14 -4 25 -10 25 -5 0 -10 -11 -10 -25z"/> <path d="M5546 11045 c-3 -8 -1 -17 3 -20 5 -3 11 2 15 10 3 8 1 17 -3 20 -5 3 -11 -2 -15 -10z"/> <path d="M3322 11029 c1 -13 8 -23 13 -21 15 3 12 35 -3 40 -9 3 -13 -3 -10 -19z"/> <path d="M9182 11014 c4 -22 35 -31 51 -15 13 13 9 18 -27 27 -24 6 -27 4 -24 -12z"/> <path d="M9243 10954 c-8 -20 8 -36 26 -25 15 10 8 41 -9 41 -6 0 -13 -7 -17 -16z"/> <path d="M9120 10914 c0 -14 4 -23 10 -19 6 3 10 15 10 26 0 10 -4 19 -10 19 -5 0 -10 -12 -10 -26z"/> <path d="M3481 10868 l1 -43 13 30 c18 39 18 55 0 55 -11 0 -15 -11 -14 -42z"/> <path d="M4377 10903 c-12 -12 -7 -43 7 -43 13 0 26 20 26 41 0 10 -23 12 -33 2z"/> <path d="M4211 10874 c-36 -46 -27 -54 33 -29 39 16 43 24 24 43 -18 18 -35 14 -57 -14z"/> <path d="M5064 10860 c-5 -5 -29 -10 -54 -12 -43 -3 -45 -4 -42 -33 4 -37 6 -39 29 -26 14 7 27 6 47 -5 16 -8 45 -14 65 -14 20 0 43 -6 51 -12 8 -7 6 -3 -4 9 -10 12 -27 23 -37 25 -37 6 -24 23 20 26 55 4 128 -22 136 -49 5 -14 12 -18 27 -14 11 4 33 1 49 -5 32 -14 46 -9 33 12 -5 7 -9 27 -9 43 0 29 -2 30 -50 33 -27 2 -89 4 -136 5 -50 2 -92 7 -101 14 -9 8 -18 9 -24 3z"/> <path d="M9145 10848 c-2 -7 -6 -30 -10 -50 -5 -31 -3 -37 15 -43 16 -5 19 -10 10 -20 -19 -23 -8 -60 18 -63 45 -7 54 4 33 38 -16 26 -17 37 -8 67 9 30 8 36 -6 44 -9 6 -17 17 -17 24 0 18 -29 20 -35 3z"/> <path d="M4565 10822 c-5 -4 -15 -16 -21 -28 -11 -20 -11 -20 22 -10 22 7 34 17 34 28 0 18 -17 23 -35 10z"/> <path d="M5482 10814 c1 -9 9 -19 16 -22 9 -3 13 2 10 14 -1 9 -9 19 -16 22 -9 3 -13 -2 -10 -14z"/> <path d="M4681 10794 c-40 -28 -33 -33 64 -36 65 -3 70 -5 73 -26 3 -17 16 -29 49 -43 53 -23 72 -24 79 -5 7 19 -13 56 -30 56 -8 0 -21 11 -30 25 -12 19 -25 25 -52 25 -19 0 -51 7 -71 15 -43 18 -40 19 -82 -11z"/> <path d="M7235 10790 c-7 -12 18 -24 37 -18 8 3 5 9 -9 16 -14 8 -24 9 -28 2z"/> <path d="M8050 10770 c0 -5 6 -10 14 -10 8 0 18 -9 21 -20 3 -11 15 -20 25 -20 33 0 32 19 -2 40 -36 22 -58 26 -58 10z"/> <path d="M3450 10745 c0 -25 31 -65 50 -65 20 0 36 33 25 50 -3 5 -15 10 -25 10 -10 0 -22 5 -25 10 -9 15 -25 12 -25 -5z"/> <path d="M5745 10733 c-19 -29 -11 -55 18 -61 11 -2 18 7 22 32 11 58 -11 74 -40 29z"/> <path d="M7361 10724 c-37 -47 -30 -52 67 -52 107 0 177 -9 219 -28 24 -11 38 -12 52 -5 16 9 20 7 25 -14 6 -24 -4 -52 -33 -88 -22 -27 1 -45 26 -20 16 16 33 19 108 17 50 0 100 -4 112 -8 13 -4 30 -3 39 2 15 9 14 11 -7 22 -13 7 -32 21 -43 32 -12 13 -26 18 -40 14 -11 -4 -40 -9 -63 -12 -35 -6 -44 -4 -49 11 -5 13 1 25 20 40 l27 22 -38 16 c-21 9 -56 16 -79 16 -23 -1 -51 4 -64 11 -14 7 -39 9 -66 5 -43 -6 -82 2 -152 31 -41 18 -37 19 -61 -12z"/> <path d="M4107 10733 c-14 -14 -6 -33 17 -39 25 -6 66 10 66 26 0 16 -22 11 -35 -7 -11 -15 -13 -15 -19 5 -7 22 -17 27 -29 15z"/> <path d="M4595 10724 c-29 -12 -28 -12 38 -19 46 -5 72 -4 80 4 6 6 9 12 6 15 -12 10 -98 11 -124 0z"/> <path d="M6967 10724 c-7 -7 41 -54 55 -54 13 0 22 30 12 39 -13 12 -60 22 -67 15z"/> <path d="M8150 10725 c0 -12 53 -55 67 -55 15 0 11 13 -15 43 -14 16 -52 24 -52 12z"/> <path d="M8292 10718 c7 -20 58 -23 58 -4 0 11 -10 16 -31 16 -20 0 -29 -4 -27 -12z"/> <path d="M5198 10708 c9 -9 15 -9 24 0 9 9 7 12 -12 12 -19 0 -21 -3 -12 -12z"/> <path d="M4994 10700 c-35 -14 -38 -39 -6 -51 15 -6 35 -15 44 -20 26 -13 28 -12 28 15 0 14 5 28 11 32 26 16 -43 37 -77 24z"/> <path d="M4450 10691 c0 -10 30 -24 37 -17 3 3 2 9 -2 15 -8 13 -35 15 -35 2z"/> <path d="M5990 10681 c0 -28 15 -33 34 -12 18 20 12 31 -16 31 -11 0 -18 -7 -18 -19z"/> <path d="M8005 10690 c-7 -11 35 -23 61 -18 9 1 19 9 22 16 5 15 -74 17 -83 2z"/> <path d="M3025 10680 c-3 -5 -24 -10 -46 -10 -21 0 -39 -4 -39 -8 0 -5 18 -25 40 -45 30 -27 40 -43 40 -66 0 -27 -5 -31 -37 -40 -21 -5 -58 -15 -83 -21 -101 -27 -190 -124 -222 -244 -25 -92 -35 -312 -19 -398 38 -196 132 -421 311 -738 44 -78 80 -144 80 -147 0 -2 31 -57 69 -121 92 -157 100 -174 122 -255 27 -94 40 -118 105 -182 65 -64 121 -85 225 -85 48 0 72 -5 83 -15 18 -18 45 -101 76 -235 54 -234 75 -304 134 -445 35 -82 76 -181 91 -220 15 -38 33 -81 41 -95 7 -14 30 -65 50 -115 20 -49 45 -112 56 -139 24 -59 41 -119 57 -201 7 -33 19 -85 26 -115 8 -30 19 -98 25 -150 7 -52 20 -145 31 -206 10 -61 24 -153 29 -205 54 -483 60 -600 35 -649 -8 -16 -53 -59 -99 -95 -120 -93 -214 -214 -326 -416 -76 -136 -170 -274 -241 -352 -55 -61 -75 -75 -198 -135 -75 -37 -186 -93 -247 -124 -140 -72 -219 -101 -314 -117 -236 -40 -354 -65 -795 -171 -66 -16 -142 -34 -170 -40 -98 -21 -565 -172 -640 -205 -16 -8 -57 -25 -90 -38 -251 -104 -497 -215 -546 -248 -20 -13 -50 -31 -65 -40 -16 -9 -81 -51 -145 -92 -108 -71 -256 -139 -386 -178 l-43 -12 0 -64 c0 -76 7 -78 102 -34 35 15 92 36 128 46 36 10 74 23 85 30 11 7 47 27 80 45 55 30 75 43 160 108 90 67 148 98 370 197 111 49 120 52 165 70 25 10 68 28 95 40 28 12 75 32 105 45 30 12 70 28 88 36 18 8 37 14 43 14 6 0 25 6 42 14 59 25 411 134 492 151 44 10 100 23 125 30 25 7 83 20 130 30 47 10 105 23 130 30 25 7 79 20 120 29 41 9 102 23 135 31 76 18 212 42 290 50 87 9 130 22 220 64 44 21 103 49 130 62 28 12 79 42 115 64 36 23 107 57 159 76 83 30 102 42 171 106 42 40 95 99 116 130 21 32 57 83 79 113 47 66 52 74 123 210 53 101 144 238 194 290 35 37 146 122 185 143 53 28 58 49 39 175 -9 61 -16 144 -16 184 0 40 -7 104 -15 143 -8 38 -15 98 -15 132 0 34 -7 97 -15 140 -8 43 -15 95 -15 116 0 21 -7 54 -15 74 -8 19 -15 61 -15 92 0 31 -7 83 -15 116 -8 33 -14 81 -15 106 0 26 -7 66 -15 89 -8 23 -15 58 -15 76 0 49 -35 169 -63 218 -14 22 -28 56 -32 73 -3 18 -11 35 -16 38 -5 4 -9 13 -9 22 0 8 -6 29 -14 46 -8 18 -28 63 -45 100 -17 38 -31 72 -31 77 0 5 -6 21 -14 37 -8 15 -25 53 -36 83 -12 30 -33 78 -46 105 -51 110 -83 202 -84 240 0 17 -7 43 -15 59 -8 15 -15 46 -15 67 0 22 -7 56 -15 76 -8 19 -15 46 -15 59 0 13 -6 41 -14 61 -8 21 -22 74 -31 118 -10 44 -22 86 -28 93 -12 15 -54 16 -59 0 -5 -14 -82 -38 -123 -38 -92 0 -183 66 -208 153 -9 28 -18 73 -21 99 -4 35 -20 71 -62 135 -82 127 -106 169 -181 313 -19 36 -49 92 -68 125 -43 78 -165 322 -165 331 0 3 -6 20 -14 37 -80 186 -81 191 -81 422 0 198 1 213 23 258 29 62 91 123 133 132 19 4 40 12 46 17 24 19 110 -12 184 -68 89 -66 148 -81 173 -42 12 19 -3 35 -61 63 -18 9 -40 29 -48 45 -17 33 -34 41 -57 26 -13 -8 -22 -6 -38 9 -27 25 -24 70 5 70 17 0 20 8 23 52 3 45 0 52 -18 58 -15 5 -26 1 -35 -11 -11 -15 -15 -16 -29 -5 -22 19 -20 41 4 41 11 0 20 7 20 15 0 17 -35 21 -45 5z"/> <path d="M5430 10675 c-10 -12 -10 -19 -2 -27 8 -8 13 -6 18 8 4 10 12 22 18 26 7 5 5 8 -5 8 -9 0 -22 -7 -29 -15z"/> <path d="M5597 10683 c-11 -10 -8 -41 3 -48 6 -4 17 -1 25 5 11 9 12 16 2 31 -13 20 -20 23 -30 12z"/> <path d="M7250 10675 c-7 -9 -19 -14 -26 -11 -19 7 -39 -33 -24 -48 8 -8 15 -7 24 7 14 19 41 23 51 7 10 -16 23 -11 31 12 4 15 1 25 -12 35 -23 17 -29 16 -44 -2z"/> <path d="M3325 10670 c-7 -12 2 -30 16 -30 12 0 12 27 0 35 -5 3 -12 1 -16 -5z"/> <path d="M5090 10662 c0 -29 37 -52 82 -52 21 0 38 -4 38 -8 0 -5 12 -14 27 -21 41 -19 51 2 17 38 -25 27 -32 29 -71 24 -37 -5 -48 -2 -68 17 -25 23 -25 23 -25 2z"/> <path d="M4070 10662 c0 -14 11 -21 26 -15 8 3 11 9 8 14 -7 11 -34 12 -34 1z"/> <path d="M5347 10621 c-5 -22 14 -34 38 -24 22 8 14 37 -11 41 -14 2 -23 -3 -27 -17z"/> <path d="M7114 10632 c-6 -4 -13 -14 -16 -22 -4 -11 2 -15 24 -16 24 -1 28 2 26 19 -3 23 -17 31 -34 19z"/> <path d="M7923 10633 c-24 -9 -13 -22 27 -33 62 -17 87 9 29 29 -34 12 -37 12 -56 4z"/> <path d="M9155 10632 c-23 -17 -65 -82 -65 -101 0 -11 5 -32 10 -47 10 -25 11 -26 29 -10 10 9 22 31 25 49 3 17 16 41 27 53 11 12 19 30 17 40 -3 20 -27 29 -43 16z"/> <path d="M4228 10618 c9 -9 15 -9 24 0 9 9 7 12 -12 12 -19 0 -21 -3 -12 -12z"/> <path d="M5450 10605 c0 -14 11 -38 24 -52 24 -26 25 -26 60 -9 37 17 40 23 30 50 -4 11 -19 16 -44 16 -22 0 -42 5 -45 10 -11 19 -25 10 -25 -15z"/> <path d="M6880 10622 c0 -4 6 -14 12 -20 10 -10 8 -14 -10 -18 -25 -7 -26 -12 -12 -48 10 -26 40 -36 40 -14 0 7 14 27 32 45 26 27 29 35 18 48 -13 15 -80 22 -80 7z"/> <path d="M4015 10601 c-3 -5 -2 -12 3 -15 12 -7 52 4 52 15 0 12 -47 12 -55 0z"/> <path d="M5867 10586 c-33 -31 -34 -56 -3 -85 l24 -23 21 21 c12 12 21 26 21 31 0 14 -27 12 -33 -2 -3 -9 -8 -10 -16 -2 -9 8 -6 17 10 38 30 38 11 55 -24 22z"/> <path d="M8022 10578 c2 -18 12 -24 48 -30 83 -14 97 11 21 36 -65 21 -73 20 -69 -6z"/> <path d="M9395 10590 c3 -5 12 -10 20 -10 8 0 17 5 20 10 4 6 -5 10 -20 10 -15 0 -24 -4 -20 -10z"/> <path d="M7167 10574 c-4 -4 -7 -18 -7 -30 0 -13 -7 -27 -16 -32 -19 -11 -15 -46 6 -50 11 -2 20 12 30 45 7 26 14 52 14 57 1 12 -18 19 -27 10z"/> <path d="M8472 10573 c-19 -7 -4 -23 24 -23 13 0 29 -9 36 -20 15 -23 58 -27 58 -5 0 8 -18 24 -40 35 -39 20 -54 23 -78 13z"/> <path d="M7562 10555 c-34 -18 -72 -57 -72 -72 0 -21 22 -15 64 17 22 17 46 30 53 30 7 0 13 9 13 20 0 23 -22 25 -58 5z"/> <path d="M8170 10545 c-10 -12 -9 -16 6 -21 11 -4 26 -13 34 -20 9 -7 26 -11 38 -7 21 5 20 7 -14 34 -42 33 -47 34 -64 14z"/> <path d="M3479 10493 c-13 -27 -25 -52 -28 -57 -2 -5 6 -7 18 -3 26 6 28 -11 5 -55 -11 -22 -13 -33 -5 -41 8 -8 14 -8 23 1 7 7 16 12 20 12 14 0 9 -27 -7 -40 -23 -19 -18 -49 10 -62 29 -13 43 -4 50 30 2 11 9 30 15 41 15 30 2 68 -32 93 -27 19 -30 25 -25 61 11 79 -10 88 -44 20z"/> <path d="M7370 10514 c0 -9 -9 -18 -20 -21 -24 -6 -26 -21 -4 -30 16 -6 79 10 104 27 13 9 12 12 -4 25 -27 20 -76 20 -76 -1z"/> <path d="M3303 10513 c-18 -7 -16 -32 2 -39 20 -8 45 13 38 32 -5 14 -18 17 -40 7z"/> <path d="M7030 10481 c0 -43 20 -71 51 -71 15 0 19 7 19 35 0 39 -25 75 -52 75 -14 0 -18 -8 -18 -39z"/> <path d="M5630 10485 c0 -18 5 -25 20 -25 23 0 24 4 10 31 -15 27 -30 24 -30 -6z"/> <path d="M7290 10480 c0 -5 7 -10 15 -10 8 0 15 5 15 10 0 6 -7 10 -15 10 -8 0 -15 -4 -15 -10z"/> <path d="M8300 10480 c0 -5 7 -10 15 -10 8 0 15 5 15 10 0 6 -7 10 -15 10 -8 0 -15 -4 -15 -10z"/> <path d="M5810 10456 c0 -14 5 -28 10 -31 6 -3 10 -3 10 2 0 4 3 18 6 31 5 16 2 22 -10 22 -10 0 -16 -9 -16 -24z"/> <path d="M5990 10460 c-13 -24 -6 -40 17 -40 9 0 21 -7 28 -17 7 -9 19 -14 29 -10 20 8 21 37 2 37 -8 0 -23 11 -34 25 -24 30 -28 31 -42 5z"/> <path d="M8610 10456 c0 -14 51 -57 60 -51 7 4 2 15 -12 31 -20 21 -48 32 -48 20z"/> <path d="M9053 10440 c-27 -11 -28 -21 -8 -60 13 -26 13 -36 1 -85 -11 -41 -12 -63 -4 -86 8 -24 7 -33 -5 -47 -11 -12 -13 -22 -7 -32 5 -8 10 -27 10 -42 0 -21 5 -28 19 -28 18 0 39 35 28 47 -3 2 6 26 19 53 25 50 31 85 14 95 -5 3 -7 12 -3 20 3 9 -5 23 -18 33 -27 23 -21 53 10 45 21 -5 29 11 11 22 -5 3 -10 22 -10 41 0 37 -13 42 -57 24z"/> <path d="M9240 10419 c0 -24 23 -21 28 4 2 10 -3 17 -12 17 -10 0 -16 -9 -16 -21z"/> <path d="M6790 10393 c1 -37 32 -78 54 -70 21 8 20 31 -1 68 -23 38 -53 39 -53 2z"/> <path d="M5016 10399 c-71 -4 -133 -12 -139 -18 -6 -6 -7 -11 -1 -11 5 -1 86 -3 179 -5 163 -4 273 -16 324 -36 13 -6 26 -7 29 -4 3 3 0 5 -6 5 -6 0 -14 9 -17 20 -15 49 -129 64 -369 49z"/> <path d="M4615 10358 c-22 -5 -58 -12 -80 -15 -22 -3 -44 -9 -50 -13 -5 -4 -28 -11 -50 -15 -22 -4 -44 -10 -50 -14 -5 -4 -32 -16 -60 -26 -27 -10 -70 -30 -95 -44 l-45 -26 32 -3 c28 -3 106 22 201 64 18 7 42 14 53 14 11 0 30 5 42 12 21 11 84 26 215 49 34 7 62 16 62 20 0 12 -124 9 -175 -3z"/> <path d="M9165 10310 c-7 -12 2 -30 16 -30 5 0 9 9 9 20 0 21 -15 27 -25 10z"/> <path d="M7437 10294 c-4 -5 -29 -11 -55 -14 -40 -4 -47 -9 -50 -29 -3 -22 -1 -23 25 -16 49 14 394 18 438 4 22 -6 76 -15 120 -20 80 -8 170 -26 236 -48 224 -74 386 -121 411 -121 18 1 -28 35 -77 60 -52 26 -175 68 -245 86 -30 7 -82 20 -115 28 -91 23 -451 67 -525 64 -36 -1 -85 1 -110 6 -25 4 -49 4 -53 0z"/> <path d="M5630 10282 c0 -4 9 -16 21 -25 16 -14 18 -21 9 -32 -8 -10 -2 -27 27 -72 21 -32 43 -78 48 -102 12 -52 35 -72 60 -51 17 14 16 22 -1 95 -4 17 -19 47 -33 69 -14 21 -33 49 -41 62 -8 13 -21 24 -28 24 -7 0 -20 9 -29 20 -18 20 -33 26 -33 12z"/> <path d="M4805 10273 c-22 -2 -44 -9 -49 -14 -6 -5 -20 -9 -32 -9 -13 0 -25 -4 -28 -9 -3 -4 -27 -11 -54 -15 -45 -6 -191 -81 -207 -106 -3 -5 -17 -10 -29 -10 -13 0 -31 -10 -40 -22 -14 -21 -16 -22 -26 -5 -12 18 -52 22 -109 11 -41 -8 -39 -18 7 -44 21 -12 42 -31 47 -43 12 -27 46 -33 98 -17 36 11 41 10 66 -13 32 -30 81 -47 135 -47 29 0 47 -6 59 -20 18 -21 52 -27 62 -10 16 26 -9 47 -96 80 -49 19 -97 42 -105 51 -23 26 0 61 63 97 73 42 90 41 102 -5 6 -21 34 -66 62 -100 48 -59 55 -83 24 -83 -16 0 -38 -34 -28 -44 14 -14 33 -4 48 24 12 24 22 30 47 30 17 0 40 7 50 17 15 13 24 14 53 6 19 -6 43 -9 54 -6 11 3 27 -4 39 -17 17 -19 23 -20 41 -8 19 11 23 11 32 -5 8 -14 14 -16 25 -6 21 17 374 21 394 4 18 -15 103 -26 120 -15 23 14 -1 48 -61 84 -33 20 -63 36 -67 36 -4 0 -27 18 -52 40 -59 53 -153 110 -179 110 -11 0 -35 6 -53 14 -41 18 -102 40 -150 55 -40 13 -196 21 -263 14z m169 -63 c4 -5 24 -6 42 -3 29 5 34 3 34 -15 0 -11 7 -22 15 -26 22 -8 18 -44 -7 -60 -13 -7 -45 -17 -72 -21 -27 -4 -58 -11 -70 -16 -14 -7 -31 -7 -49 0 -27 10 -28 14 -26 68 3 97 3 96 67 88 32 -4 61 -10 66 -15z m266 -76 c8 -6 56 -33 107 -58 90 -45 92 -47 81 -71 -12 -26 -37 -32 -68 -15 -17 9 -122 3 -266 -16 -26 -4 -44 -2 -49 5 -3 6 10 33 29 60 20 27 36 60 36 74 0 43 23 57 72 45 24 -6 50 -17 58 -24z m-400 -81 c0 -18 -39 -17 -46 2 -4 8 -3 22 0 31 6 15 8 15 26 -1 11 -10 20 -24 20 -32z m725 -82 c7 -12 -12 -24 -25 -16 -11 7 -4 25 10 25 5 0 11 -4 15 -9z"/> <path d="M9185 10249 c-4 -6 -5 -13 -2 -16 7 -7 27 6 27 18 0 12 -17 12 -25 -2z"/> <path d="M2872 10228 c-7 -7 -12 -24 -12 -40 0 -15 -5 -39 -12 -52 -9 -21 -8 -29 4 -43 10 -11 18 -49 22 -101 6 -78 44 -221 66 -247 6 -7 9 -34 9 -61 -2 -61 9 -108 49 -207 18 -43 32 -85 32 -93 0 -8 5 -14 11 -14 8 0 9 12 5 38 -4 20 -13 81 -20 134 -8 53 -21 107 -30 120 -9 12 -16 34 -16 49 0 14 -3 29 -7 33 -4 4 -16 46 -26 94 -10 48 -25 116 -33 152 -17 73 -18 114 -3 141 14 27 36 23 53 -9 8 -16 21 -33 28 -39 10 -8 13 -42 11 -127 -1 -94 1 -116 13 -116 8 0 14 3 14 8 1 4 5 38 10 77 5 45 5 76 -2 88 -7 14 -7 27 0 42 9 18 7 28 -6 43 -9 12 -39 48 -67 81 -50 60 -71 71 -93 49z"/> <path d="M9450 10229 c0 -5 -15 -16 -32 -24 -45 -19 -79 -57 -68 -75 5 -8 6 -18 4 -22 -8 -13 -34 -9 -34 6 0 7 -11 21 -25 30 -27 18 -27 18 -25 -51 0 -5 8 -8 18 -9 9 0 24 -4 33 -8 10 -4 30 1 53 14 34 21 47 40 26 40 -5 0 -10 5 -10 10 0 15 21 12 41 -6 13 -12 22 -13 37 -5 31 16 62 61 62 87 0 21 -5 24 -40 24 -22 0 -40 -5 -40 -11z"/> <path d="M3518 10213 c-28 -33 -29 -42 -7 -93 25 -59 43 -60 47 -4 2 21 8 44 14 51 7 9 6 20 -6 38 -19 30 -28 31 -48 8z"/> <path d="M7668 10145 c-2 -3 -52 -7 -110 -9 -125 -5 -148 -15 -335 -135 -53 -34 -61 -45 -43 -56 6 -3 10 -10 10 -16 0 -14 -28 -11 -33 4 -3 9 -13 8 -40 -5 -41 -19 -43 -25 -24 -52 11 -16 24 -18 74 -14 34 2 69 10 78 18 16 13 15 15 -6 33 l-22 18 20 21 c12 11 46 29 76 39 31 10 79 32 107 49 28 16 68 33 89 36 33 5 41 3 50 -14 6 -11 11 -30 11 -42 0 -30 62 -140 79 -140 8 0 28 -4 45 -10 17 -5 48 -12 69 -15 28 -5 40 -12 47 -31 5 -13 15 -24 22 -24 22 0 41 17 34 29 -4 6 3 15 16 20 30 12 101 87 122 128 28 55 44 57 127 15 101 -51 103 -69 12 -104 -86 -33 -169 -57 -208 -60 -51 -5 -28 -23 30 -23 30 -1 60 -6 66 -12 8 -8 18 -7 37 3 15 8 36 14 46 14 10 0 41 14 69 31 48 29 51 30 86 16 25 -11 42 -12 54 -5 10 5 26 6 37 3 24 -8 39 20 21 38 -18 18 -13 27 18 27 40 0 61 9 61 26 0 17 -33 31 -103 43 -59 10 -188 55 -221 76 -52 34 -446 101 -468 80z m120 -49 c13 -1 29 -9 36 -18 7 -10 25 -18 40 -18 29 0 86 -25 86 -38 0 -40 -98 -66 -201 -54 l-54 7 -1 60 c-1 66 8 79 46 69 14 -4 35 -7 48 -8z"/> <path d="M9633 10098 c-34 -38 -45 -66 -33 -87 21 -41 15 -66 -47 -200 -27 -57 -34 -83 -30 -112 3 -20 -1 -64 -7 -96 -7 -32 -9 -68 -6 -78 11 -29 60 83 70 160 12 88 20 127 31 150 5 11 16 43 23 70 8 28 26 84 40 125 14 41 26 78 26 82 0 17 -48 7 -67 -14z"/> <path d="M3416 10082 c-3 -3 -6 -14 -6 -24 0 -16 6 -19 32 -16 17 2 33 8 35 13 4 12 -52 36 -61 27z"/> <path d="M3530 10018 c0 -7 -7 -26 -16 -43 -11 -22 -15 -53 -12 -117 2 -49 6 -88 10 -88 4 0 10 25 13 55 4 30 11 58 16 60 11 8 10 145 -2 145 -5 0 -9 -6 -9 -12z"/> <path d="M9023 10004 c-3 -10 -2 -29 4 -44 6 -16 7 -34 2 -41 -11 -17 -10 -97 1 -124 7 -19 8 -18 13 5 25 122 28 153 17 186 -12 37 -27 44 -37 18z"/> <path d="M5797 9956 c-4 -10 -5 -21 -2 -24 9 -9 17 6 13 25 -3 17 -4 17 -11 -1z"/> <path d="M6913 9904 c-3 -9 3 -24 17 -37 20 -19 22 -19 16 -4 -3 10 -6 27 -6 38 0 23 -18 25 -27 3z"/> <path d="M7294 9907 c-36 -21 -17 -37 44 -38 32 0 80 -5 107 -10 28 -6 61 -10 75 -11 14 0 32 -4 42 -9 20 -11 48 -2 48 15 0 11 -73 36 -165 56 -57 13 -126 11 -151 -3z"/> <path d="M5381 9816 c-7 -9 -30 -14 -57 -13 -25 0 -50 -5 -56 -11 -7 -7 -21 -12 -32 -12 -12 0 -34 -7 -50 -15 -15 -8 -43 -15 -62 -15 -20 0 -37 -6 -42 -16 -8 -14 -10 -14 -21 0 -10 12 -18 13 -32 5 -11 -5 -45 -12 -77 -15 -50 -4 -256 -14 -289 -14 -7 0 -13 -6 -13 -14 0 -17 65 -27 135 -20 28 2 71 -1 97 -8 41 -10 62 -8 175 16 70 15 136 32 145 37 10 5 29 9 43 9 14 0 28 7 31 15 7 17 40 20 49 5 10 -16 23 -12 30 10 4 12 15 20 28 20 31 0 51 15 44 34 -8 20 -31 21 -46 2z"/> <path d="M5681 9781 c-21 -29 -28 -61 -13 -61 14 0 53 78 43 84 -5 4 -19 -7 -30 -23z"/> <path d="M9030 9730 c0 -25 27 -37 43 -21 9 10 8 16 -7 27 -27 19 -36 18 -36 -6z"/> <path d="M3444 9700 c-7 -34 -16 -37 -34 -14 -26 30 -50 36 -76 19 -38 -25 -30 -43 24 -51 67 -9 109 -51 110 -107 0 -23 -7 -52 -15 -65 -11 -18 -13 -43 -9 -110 3 -48 7 -107 8 -131 2 -35 7 -45 26 -52 30 -11 29 -51 -4 -84 -22 -22 -31 -25 -62 -19 -20 4 -45 11 -54 15 -20 11 -98 -10 -98 -26 0 -21 38 -35 66 -24 35 13 52 6 63 -24 7 -18 20 -26 48 -31 21 -4 55 -21 76 -39 37 -32 38 -35 29 -70 -8 -28 -7 -39 4 -48 13 -10 12 -15 -3 -31 -15 -17 -15 -21 -3 -29 8 -5 25 -12 37 -15 25 -7 33 -30 33 -96 0 -40 3 -48 19 -48 15 0 20 9 23 40 2 23 0 46 -4 53 -4 7 -8 29 -8 49 0 20 -4 39 -9 42 -4 3 -11 24 -15 46 -3 22 -12 54 -20 72 -8 18 -19 56 -25 83 -7 28 -21 68 -31 91 -11 22 -20 55 -20 72 0 17 -4 51 -10 74 -14 64 -29 340 -20 386 5 32 3 47 -12 71 -11 17 -22 31 -24 31 -3 0 -7 -13 -10 -30z"/> <path d="M7050 9722 c0 -16 48 -54 59 -47 19 11 12 31 -14 43 -30 14 -45 15 -45 4z"/> <path d="M7350 9703 c0 -11 76 -53 94 -53 9 0 16 -6 16 -14 0 -15 106 -54 116 -43 4 3 4 13 0 22 -4 11 -13 14 -29 10 -17 -5 -26 -2 -30 9 -4 9 -18 16 -32 16 -14 0 -25 4 -25 9 0 14 -64 51 -89 51 -11 0 -21 -3 -21 -7z"/> <path d="M7500 9698 c0 -14 59 -58 78 -58 12 0 21 -3 80 -33 19 -9 55 -17 80 -17 26 0 79 -5 117 -11 78 -12 190 -13 207 -3 16 10 -65 32 -147 40 -117 10 -310 53 -340 74 -5 4 -25 11 -42 15 -24 5 -33 3 -33 -7z"/> <path d="M9121 9607 c-24 -15 -36 -17 -39 -9 -7 22 -23 12 -17 -10 22 -80 50 -101 70 -55 8 17 18 22 49 22 48 0 56 16 22 50 -30 30 -40 30 -85 2z"/> <path d="M4132 9454 c4 -21 22 -23 26 -1 2 10 -3 17 -13 17 -10 0 -15 -6 -13 -16z"/> <path d="M5720 9310 c0 -11 7 -20 15 -20 8 0 15 9 15 20 0 11 -7 20 -15 20 -8 0 -15 -9 -15 -20z"/> <path d="M9183 9159 c-8 -8 -6 -16 8 -30 25 -25 29 -24 29 11 0 31 -17 39 -37 19z"/> <path d="M9082 9108 c-7 -7 -12 -20 -12 -30 0 -10 -11 -44 -24 -76 -30 -75 -51 -151 -42 -159 4 -4 10 -3 14 3 13 20 57 44 78 44 17 0 24 8 29 29 5 23 15 33 41 41 30 10 34 16 34 46 0 31 -2 33 -28 28 -33 -7 -57 16 -57 54 0 29 -15 38 -33 20z"/> <path d="M5916 9054 c-9 -23 -8 -24 14 -24 13 0 20 7 20 20 0 24 -25 27 -34 4z"/> <path d="M5633 8932 c-38 -33 -63 -81 -63 -122 0 -18 -6 -44 -14 -58 -21 -39 -35 -161 -25 -216 4 -25 17 -63 28 -83 11 -21 23 -56 28 -78 7 -36 11 -40 38 -41 17 -1 41 -6 53 -13 34 -18 136 -49 145 -44 11 7 8 38 -5 51 -7 7 -23 12 -37 12 -15 0 -35 7 -45 15 -11 8 -28 15 -39 15 -10 0 -31 12 -46 28 -16 15 -40 35 -56 46 l-27 18 7 110 c4 61 14 122 21 137 8 14 14 36 14 48 0 12 5 25 10 28 6 3 10 17 10 29 0 35 29 109 45 119 8 4 15 12 15 17 0 18 -25 10 -57 -18z"/> <path d="M7069 8919 l-22 -31 21 -21 c17 -17 23 -18 36 -7 14 11 16 9 16 -8 0 -12 9 -26 20 -32 11 -6 20 -15 20 -21 0 -5 11 -22 25 -37 25 -27 25 -27 25 -4 0 13 -11 35 -25 50 -14 15 -28 37 -31 50 -4 12 -15 27 -26 33 -15 8 -18 17 -14 35 9 35 -18 31 -45 -7z"/> <path d="M8994 8793 c-3 -10 -10 -27 -14 -38 -25 -56 -40 -99 -40 -110 0 -10 36 -24 67 -25 11 0 11 180 1 186 -4 3 -11 -3 -14 -13z"/> <path d="M7230 8693 c0 -13 5 -23 10 -23 13 0 13 11 0 30 -8 12 -10 11 -10 -7z"/> <path d="M5834 8557 c-51 -25 -64 -41 -64 -78 0 -18 5 -19 59 -13 46 5 66 3 93 -11 25 -13 55 -17 126 -16 89 2 94 1 130 -27 36 -29 200 -82 252 -82 32 0 132 56 170 95 l33 34 40 -16 c36 -15 51 -15 136 -3 164 24 177 21 264 -51 4 -3 5 -19 1 -34 -6 -25 -10 -27 -44 -22 -38 5 -93 -23 -77 -39 11 -11 124 14 169 37 41 21 52 45 16 36 -33 -9 -49 9 -37 40 11 29 -7 49 -100 115 -70 49 -107 55 -201 34 -91 -21 -128 -39 -177 -83 -61 -55 -89 -66 -153 -60 -35 3 -65 0 -80 -8 -35 -19 -80 -4 -157 51 -162 116 -296 150 -399 101z"/> <path d="M3927 8408 c3 -18 13 -38 22 -45 23 -17 26 -7 7 21 -9 14 -16 32 -16 41 0 8 -4 15 -10 15 -5 0 -7 -14 -3 -32z"/> <path d="M5997 8223 c-12 -12 -7 -33 8 -33 17 0 19 9 7 28 -5 7 -11 9 -15 5z"/> <path d="M5674 8096 c-3 -9 -12 -16 -20 -16 -8 0 -14 -8 -14 -17 0 -14 5 -12 27 9 15 15 24 30 20 34 -3 4 -9 -1 -13 -10z"/> <path d="M6197 8069 c-10 -6 -39 -11 -65 -12 -40 -2 -51 -8 -88 -45 -41 -42 -43 -42 -54 -22 -9 18 -17 20 -43 14 -18 -3 -36 -13 -40 -20 -4 -8 -21 -14 -37 -14 -17 0 -30 -4 -30 -10 0 -5 -4 -10 -10 -10 -5 0 -10 7 -10 15 0 23 -16 18 -50 -15 -17 -16 -35 -30 -40 -30 -6 0 -10 -6 -10 -14 0 -21 -21 -31 -30 -16 -14 23 -40 3 -40 -31 0 -22 -5 -32 -20 -36 -10 -3 -26 -16 -35 -29 -14 -23 -14 -24 4 -24 11 0 23 5 26 10 3 6 17 10 31 10 13 0 41 15 61 33 44 37 77 57 96 57 8 0 31 11 51 25 20 14 51 25 68 25 16 0 47 8 67 19 20 10 63 26 96 36 33 9 70 21 83 26 44 17 125 8 227 -27 59 -20 85 -18 157 16 62 29 66 30 109 16 24 -8 68 -17 97 -20 49 -5 52 -4 52 18 0 19 -4 22 -25 18 -17 -3 -34 4 -55 22 -34 28 -68 33 -103 15 -20 -11 -143 -23 -217 -22 -37 1 -161 19 -189 27 -9 3 -24 1 -34 -5z"/> <path d="M6856 8005 c-9 -13 -16 -28 -16 -34 0 -11 25 -21 55 -21 13 0 26 -4 30 -10 3 -5 31 -17 63 -27 31 -10 72 -28 91 -40 19 -13 38 -23 43 -23 6 0 27 -13 48 -30 33 -27 80 -40 80 -24 0 33 -103 115 -180 143 -19 8 -70 31 -113 52 -43 22 -79 39 -81 39 -2 0 -11 -11 -20 -25z"/> <path d="M5492 7733 c5 -26 38 -29 38 -4 0 15 -6 21 -21 21 -14 0 -19 -5 -17 -17z"/> <path d="M5834 7676 c-8 -22 3 -49 19 -43 6 2 12 14 12 27 0 27 -22 39 -31 16z"/> <path d="M5790 7618 c0 -19 2 -20 10 -8 13 19 13 30 0 30 -5 0 -10 -10 -10 -22z"/> <path d="M6265 7630 c-3 -5 -1 -27 4 -47 15 -54 15 -55 -26 -51 -34 3 -37 6 -50 51 -16 56 -43 65 -43 14 0 -18 5 -38 11 -44 7 -7 9 -23 5 -37 -6 -23 -11 -26 -52 -26 -24 0 -56 -7 -69 -16 -14 -9 -35 -14 -47 -11 -13 4 -31 -1 -46 -13 -13 -11 -40 -22 -61 -26 -43 -7 -91 -28 -146 -63 -22 -14 -41 -26 -43 -27 -1 -1 3 -13 9 -28 9 -18 25 -29 52 -37 25 -6 41 -17 44 -30 6 -20 9 -20 153 -25 30 -1 75 -6 100 -12 25 -6 89 -14 142 -17 83 -6 97 -9 95 -23 -1 -10 3 -19 8 -22 6 -3 11 6 13 18 3 20 8 23 28 18 13 -4 24 -2 24 3 0 23 69 18 126 -10 15 -8 33 -7 60 0 21 6 54 11 72 11 18 0 40 4 50 9 9 6 38 13 64 16 26 3 50 10 53 16 4 5 18 9 33 9 15 0 52 9 82 19 30 11 76 22 102 26 28 4 55 16 67 29 20 22 20 23 4 38 -10 9 -45 24 -78 33 -33 9 -82 32 -110 51 -27 18 -66 37 -85 40 -19 4 -46 13 -60 21 -14 7 -32 13 -41 13 -24 0 -42 26 -34 50 10 32 -21 25 -47 -11 -33 -45 -65 -55 -98 -30 -27 19 -27 19 -60 0 -20 -13 -45 -19 -69 -17 -33 3 -36 6 -42 39 -11 72 -71 135 -94 99z m330 -181 c100 -7 136 -14 156 -28 14 -10 47 -21 75 -24 88 -9 118 -20 128 -49 8 -23 6 -30 -15 -47 -20 -17 -39 -20 -110 -21 -50 0 -104 -6 -129 -15 -59 -21 -278 -21 -294 -1 -9 11 -22 13 -62 6 -86 -14 -245 -14 -294 0 -25 8 -49 12 -55 11 -40 -12 -125 -17 -151 -10 -34 10 -56 45 -47 77 8 31 131 68 175 53 28 -10 35 -9 48 8 12 15 37 21 115 30 95 11 130 13 270 18 33 1 119 -2 190 -8z"/> <path d="M5953 7604 c-7 -18 17 -38 31 -24 11 11 1 40 -14 40 -6 0 -13 -7 -17 -16z"/> <path d="M6504 7575 c-8 -21 6 -41 17 -24 12 19 11 39 -1 39 -6 0 -13 -7 -16 -15z"/> <path d="M7910 7559 c0 -24 23 -21 28 4 2 10 -3 17 -12 17 -10 0 -16 -9 -16 -21z"/> <path d="M5686 7521 c-12 -13 -14 -21 -6 -26 18 -11 40 3 40 25 0 25 -12 26 -34 1z"/> <path d="M5570 7390 c0 -16 7 -20 30 -20 37 0 39 13 5 28 -34 16 -35 15 -35 -8z"/> <path d="M7376 7359 c-14 -11 -26 -24 -26 -29 0 -13 110 -24 122 -12 15 15 -20 62 -47 62 -12 0 -34 -9 -49 -21z"/> <path d="M5405 7336 c-44 -14 -70 -28 -70 -37 0 -11 18 -14 86 -13 116 1 122 4 103 43 -18 36 -25 36 -119 7z"/> <path d="M7350 7260 c-14 -3 -31 -18 -38 -33 -7 -15 -24 -30 -37 -33 -25 -6 -55 -43 -55 -69 0 -26 46 -17 79 16 31 30 87 117 80 123 -2 1 -15 0 -29 -4z"/> <path d="M5270 7181 c0 -5 8 -23 17 -40 13 -21 27 -31 48 -33 26 -3 30 -6 27 -30 -3 -32 20 -38 53 -14 18 13 17 14 -11 29 -17 9 -43 34 -59 56 -19 28 -35 41 -51 41 -13 0 -24 -4 -24 -9z"/> <path d="M5600 7105 c7 -8 16 -12 21 -9 13 8 1 24 -18 24 -13 0 -13 -3 -3 -15z"/> <path d="M6106 7102 c-3 -6 -1 -14 5 -17 15 -10 25 3 12 16 -7 7 -13 7 -17 1z"/> <path d="M7165 7091 c-6 -11 9 -23 19 -14 9 9 7 23 -3 23 -6 0 -12 -4 -16 -9z"/> <path d="M5665 7053 c-8 -33 0 -39 30 -23 31 17 31 22 1 36 -22 10 -25 9 -31 -13z"/> <path d="M5762 7001 c0 -46 3 -51 29 -60 16 -5 29 -15 29 -20 0 -6 5 -11 10 -11 6 0 4 13 -5 30 -8 16 -19 46 -23 67 -5 22 -14 39 -24 41 -13 2 -16 -7 -16 -47z"/> <path d="M4374 6964 c9 -33 53 -104 66 -104 29 0 11 59 -33 108 -27 29 -41 28 -33 -4z"/> <path d="M5915 6941 c-3 -5 -1 -12 5 -16 12 -7 30 2 30 16 0 12 -27 12 -35 0z"/> <path d="M6132 6642 c-7 -2 -12 -9 -12 -16 0 -16 80 -29 116 -20 16 4 31 1 43 -10 11 -10 34 -17 57 -16 22 1 59 -1 83 -3 37 -4 48 -1 62 17 l17 21 19 -24 c16 -20 23 -22 41 -12 11 6 36 11 55 11 23 0 37 6 41 16 4 11 16 15 43 12 29 -2 38 1 38 12 0 13 -15 14 -95 10 -106 -6 -282 -5 -411 2 -47 2 -91 2 -97 0z"/> <path d="M4670 6430 c0 -6 7 -13 15 -16 8 -4 15 -16 15 -29 0 -27 47 -62 62 -47 7 7 -4 25 -32 56 -42 45 -60 56 -60 36z"/> <path d="M4789 6289 c11 -32 34 -38 29 -8 -1 13 -11 25 -20 27 -15 3 -16 -1 -9 -19z"/> <path d="M4880 6190 c0 -19 20 -27 33 -13 8 7 -11 33 -24 33 -5 0 -9 -9 -9 -20z"/> <path d="M5160 6153 c0 -35 1 -35 19 -19 10 9 25 14 35 10 25 -10 19 12 -9 30 -36 24 -45 20 -45 -21z"/> <path d="M4962 6131 c7 -18 97 -111 107 -111 6 0 11 11 11 24 0 17 -9 27 -30 36 -16 7 -36 23 -45 36 -14 22 -51 35 -43 15z"/> <path d="M7410 6105 c0 -9 5 -15 11 -13 6 2 11 8 11 13 0 5 -5 11 -11 13 -6 2 -11 -4 -11 -13z"/> <path d="M7595 6080 c-4 -6 -22 -17 -41 -25 -19 -8 -34 -18 -34 -23 0 -16 -91 -107 -140 -139 -61 -42 -126 -100 -120 -107 11 -10 111 46 119 66 5 14 10 18 15 10 11 -18 26 -15 26 5 0 9 12 30 27 45 31 32 76 37 104 12 17 -15 18 -14 25 12 3 16 15 47 25 70 10 22 19 50 19 62 0 23 -14 29 -25 12z"/> <path d="M5100 5982 c0 -11 60 -55 67 -49 7 8 -39 57 -54 57 -7 0 -13 -4 -13 -8z"/> <path d="M7015 5981 c-7 -12 12 -24 25 -16 11 7 4 25 -10 25 -5 0 -11 -4 -15 -9z"/> <path d="M5325 5801 c-7 -12 12 -24 25 -16 11 7 4 25 -10 25 -5 0 -11 -4 -15 -9z"/> <path d="M7071 5801 c-10 -7 -10 -10 -1 -16 6 -4 16 -3 22 3 13 13 -4 23 -21 13z"/> <path d="M7170 5722 c0 -5 -16 -16 -35 -25 -19 -9 -35 -21 -35 -26 0 -5 -12 -11 -27 -13 -17 -2 -28 -9 -28 -18 0 -10 8 -14 27 -12 19 2 28 -2 33 -17 7 -23 13 -25 35 -11 12 7 12 12 2 22 -18 18 -15 36 8 43 11 4 27 20 35 36 14 26 14 29 0 29 -8 0 -15 -4 -15 -8z"/> <path d="M5530 5669 c-17 -31 -8 -40 18 -19 13 11 21 24 17 30 -10 16 -23 12 -35 -11z"/> <path d="M5582 5638 c5 -15 35 -34 43 -27 3 4 3 14 -1 23 -7 18 -48 23 -42 4z"/> <path d="M6751 5550 c-19 -26 -28 -30 -61 -28 -38 2 -75 -16 -64 -33 3 -5 29 -9 58 -9 28 0 57 -5 63 -11 15 -15 44 -4 37 14 -3 8 2 20 11 27 15 12 19 11 35 -9 19 -26 40 -21 40 9 0 10 -10 20 -24 24 -13 3 -26 15 -29 26 -8 29 -40 24 -66 -10z"/> <path d="M6450 5551 c0 -5 -9 -13 -20 -16 -11 -3 -20 -15 -20 -26 0 -27 13 -24 38 11 24 33 27 40 12 40 -5 0 -10 -4 -10 -9z"/> <path d="M6317 5529 c-9 -6 -17 -16 -17 -23 0 -24 -112 -38 -125 -15 -4 6 -19 7 -35 4 -23 -5 -30 -2 -35 15 -5 16 -10 19 -18 11 -6 -6 -28 -11 -48 -11 -42 0 -52 -8 -39 -30 7 -12 15 -12 43 -2 42 15 40 16 67 -8 13 -11 28 -20 34 -21 65 -4 219 -3 221 2 4 5 -18 75 -26 83 -2 3 -12 0 -22 -5z"/> <path d="M8469 5533 c-4 -26 7 -71 41 -173 46 -141 66 -262 80 -490 6 -96 13 -211 16 -255 3 -44 6 -118 8 -165 2 -47 7 -143 12 -215 4 -71 7 -141 6 -155 -4 -54 -9 -87 -16 -99 -5 -7 -5 -27 -2 -46 5 -26 0 -47 -24 -93 -16 -33 -30 -69 -30 -81 0 -11 -11 -28 -25 -37 -36 -24 -48 -49 -34 -72 10 -15 9 -26 -5 -52 -9 -18 -16 -38 -16 -45 0 -6 -11 -22 -25 -35 -17 -16 -25 -34 -25 -56 0 -17 -7 -37 -15 -44 -8 -7 -18 -30 -21 -52 -4 -21 -15 -44 -24 -51 -10 -7 -36 -36 -58 -66 -22 -29 -49 -59 -61 -67 -13 -10 -21 -26 -21 -45 0 -17 -6 -32 -15 -35 -8 -4 -15 -12 -15 -19 0 -7 -15 -32 -34 -54 -19 -23 -37 -54 -41 -69 -3 -15 -21 -45 -40 -67 -19 -21 -35 -45 -35 -52 0 -7 -16 -36 -35 -63 -19 -27 -35 -58 -35 -69 0 -10 -13 -35 -30 -56 -16 -21 -30 -42 -30 -47 0 -5 -16 -32 -35 -61 -19 -28 -35 -61 -35 -72 0 -30 -25 -60 -60 -75 -34 -14 -37 -22 -15 -40 13 -11 13 -15 -1 -41 -8 -16 -19 -29 -23 -29 -5 0 -13 -15 -17 -32 -3 -18 -17 -46 -29 -63 -40 -54 -77 -124 -70 -134 9 -15 -20 -66 -51 -90 -25 -20 -26 -23 -10 -34 15 -11 14 -15 -14 -45 -18 -20 -30 -44 -30 -61 0 -16 -9 -36 -21 -47 -15 -14 -19 -26 -15 -48 5 -22 0 -40 -19 -68 -14 -20 -25 -51 -25 -67 0 -16 -4 -33 -10 -36 -5 -3 -10 -19 -10 -34 0 -30 -36 -71 -62 -71 -23 0 -48 -11 -48 -20 0 -5 12 -8 27 -7 40 3 43 -28 4 -51 -18 -10 -31 -25 -31 -37 -1 -24 -18 -47 -45 -62 -13 -8 -20 -23 -21 -48 0 -26 -8 -43 -27 -58 -14 -12 -28 -31 -31 -43 -4 -12 -18 -26 -32 -33 -23 -10 -25 -15 -19 -51 6 -33 4 -40 -9 -40 -9 0 -16 -5 -16 -11 0 -14 -66 -115 -80 -124 -6 -3 -10 -15 -10 -25 0 -10 -9 -22 -21 -25 -22 -7 -39 -42 -39 -79 0 -13 -9 -31 -20 -41 -11 -10 -20 -24 -20 -31 0 -8 -14 -26 -31 -41 -25 -23 -30 -34 -26 -58 5 -33 -15 -67 -45 -78 -11 -4 -18 -17 -18 -31 0 -13 -7 -27 -16 -30 -10 -4 -13 -13 -9 -25 3 -12 0 -21 -10 -25 -8 -3 -15 -16 -15 -29 0 -14 -7 -30 -15 -37 -8 -7 -17 -28 -21 -47 -4 -19 -12 -37 -19 -39 -7 -3 -20 -26 -29 -52 -10 -26 -21 -55 -27 -64 -5 -10 -9 -29 -9 -42 0 -24 -16 -36 -50 -36 -10 0 -34 19 -52 43 -35 45 -39 51 -89 137 -17 30 -42 68 -55 83 -13 16 -24 34 -24 41 0 7 -11 23 -25 36 -14 13 -25 29 -25 36 0 7 -16 26 -35 41 -19 15 -35 34 -35 41 0 23 -31 61 -46 55 -17 -6 -44 14 -44 34 0 7 -18 31 -40 52 -22 21 -40 45 -40 53 0 8 -12 21 -27 29 -14 8 -41 37 -60 66 -18 29 -42 57 -53 63 -11 6 -20 19 -20 29 0 19 -29 51 -47 51 -6 0 -20 16 -32 35 -11 19 -31 40 -43 46 -20 9 -65 64 -77 94 -12 31 -43 63 -56 58 -20 -7 -45 14 -39 32 3 7 -4 18 -15 25 -12 6 -21 19 -21 28 0 10 -17 29 -39 43 -39 25 -151 149 -151 167 0 6 -13 24 -30 40 -26 27 -31 28 -39 14 -9 -15 -10 -15 -17 3 -9 21 -52 65 -65 65 -5 0 -16 12 -26 27 -13 19 -14 28 -5 31 6 2 12 8 12 14 0 6 -6 8 -14 5 -19 -8 -81 61 -96 106 -7 22 -27 50 -51 69 -21 17 -39 39 -39 48 0 10 -7 23 -15 30 -8 7 -15 17 -15 23 0 5 -11 25 -25 43 -14 18 -25 41 -25 52 0 11 -7 25 -15 32 -8 7 -15 19 -15 27 0 9 -13 31 -30 50 -16 18 -30 43 -30 54 0 29 -25 71 -54 93 -15 11 -26 29 -26 42 0 14 -9 32 -20 41 -11 10 -20 23 -20 29 0 6 -7 17 -15 24 -14 12 -14 15 1 31 12 13 14 27 10 46 -4 15 -11 51 -16 78 -14 81 -22 109 -36 120 -24 19 -56 137 -51 185 6 54 -1 100 -17 100 -14 0 -49 54 -64 98 -6 18 -20 45 -32 59 -11 14 -20 39 -20 55 0 17 -9 41 -20 55 -11 14 -22 41 -26 62 -4 20 -13 48 -20 63 -8 15 -11 34 -8 42 3 9 2 16 -3 16 -5 0 -19 24 -32 53 -12 28 -27 63 -34 77 -9 18 -10 33 -3 52 8 22 6 32 -8 47 -13 14 -17 31 -14 58 3 21 1 72 -3 112 -4 48 -3 81 4 92 8 13 4 22 -24 47 -30 27 -33 33 -23 58 6 19 7 50 1 88 -6 43 -5 71 4 99 10 29 10 46 2 68 -7 17 -8 43 -3 66 4 21 8 79 9 128 2 111 12 187 39 290 52 206 68 274 91 405 5 30 12 63 16 72 13 33 -24 34 -51 2 -32 -40 -97 -226 -115 -331 -5 -29 -20 -83 -33 -120 -41 -117 -56 -179 -56 -240 -1 -32 -6 -83 -13 -113 -21 -89 1 -469 32 -570 6 -19 11 -57 11 -85 0 -27 7 -75 15 -105 8 -30 15 -71 15 -90 1 -45 31 -158 63 -235 14 -33 34 -83 45 -111 12 -27 45 -102 75 -165 83 -174 147 -338 147 -374 0 -11 9 -33 20 -50 11 -16 20 -45 20 -64 0 -38 14 -90 36 -134 8 -16 14 -51 14 -78 0 -51 19 -102 44 -116 7 -4 28 -35 46 -68 18 -33 38 -67 45 -75 6 -8 15 -22 19 -30 3 -8 22 -42 41 -75 18 -33 44 -80 57 -105 22 -41 53 -94 86 -145 6 -11 17 -31 22 -43 14 -32 102 -135 170 -197 102 -93 279 -280 405 -425 26 -30 75 -84 109 -120 59 -63 148 -165 231 -265 22 -26 83 -98 135 -160 136 -160 270 -335 270 -353 0 -4 22 -33 48 -64 26 -31 59 -75 74 -97 26 -38 32 -41 72 -41 26 0 47 5 50 13 5 9 7 9 12 0 9 -19 69 -16 86 5 8 9 52 91 98 182 46 91 118 231 159 312 42 81 94 182 116 225 21 43 44 85 51 93 6 8 32 54 57 102 25 47 58 106 74 130 15 23 30 48 33 54 3 6 24 37 48 70 120 167 192 287 192 323 0 16 7 42 15 57 8 16 15 38 15 49 0 11 7 29 15 39 8 11 15 29 15 41 0 12 7 30 15 41 8 10 15 27 15 36 0 9 6 29 14 45 8 15 21 44 29 63 37 88 130 289 148 320 5 8 27 51 49 95 22 44 56 109 76 145 20 36 51 92 69 125 18 33 44 80 59 105 14 25 29 52 33 60 3 8 18 33 32 55 38 60 49 78 57 95 17 34 125 171 162 205 22 19 43 48 47 63 3 15 26 57 51 94 24 37 44 72 44 77 0 5 7 22 15 38 23 46 135 319 135 331 0 6 7 23 15 39 55 107 69 151 77 253 13 143 0 711 -18 820 -7 47 -14 103 -14 125 0 22 -7 72 -15 110 -9 39 -20 93 -26 120 -32 154 -125 377 -161 383 -10 2 -18 0 -19 -5z"/> <path d="M5810 5521 c0 -17 12 -41 21 -41 5 0 9 11 9 25 0 16 -6 25 -15 25 -8 0 -15 -4 -15 -9z"/> <path d="M5880 5515 c0 -9 9 -15 25 -15 16 0 25 6 25 15 0 9 -9 15 -25 15 -16 0 -25 -6 -25 -15z"/> <path d="M4470 5351 c0 -11 5 -23 10 -26 6 -4 10 5 10 19 0 14 -4 26 -10 26 -5 0 -10 -9 -10 -19z"/> <path d="M2453 3635 c-3 -9 -3 -19 1 -22 7 -7 36 16 36 28 0 15 -30 10 -37 -6z"/> <path d="M2147 3523 c-14 -13 -6 -24 15 -21 27 4 36 28 11 28 -11 0 -23 -3 -26 -7z"/> <path d="M2295 3348 c-37 -21 -54 -52 -55 -95 0 -24 5 -43 10 -43 6 0 10 9 10 19 0 11 6 26 13 33 46 48 62 108 22 86z"/> <path d="M7640 3295 c0 -19 21 -19 46 0 18 14 17 14 -13 15 -23 0 -33 -5 -33 -15z"/> <path d="M7579 3280 c-11 -7 -10 -10 4 -16 10 -4 23 -2 28 3 14 14 -13 24 -32 13z"/> <path d="M5238 2944 c-14 -31 -5 -40 27 -26 30 14 33 38 4 45 -15 4 -23 -1 -31 -19z"/> <path d="M3892 1590 c-46 -22 -115 -48 -155 -56 -40 -9 -85 -22 -100 -30 -16 -8 -54 -14 -86 -14 -31 0 -81 -6 -111 -14 -30 -8 -93 -18 -140 -21 -47 -4 -89 -11 -95 -15 -5 -4 -64 -10 -130 -14 -137 -7 -339 -37 -372 -54 -12 -7 -34 -12 -48 -12 -17 0 -25 -5 -23 -12 3 -8 20 -11 49 -9 24 2 67 5 94 7 64 4 359 50 405 63 19 5 44 9 55 9 50 -1 168 16 178 26 7 6 41 12 77 13 61 3 169 18 320 46 88 16 128 12 132 -15 2 -12 8 -23 14 -25 10 -3 84 131 84 155 0 24 -66 12 -148 -28z"/> <path d="M8454 1406 c-11 -28 8 -71 34 -74 30 -5 29 24 -2 63 -22 27 -25 28 -32 11z"/> <path d="M2090 1283 c-126 -12 -142 -15 -131 -26 23 -23 181 -1 181 25 0 4 -3 7 -7 6 -5 0 -24 -3 -43 -5z"/> <path d="M4126 1003 c-11 -12 17 -33 43 -33 15 0 31 -4 37 -9 8 -8 193 -41 229 -41 26 0 16 19 -12 26 -16 3 -37 10 -48 14 -57 26 -235 56 -249 43z"/> <path d="M4520 900 c0 -5 5 -10 11 -10 6 0 36 -18 68 -40 54 -38 58 -39 94 -28 40 12 47 25 20 34 -10 4 -32 12 -50 20 -17 8 -47 14 -66 14 -20 0 -39 5 -42 10 -3 6 -13 10 -21 10 -8 0 -14 -4 -14 -10z"/> <path d="M4757 823 c-12 -11 4 -23 30 -23 13 0 36 -9 50 -20 14 -11 38 -20 54 -20 15 0 31 -5 34 -10 4 -6 21 -10 38 -9 18 0 43 -3 56 -7 18 -5 23 -4 19 7 -2 8 -16 15 -31 17 -14 2 -31 10 -37 18 -7 8 -26 14 -42 14 -16 0 -41 6 -56 14 -32 16 -106 28 -115 19z"/> <path d="M5122 708 c3 -7 18 -14 34 -16 28 -3 28 -3 9 12 -24 19 -48 21 -43 4z"/> <path d="M7845 701 c-3 -5 -1 -12 5 -16 12 -7 30 2 30 16 0 12 -27 12 -35 0z"/> <path d="M5252 671 c-18 -11 61 -83 83 -75 25 10 17 38 -18 62 -36 24 -45 26 -65 13z"/> <path d="M7770 670 c-11 -6 -12 -12 -4 -20 13 -13 44 -2 44 16 0 16 -18 18 -40 4z"/> </g> </svg> 