<?xml version="1.0" standalone="no"?>
<!DOCTYPE svg PUBLIC "-//W3C//DTD SVG 20010904//EN"
 "http://www.w3.org/TR/2001/REC-SVG-20010904/DTD/svg10.dtd">
<svg version="1.0" xmlns="http://www.w3.org/2000/svg"
 width="450.000000pt" height="563.000000pt" viewBox="0 0 450.000000 563.000000"
 preserveAspectRatio="xMidYMid meet">
<metadata>
Created by potrace 1.10, written by Peter Selinger 2001-2011
</metadata>
<g transform="translate(0.000000,563.000000) scale(0.050000,-0.050000)"
fill="#000000" stroke="none">
<path d="M4130 10221 c-481 -60 -839 -183 -1155 -399 -123 -83 -209 -155 -202
-167 8 -12 4 -15 -9 -8 -26 17 -369 -362 -353 -389 7 -11 3 -17 -9 -13 -11 3
-50 -37 -86 -88 -187 -263 -232 -331 -245 -377 -8 -27 -27 -69 -42 -92 -149
-237 -237 -791 -203 -1281 19 -275 18 -308 -13 -350 -142 -194 -133 -170 -133
-380 0 -232 37 -349 208 -653 59 -107 130 -243 157 -304 62 -139 139 -231 237
-281 67 -34 81 -55 110 -154 18 -63 69 -200 113 -305 162 -384 235 -713 235
-1062 l0 -188 -89 -87 c-49 -49 -127 -150 -172 -225 -137 -226 -350 -366 -639
-418 -262 -47 -636 -143 -876 -223 -219 -75 -360 -138 -774 -353 -66 -34 -136
-67 -155 -73 -37 -10 -55 -251 -19 -251 47 0 267 102 354 164 259 185 972 425
1528 514 149 24 523 205 596 288 57 65 137 188 233 358 29 52 94 123 143 158
50 36 90 73 90 82 0 168 -125 1011 -159 1071 -65 115 -222 544 -260 710 -46
205 -48 207 -131 175 -81 -31 -165 21 -182 112 -7 40 -50 132 -94 205 -195
321 -283 539 -291 714 -11 270 78 367 239 260 77 -51 138 -66 138 -35 0 22
-95 104 -121 104 -11 0 -14 21 -7 49 13 54 -36 123 -72 101 -11 -7 -34 -4 -51
5 -25 15 -23 22 18 44 47 24 48 30 24 98 -14 40 -21 84 -16 98 4 14 -1 25 -14
25 -15 0 -14 12 2 38 19 31 16 63 -19 164 -43 126 -41 141 25 164 12 4 11 52
-3 125 -12 66 -14 133 -6 149 9 17 54 165 102 330 50 177 99 310 119 324 19
14 39 61 47 105 7 45 22 81 34 81 31 0 130 105 146 154 7 23 27 53 43 67 16
13 29 40 29 59 0 19 36 59 79 89 75 52 124 110 171 201 12 22 64 68 116 102
53 35 123 87 156 117 33 29 70 50 82 46 12 -4 55 23 94 59 44 40 93 66 126 66
29 0 59 9 66 20 7 11 30 20 51 20 22 0 55 8 74 18 58 29 202 88 273 111 23 7
47 -1 63 -24 25 -33 28 -33 55 4 31 41 44 44 274 64 212 19 316 16 347 -10 33
-28 110 -34 158 -14 23 10 39 5 47 -17 7 -18 35 -32 66 -32 29 0 89 -18 133
-41 46 -23 98 -36 124 -29 30 7 50 1 57 -19 16 -40 140 -111 195 -111 28 0 78
-35 129 -91 46 -49 84 -83 85 -75 0 9 9 0 21 -19 11 -19 32 -35 46 -35 14 0
49 -25 79 -55 147 -152 233 -251 233 -268 0 -11 9 -14 20 -7 11 7 20 -3 20
-21 0 -18 26 -66 57 -106 32 -40 64 -93 72 -118 7 -25 28 -45 44 -45 20 0 27
-11 19 -31 -6 -17 1 -35 16 -41 15 -6 43 -59 62 -119 18 -60 42 -114 52 -120
10 -6 18 -28 18 -49 0 -21 17 -50 38 -64 21 -15 42 -54 48 -87 5 -33 28 -96
52 -139 24 -45 42 -116 42 -164 0 -46 9 -89 20 -96 13 -8 16 -85 10 -205 -8
-140 -4 -196 14 -207 19 -12 17 -31 -8 -85 -25 -51 -30 -99 -22 -181 8 -75 4
-112 -10 -112 -33 0 -54 -140 -27 -183 33 -53 29 -63 -24 -53 -37 7 -52 -4
-74 -52 -35 -81 -34 -83 41 -75 219 23 185 -277 -90 -796 -86 -163 -150 -307
-150 -340 0 -114 -72 -181 -194 -181 -54 -1 -59 -9 -139 -265 -46 -146 -112
-346 -148 -445 -60 -167 -65 -202 -75 -502 -11 -386 3 -450 116 -508 42 -22
97 -69 122 -105 71 -102 361 -377 432 -407 35 -15 121 -68 192 -118 169 -118
285 -169 385 -170 81 0 206 -27 649 -139 127 -32 298 -73 380 -91 83 -19 227
-63 320 -98 161 -62 486 -135 715 -161 l105 -12 0 118 0 117 -135 14 c-204 21
-470 84 -673 159 -100 37 -231 79 -292 92 -60 14 -272 64 -470 112 -198 48
-423 97 -500 110 -285 45 -567 219 -918 567 l-232 229 0 297 c1 267 6 310 52
436 28 77 82 231 120 342 64 185 76 206 159 264 101 72 157 153 197 284 15 50
91 219 170 376 208 416 255 668 157 847 -43 77 -43 72 2 478 54 490 -83 1225
-242 1296 -8 3 -15 19 -15 34 0 184 -429 770 -760 1039 -224 182 -740 444
-740 376 0 -6 -11 -2 -25 10 -77 64 -498 113 -725 85z"/>
<path d="M4386 9913 c-9 -14 -32 -32 -51 -39 -43 -16 -45 -46 -6 -61 20 -8 26
-1 18 23 -9 31 -8 31 19 -1 15 -19 42 -35 60 -35 17 0 34 -9 38 -21 4 -14 27
-13 71 2 70 25 91 62 25 45 -25 -7 -44 1 -52 22 -11 30 -15 30 -36 2 -20 -28
-26 -28 -62 1 -30 24 -31 30 -7 22 24 -7 30 0 22 28 -12 46 -18 48 -39 12z"/>
<path d="M3885 9778 c-12 -33 -39 -58 -68 -63 -43 -7 -44 -9 -9 -25 27 -12 45
-7 62 17 28 38 92 45 83 8 -4 -14 -3 -18 2 -10 5 8 21 15 37 15 15 0 28 15 28
32 0 23 -12 29 -40 22 -27 -7 -40 0 -40 20 0 19 11 26 31 18 17 -6 26 -3 20 7
-23 36 -86 12 -106 -41z"/>
<path d="M4243 9780 c22 -63 77 -83 77 -29 0 36 -47 89 -78 89 -13 0 -13 -20
1 -60z"/>
<path d="M4123 9791 c-81 -29 -121 -87 -80 -113 40 -26 65 -22 41 7 -14 17
-12 32 6 49 34 31 52 11 39 -43 -9 -32 -2 -43 31 -45 37 -3 41 6 36 85 -3 49
-6 88 -6 87 0 -2 -30 -14 -67 -27z"/>
<path d="M4774 9795 c-14 -41 44 -135 85 -135 58 0 102 22 88 44 -7 11 -1 27
12 35 18 11 16 19 -7 28 -18 6 -32 5 -32 -4 0 -9 -20 -14 -45 -11 -25 2 -56 5
-69 6 -14 1 -20 16 -13 32 6 17 7 30 1 30 -6 0 -15 -11 -20 -25z"/>
<path d="M4387 9750 c7 -18 0 -30 -18 -30 -16 0 -29 -18 -29 -40 0 -22 -9 -40
-20 -40 -11 0 -20 -9 -20 -20 0 -11 7 -19 15 -18 8 2 31 2 50 0 55 -3 41 -42
-15 -42 -51 0 -75 -59 -25 -61 14 -1 46 -6 72 -11 34 -6 45 -1 37 19 -6 16 -2
37 9 48 14 14 14 25 0 33 -12 7 -16 28 -9 46 10 25 5 30 -21 20 -18 -7 -33 -5
-33 5 0 32 41 45 68 23 25 -21 52 -11 52 21 0 9 -14 10 -31 4 -21 -8 -35 2
-43 30 -6 24 -20 43 -30 43 -11 0 -15 -13 -9 -30z"/>
<path d="M4547 9680 c3 -80 43 -111 66 -50 6 17 19 30 29 30 10 0 18 -13 18
-30 0 -57 88 -27 92 32 2 24 -15 31 -70 28 -94 -4 -122 7 -109 42 6 15 2 28
-9 28 -11 0 -19 -36 -17 -80z"/>
<path d="M3500 9701 c0 -11 -16 -14 -35 -7 -32 12 -32 10 -6 -25 16 -22 31
-42 33 -45 1 -3 18 18 36 45 29 45 29 51 2 51 -16 0 -30 -9 -30 -19z"/>
<path d="M3373 9657 c-22 -24 -49 -35 -69 -27 -18 6 -26 6 -19 -2 8 -8 4 -27
-8 -42 -38 -45 -7 -49 48 -6 28 22 61 40 73 40 12 0 22 18 22 40 0 48 0 48
-47 -3z"/>
<path d="M3730 9679 c6 -9 -9 -28 -34 -41 -25 -13 -49 -26 -53 -29 -3 -3 9
-29 28 -58 40 -60 71 -37 57 42 -6 34 -1 43 20 35 16 -6 25 -24 19 -40 -6 -15
-2 -28 9 -28 11 0 24 8 27 18 4 10 48 11 98 4 50 -8 101 -11 113 -7 26 8 10
85 -18 85 -10 0 -13 -9 -6 -20 7 -12 -19 -19 -69 -17 -44 2 -81 9 -81 16 0 7
-27 22 -60 35 -33 12 -55 15 -50 5z"/>
<path d="M4233 9685 c-18 -31 -7 -125 15 -125 12 0 22 31 22 70 0 65 -16 90
-37 55z"/>
<path d="M4984 9649 c-4 -50 38 -75 89 -55 25 10 31 5 22 -18 -7 -17 -2 -41 9
-52 14 -14 -8 -25 -74 -35 -54 -8 -84 -20 -70 -29 17 -11 18 -19 2 -29 -12 -7
-22 -24 -22 -36 0 -12 11 -8 25 9 47 60 111 64 100 6 -8 -41 -2 -50 33 -50 23
0 42 -9 42 -20 0 -45 32 -16 36 32 3 47 -1 51 -51 40 -47 -11 -50 -9 -18 10
31 19 33 26 10 42 -21 15 -19 17 8 9 49 -16 95 5 95 44 -1 50 -33 90 -59 74
-17 -11 -17 -22 1 -43 13 -16 19 -34 12 -40 -21 -22 -49 11 -61 73 -7 34 -19
57 -28 52 -17 -10 -67 38 -54 52 5 4 -3 8 -17 8 -14 0 -27 -20 -30 -44z"/>
<path d="M4171 9505 c8 -42 4 -65 -10 -65 -16 0 -16 -11 -2 -38 15 -28 14 -42
-4 -50 -14 -6 -5 -7 20 0 25 6 45 2 45 -9 0 -11 17 -26 38 -32 46 -15 35 -84
-15 -98 -29 -7 -29 -9 2 -11 19 -1 35 -12 35 -25 0 -13 19 -6 43 15 24 21 37
27 29 13 -8 -15 -4 -25 12 -25 14 0 27 24 28 55 2 30 -1 44 -6 30 -14 -39 -66
-29 -66 12 0 20 -22 47 -50 59 -27 13 -50 39 -50 59 1 30 3 31 20 5 17 -26 19
-25 20 5 0 19 -14 35 -31 35 -17 0 -27 7 -22 15 5 9 -4 38 -20 65 -28 50 -28
50 -16 -15z"/>
<path d="M5293 9531 c-15 -44 87 -171 138 -171 29 0 76 -53 82 -94 6 -44 27
-58 45 -30 8 14 6 56 -6 94 -11 37 -27 58 -34 46 -19 -30 -58 0 -45 35 7 18
-1 29 -19 29 -17 0 -36 -16 -41 -35 -5 -19 -8 -9 -6 24 2 47 -7 61 -47 73 -32
9 -37 15 -15 16 19 1 35 9 35 18 0 23 -78 19 -87 -5z"/>
<path d="M3927 9513 c7 -20 13 -50 13 -66 0 -23 14 -27 60 -17 38 8 60 5 60
-8 0 -12 -9 -22 -20 -22 -11 0 -20 -18 -20 -41 0 -33 7 -37 37 -20 23 12 36
38 33 65 -3 25 -6 57 -7 71 -2 14 -21 25 -43 25 -22 0 -38 -8 -35 -18 3 -10
-4 -19 -15 -20 -11 -1 -20 7 -20 17 0 10 -13 31 -28 45 -23 22 -26 20 -15 -11z"/>
<path d="M3240 9500 c0 -11 -13 -20 -30 -20 -16 0 -30 -10 -30 -21 0 -12 8
-16 19 -10 10 7 28 -4 39 -24 17 -29 21 -24 21 30 1 36 -3 65 -9 65 -5 0 -10
-9 -10 -20z"/>
<path d="M4775 9497 c14 -14 25 -43 25 -66 0 -23 -7 -32 -15 -21 -48 65 -176
103 -193 58 -9 -23 -4 -29 16 -22 15 6 58 -11 94 -37 82 -61 106 -61 133 -2
24 53 12 79 -45 101 -32 11 -35 9 -15 -11z"/>
<path d="M2969 9458 c-10 -15 0 -18 28 -9 48 15 55 -9 22 -70 -14 -28 -14 -39
1 -39 35 0 5 -34 -41 -46 -26 -7 -57 4 -81 28 -42 42 -83 35 -65 -11 5 -16 22
-24 37 -18 17 6 25 -3 22 -26 -3 -21 -9 -33 -14 -27 -4 5 -37 -11 -73 -36 -37
-27 -75 -40 -90 -31 -16 9 -15 2 3 -20 25 -30 25 -34 0 -29 -15 3 -35 15 -43
26 -8 11 -15 6 -15 -14 0 -18 -18 -39 -40 -46 -22 -7 -40 -27 -40 -45 0 -25
10 -22 50 15 45 42 60 41 52 -6 -1 -9 11 -30 28 -46 23 -24 30 -25 32 -4 3 61
16 97 46 127 18 18 33 24 33 15 1 -9 8 0 16 19 11 30 18 25 38 -28 18 -48 18
-58 1 -41 -32 32 -56 30 -56 -3 0 -44 99 -88 120 -53 11 18 9 34 -4 43 -97 60
32 220 150 187 25 -7 34 -5 22 4 -23 17 -22 111 2 171 8 20 5 35 -6 35 -12 0
-25 -16 -30 -35 -9 -33 -9 -33 -12 0 -2 39 -71 48 -93 13z"/>
<path d="M3840 9462 c0 -11 -15 -15 -33 -8 -27 10 -31 5 -20 -23 12 -32 10
-33 -20 -9 -25 21 -36 22 -42 4 -4 -13 -23 -19 -41 -13 -28 8 -27 6 3 -13 20
-13 41 -18 48 -12 6 6 23 2 37 -9 19 -16 31 -10 48 22 18 33 29 38 47 20 17
-17 16 -27 -4 -39 -19 -12 -21 -21 -5 -31 13 -8 17 -24 9 -35 -8 -13 -4 -16
10 -8 33 20 29 109 -7 145 -16 16 -30 20 -30 9z"/>
<path d="M4369 9436 c11 -41 -21 -68 -36 -31 -5 14 -11 7 -11 -15 -2 -32 10
-40 58 -38 60 2 113 28 56 28 -16 0 -41 20 -54 45 -13 25 -19 30 -13 11z"/>
<path d="M3198 9395 c-2 -8 -4 -22 -6 -30 -1 -8 -9 -25 -17 -37 -22 -35 8 -51
41 -23 24 20 32 20 39 0 25 -75 145 -119 145 -53 0 21 -11 28 -31 20 -17 -6
-27 -4 -21 4 10 17 -87 99 -104 87 -5 -3 -17 6 -26 20 -10 15 -19 20 -20 12z"/>
<path d="M4487 9369 c-7 -18 6 -48 30 -71 24 -22 43 -50 43 -63 0 -17 -6 -17
-24 1 -39 39 -65 27 -29 -13 41 -45 43 -71 4 -56 -24 9 -26 2 -11 -38 11 -27
14 -49 8 -49 -6 0 3 -13 19 -30 41 -41 51 -38 38 13 -8 30 -3 40 16 33 15 -5
35 -37 44 -72 19 -75 75 -87 75 -16 0 49 47 82 85 59 12 -8 15 -4 7 10 -22 35
-67 27 -98 -18 -25 -36 -31 -37 -42 -8 -14 39 -14 111 1 74 7 -18 21 -19 47
-5 20 11 50 15 66 9 16 -6 34 2 40 17 8 22 -11 29 -88 31 -77 2 -98 -4 -98
-29 0 -21 -11 -28 -32 -20 -17 7 -34 12 -38 12 -3 0 -1 19 5 42 7 28 22 38 48
31 21 -5 45 4 54 21 14 24 26 26 59 8 56 -30 64 -28 62 13 -1 23 -5 26 -12 9
-8 -20 -21 -19 -61 8 -48 31 -53 31 -76 1 -36 -50 -55 -39 -41 22 10 40 8 47
-7 25 -15 -24 -24 -25 -44 -5 -18 18 -19 25 -2 25 13 0 19 14 12 30 -15 39
-45 38 -60 -1z"/>
<path d="M3374 9338 c-9 -32 -4 -38 21 -29 17 7 39 1 48 -13 11 -19 21 -20 38
-3 17 17 10 31 -24 55 -60 42 -70 40 -83 -10z"/>
<path d="M3590 9340 c-20 -22 -26 -40 -14 -40 12 0 28 10 35 22 10 16 19 15
30 -3 22 -36 -1 -83 -34 -71 -15 6 -27 -1 -27 -16 0 -15 19 -32 42 -38 29 -8
38 -3 31 16 -6 14 2 43 18 63 26 34 28 34 28 2 1 -40 33 -47 48 -10 7 19 15
18 30 -4 29 -41 57 -7 29 35 -12 19 -42 32 -67 29 -25 -3 -60 8 -79 25 -30 27
-37 26 -70 -10z"/>
<path d="M4860 9329 c0 -16 16 -29 35 -29 30 -1 31 -4 5 -22 -22 -16 -12 -18
40 -8 39 8 80 15 93 15 13 1 19 14 13 28 -13 34 -31 34 -63 2 -17 -17 -29 -18
-39 -3 -25 37 -84 50 -84 17z"/>
<path d="M5192 9329 c-6 -17 -1 -47 11 -67 32 -51 7 -108 -41 -93 -40 13 -76
-38 -41 -60 10 -6 19 -2 19 10 0 33 40 25 54 -11 6 -18 -1 -40 -16 -50 -23
-14 -22 -17 5 -18 42 0 66 61 33 85 -18 12 -19 21 -4 27 12 5 39 23 60 40 21
17 28 26 15 20 -12 -6 -27 6 -33 28 -6 22 -2 35 8 29 27 -17 22 39 -6 67 -32
32 -49 30 -64 -7z"/>
<path d="M5347 9327 c8 -14 -2 -28 -22 -33 -23 -6 -18 -10 15 -10 28 0 70 -7
95 -15 28 -8 45 -5 45 9 0 12 -21 22 -46 22 -25 0 -58 11 -73 25 -18 17 -22
17 -14 2z"/>
<path d="M3917 9285 c-55 -12 -82 -185 -29 -185 31 0 57 66 55 140 -1 28 3 39
9 25 6 -14 23 -25 38 -25 15 0 31 -11 37 -25 6 -16 10 -14 11 7 2 36 -71 74
-121 63z"/>
<path d="M5614 9248 c9 -24 5 -30 -11 -20 -12 8 -23 6 -23 -4 0 -27 57 -71 97
-74 18 -2 53 -10 78 -18 33 -11 45 -7 45 14 0 16 -19 29 -45 29 -82 0 -97 5
-85 25 7 11 -1 14 -19 8 -22 -9 -28 -4 -20 18 7 16 2 36 -9 43 -14 8 -17 0 -8
-21z"/>
<path d="M5521 9184 c0 -15 -10 -21 -21 -14 -11 7 -20 -9 -20 -37 0 -60 -19
-113 -40 -113 -8 0 -12 27 -8 59 5 45 0 57 -22 48 -19 -7 -25 -28 -17 -68 10
-49 4 -59 -42 -71 -32 -7 -49 -23 -44 -38 7 -17 -3 -22 -28 -15 -27 6 -39 -1
-39 -23 0 -42 23 -41 82 5 95 72 109 67 109 -38 -1 -52 -8 -91 -16 -86 -8 5
-16 -11 -17 -37 -2 -45 -2 -45 -17 4 -8 28 -7 59 2 69 27 30 20 62 -7 35 -13
-13 -40 -24 -60 -24 -20 0 -36 -13 -36 -30 0 -16 9 -30 20 -30 11 0 20 10 20
21 0 12 10 15 23 7 17 -10 15 -20 -7 -36 -16 -12 -25 -35 -20 -50 7 -20 -1
-24 -23 -16 -30 12 -42 -7 -35 -51 1 -8 -7 -15 -18 -15 -17 0 -28 56 -26 134
1 26 -104 70 -122 51 -26 -26 -10 -47 28 -35 54 17 50 -2 -8 -41 -67 -43 -153
1 -191 97 -17 44 -37 67 -54 60 -29 -11 -3 -81 41 -111 38 -26 -32 -54 -106
-42 -56 8 -65 5 -55 -21 8 -23 0 -32 -28 -32 -47 0 -50 -26 -9 -67 17 -17 30
-40 30 -52 0 -11 10 -21 21 -21 13 0 16 17 9 40 -7 23 -4 40 9 40 11 0 21 -9
21 -20 0 -37 35 -20 46 22 7 25 21 36 34 28 13 -8 18 -27 12 -42 -6 -15 -3
-28 7 -28 10 0 21 11 26 25 7 20 15 20 39 -1 26 -20 33 -20 42 4 7 18 -10 37
-49 53 -41 17 -52 30 -35 41 15 9 35 3 47 -14 24 -33 150 -31 178 2 9 12 13 8
7 -10 -5 -17 -27 -28 -52 -25 -26 3 -39 -4 -32 -15 7 -11 2 -20 -10 -20 -12 0
3 -31 33 -69 39 -48 60 -62 71 -45 8 13 16 16 16 7 0 -10 14 -6 32 8 24 21 34
21 46 2 18 -29 142 -48 142 -22 0 11 -15 19 -32 19 -26 0 -28 6 -9 29 13 15
22 40 20 55 -7 51 1 78 21 66 11 -7 20 -35 20 -62 0 -37 9 -49 35 -45 19 4 57
-9 84 -28 28 -19 61 -35 74 -35 43 0 147 -117 179 -200 6 -16 19 -46 29 -65
11 -19 19 -52 19 -74 0 -22 23 -55 50 -73 28 -18 50 -50 50 -70 0 -21 11 -38
25 -38 17 -1 15 -7 -5 -20 -26 -17 -17 -27 21 -24 6 1 12 -18 14 -42 2 -24 13
-47 24 -50 32 -11 25 -44 -10 -44 -17 0 -25 -10 -18 -21 7 -12 27 -16 44 -10
25 10 26 7 6 -18 -13 -16 -19 -38 -13 -48 7 -11 1 -24 -13 -30 -14 -5 -5 -11
20 -11 49 -2 64 -42 15 -42 -16 0 -30 -13 -30 -30 0 -36 39 -41 41 -5 1 14 10
5 20 -20 10 -25 32 -45 50 -45 17 0 26 -9 19 -20 -7 -12 -20 -16 -29 -11 -9 6
-18 -14 -19 -44 -15 -312 -25 -397 -51 -450 -56 -111 -28 -760 31 -724 10 6
36 1 58 -11 82 -44 88 -5 17 120 -41 72 -42 87 -8 112 33 24 33 26 -7 23 -23
-2 -42 -10 -42 -19 0 -8 -14 -9 -32 -3 -21 9 -27 26 -18 55 7 23 13 59 13 79
-1 24 9 33 29 25 16 -6 45 -4 64 6 19 9 68 32 110 50 72 30 113 80 87 106 -6
6 -35 -4 -64 -23 -55 -36 -122 -28 -97 12 25 41 11 140 -23 165 -31 23 -31 27
-1 58 38 38 92 25 93 -23 0 -28 3 -28 22 4 16 29 12 45 -21 75 -49 46 -51 62
-18 152 25 68 44 81 66 46 19 -31 50 -24 50 11 0 18 -10 25 -22 18 -12 -8 -30
-2 -40 13 -15 24 -21 24 -36 0 -22 -35 -64 -11 -49 29 6 16 -1 30 -16 31 -15
1 -4 9 23 17 38 12 59 6 86 -24 19 -23 42 -34 50 -26 20 20 -77 95 -109 83
-14 -6 -31 -2 -38 9 -6 10 0 19 15 19 19 1 19 5 -3 19 -23 14 -17 21 26 32 38
9 52 23 44 43 -6 16 -11 34 -11 39 0 5 -10 3 -23 -5 -15 -9 -18 -5 -9 9 8 13
22 19 31 14 27 -17 63 41 48 78 -7 19 -3 41 9 49 13 7 17 33 11 57 -7 26 -21
39 -34 31 -13 -8 -11 2 4 20 29 35 11 43 -45 22 -36 -14 -42 -73 -12 -128 24
-45 9 -93 -30 -93 -16 0 -24 7 -18 16 6 10 1 17 -10 17 -11 0 -16 14 -9 30 6
17 1 30 -11 30 -40 0 -48 -60 -14 -97 37 -41 42 -83 11 -83 -12 0 -16 9 -10
19 7 10 -7 29 -30 42 -23 12 -37 27 -31 34 6 6 -4 24 -23 40 -19 15 -24 22
-10 15 13 -6 44 6 69 29 24 23 35 41 25 41 -11 0 -5 9 11 20 27 17 27 19 0 20
-23 1 -21 8 8 30 34 26 35 30 5 41 -22 9 -27 23 -16 46 26 54 -2 163 -30 115
-31 -53 -70 -23 -48 37 34 89 -47 186 -118 141 -31 -19 -35 39 -4 69 26 27 24
31 -19 41 -27 7 -50 29 -54 51 -3 21 -32 54 -65 73 -58 34 -84 84 -32 64 15
-5 38 4 52 21 30 36 81 41 81 8 0 -54 29 11 33 74 6 85 -17 88 -73 9 -40 -57
-120 -83 -120 -40 0 11 -16 21 -35 21 -26 1 -22 7 12 20 37 15 42 26 26 46
-32 38 36 37 80 -1 21 -18 38 -21 46 -8 15 25 -51 62 -128 71 -41 6 -56 0 -49
-17 5 -14 -4 -37 -21 -51 -18 -15 -31 -17 -31 -5 0 11 -31 19 -69 18 -38 -1
-64 -9 -59 -18 6 -9 -4 -16 -21 -16 -21 0 -31 19 -31 58 0 35 -13 63 -32 70
-23 9 -29 26 -19 57 15 50 25 105 28 163 4 55 31 20 35 -44 4 -76 5 -77 36
-77 16 0 24 12 18 27 -6 14 2 42 17 61 24 32 24 32 -8 8 -30 -24 -35 -23 -35
5 0 28 22 40 63 35 7 -1 17 16 23 38 12 47 -12 51 -53 9 -17 -17 -36 -22 -42
-12 -6 10 -2 22 10 26 14 4 15 22 1 56 -11 28 -20 38 -21 24z m159 -514 c14
-16 22 -31 17 -32 -62 -12 -75 -12 -66 4 6 10 1 18 -11 18 -12 0 -17 9 -10 20
17 28 41 25 70 -10z m385 -558 c-5 -26 1 -53 13 -61 37 -23 24 -48 -19 -36
-23 6 -37 22 -31 36 5 15 -1 31 -14 36 -16 7 -11 21 15 42 49 39 47 40 36 -17z"/>
<path d="M3174 9158 c13 -13 19 -34 13 -48 -12 -31 38 -52 72 -31 18 12 13 27
-21 58 -47 44 -106 63 -64 21z"/>
<path d="M3389 9139 c-6 -11 7 -19 30 -19 24 0 41 -13 41 -31 0 -17 -8 -26
-18 -20 -9 6 -28 -2 -40 -16 -18 -22 -13 -26 28 -18 27 5 50 22 50 36 0 15 11
33 23 41 16 10 20 4 12 -17 -13 -34 45 -115 82 -115 38 0 26 -40 -16 -56 -28
-10 -34 -23 -22 -42 15 -24 23 -23 51 5 18 18 41 29 50 23 9 -6 21 1 27 15 5
14 11 7 12 -15 1 -34 5 -35 23 -10 16 24 18 21 9 -13 -10 -33 -2 -45 38 -55
30 -8 51 -27 51 -47 0 -20 -7 -26 -15 -15 -8 11 -24 22 -35 24 -11 1 -33 8
-50 15 -22 8 -31 -4 -32 -49 -1 -33 8 -61 20 -61 12 -1 7 -8 -12 -15 -62 -25
-9 -57 79 -48 55 5 85 18 85 36 0 15 8 28 18 28 10 0 14 -20 8 -45 -5 -26 -2
-36 7 -25 20 24 87 26 121 5 13 -9 29 -6 36 5 7 12 2 19 -11 15 -42 -9 -42 40
0 51 23 5 41 1 41 -10 0 -13 24 -16 59 -9 47 9 57 5 48 -18 -19 -49 51 -58 95
-11 36 38 43 39 71 12 16 -16 58 -30 93 -30 35 0 84 -6 109 -13 33 -8 45 -3
45 21 0 17 10 32 21 32 12 0 35 14 52 30 16 17 20 30 8 30 -38 0 -22 41 24 59
40 15 41 19 10 31 -49 20 -97 -2 -83 -39 7 -17 2 -31 -10 -31 -39 0 -24 77 18
90 22 7 40 21 40 31 0 11 14 19 31 19 17 0 26 -8 20 -18 -6 -10 3 -23 20 -30
18 -6 25 -22 17 -35 -9 -14 -5 -18 9 -9 13 8 23 5 23 -7 0 -11 9 -21 20 -21
37 0 20 64 -19 74 -37 10 -38 13 -6 63 49 76 123 119 100 58 -7 -17 15 -26 68
-30 57 -3 77 4 77 26 0 24 -8 26 -39 10 -40 -22 -112 24 -92 58 6 9 -12 16
-39 16 -28 0 -50 -9 -50 -20 0 -10 -13 -14 -30 -8 -20 8 -30 0 -30 -23 0 -42
-72 -91 -106 -71 -13 7 -17 6 -9 -3 8 -9 -8 -32 -36 -51 -29 -19 -52 -40 -51
-46 9 -70 -1 -86 -56 -86 -57 0 -57 0 -20 40 46 49 47 65 8 80 -18 7 -30 0
-30 -18 0 -16 -9 -29 -20 -29 -11 0 -20 -13 -20 -28 0 -19 -14 -25 -41 -18
-28 8 -37 22 -28 48 7 24 2 38 -13 38 -15 0 -11 11 10 26 32 24 33 29 4 53
-27 22 -32 21 -32 -7 0 -17 -13 -32 -30 -32 -16 0 -30 -10 -30 -23 0 -13 6
-18 13 -11 7 8 25 4 38 -7 31 -25 9 -122 -30 -135 -19 -7 -23 1 -15 23 7 18 4
33 -7 33 -10 0 -19 19 -19 42 0 24 -10 38 -25 33 -14 -5 -34 4 -46 19 -16 22
-21 17 -24 -25 -3 -34 11 -65 39 -88 43 -35 43 -35 -20 -26 -55 8 -62 16 -52
56 9 37 3 47 -35 52 -36 5 -47 19 -46 59 1 28 -11 62 -25 75 -21 20 -26 18
-26 -6 0 -39 -38 -40 -52 -2 -9 23 -19 24 -50 5 -41 -25 -51 -84 -18 -104 11
-7 20 5 20 27 0 29 10 37 38 29 35 -9 35 -11 -5 -54 -25 -26 -52 -38 -65 -28
-12 8 -27 11 -33 5 -5 -6 -20 16 -32 50 -14 42 -34 61 -63 61 -33 0 -41 11
-36 45 5 40 -2 45 -69 41 -55 -2 -75 5 -75 26 0 17 8 25 18 19 10 -6 22 0 27
14 6 15 -7 26 -33 27 -23 1 -67 7 -97 13 -30 7 -60 4 -66 -6z m631 -364 c0 -8
-23 -15 -52 -15 -42 0 -50 7 -39 35 10 27 8 30 -10 11 -38 -37 -6 -93 45 -79
38 10 39 8 12 -19 -27 -27 -35 -26 -80 15 -51 45 -51 45 -10 77 40 33 133 15
134 -25z"/>
<path d="M4184 9136 c-13 -13 -24 -41 -24 -61 0 -21 -9 -32 -20 -25 -11 7 -20
3 -20 -9 0 -11 7 -21 15 -21 28 1 55 30 55 60 0 17 16 29 36 27 28 -2 31 3 12
25 -28 34 -24 34 -54 4z"/>
<path d="M5275 9110 c8 -39 21 -50 62 -48 29 0 43 5 30 11 -12 5 -18 29 -13
53 8 36 5 38 -12 14 -15 -20 -21 -22 -22 -5 0 14 -12 25 -27 25 -18 0 -24 -16
-18 -50z"/>
<path d="M4100 9126 c0 -12 -29 -28 -65 -37 -59 -14 -61 -16 -17 -24 48 -9
121 43 96 68 -8 7 -14 4 -14 -7z"/>
<path d="M3302 9097 c-1 -18 -15 -38 -31 -44 -23 -9 -24 -20 -5 -60 24 -52 61
-54 41 -3 -6 17 3 35 19 41 17 7 36 26 43 43 8 21 2 27 -17 19 -16 -6 -34 0
-39 13 -6 14 -11 10 -11 -9z"/>
<path d="M3800 9093 c0 -18 -13 -33 -28 -33 -15 0 -33 -13 -39 -30 -9 -22 1
-28 43 -22 86 11 154 43 127 60 -12 8 -23 8 -23 0 0 -8 -18 2 -40 22 -36 33
-40 33 -40 3z"/>
<path d="M4332 9070 c-8 -31 -27 -50 -51 -50 -27 0 -35 -10 -27 -40 13 -48 20
-49 59 -10 16 17 52 30 78 30 38 0 48 10 47 45 -2 34 -5 36 -12 10 -18 -68
-57 -35 -47 40 6 47 -35 25 -47 -25z"/>
<path d="M5020 9070 c0 -40 9 -51 35 -46 19 4 35 24 35 46 0 22 -16 42 -35 46
-26 5 -35 -6 -35 -46z"/>
<path d="M3028 9027 c-15 -55 -74 -71 -127 -34 -25 18 -41 21 -41 8 0 -12 16
-28 35 -35 49 -18 66 -49 54 -96 -10 -38 -9 -38 18 -4 25 31 30 31 40 4 15
-38 -26 -110 -62 -110 -14 0 -25 -9 -25 -20 0 -11 -17 -20 -38 -20 -21 0 -43
-13 -49 -28 -9 -24 -48 -29 -93 -11 -5 2 -23 5 -40 6 -16 2 -32 17 -35 35 -9
42 53 42 105 1 22 -18 34 -25 26 -16 -23 29 31 71 67 51 37 -20 89 27 68 61
-17 27 -51 27 -51 0 0 -12 11 -15 25 -7 19 11 20 8 2 -11 -37 -40 -63 -7 -54
66 8 55 2 70 -29 78 -31 8 -37 2 -28 -32 9 -33 -2 -28 -54 25 -35 36 -71 60
-78 52 -8 -7 4 -27 26 -43 22 -16 38 -38 35 -48 -5 -18 29 -27 90 -24 18 0 16
-15 -8 -54 -25 -43 -43 -52 -84 -44 -29 5 -42 13 -28 18 14 5 25 22 25 38 0
16 -7 25 -16 20 -9 -6 -29 -2 -44 7 -50 31 -87 -19 -47 -63 32 -35 30 -37 -30
-37 -67 0 -75 -11 -43 -60 17 -25 23 -26 38 -2 30 46 82 10 82 -57 0 -34 8
-61 18 -61 10 0 14 -18 8 -40 -6 -22 -16 -40 -23 -40 -22 1 -66 34 -66 50 0 9
12 24 26 33 17 12 5 13 -31 5 -41 -10 -54 -7 -44 9 8 13 1 37 -17 54 -28 29
-30 27 -26 -21 2 -29 15 -62 29 -74 37 -30 32 -54 -10 -43 -38 10 -58 -62 -23
-84 11 -6 19 3 19 20 0 17 11 31 23 31 13 0 18 -6 11 -13 -8 -7 -4 -25 9 -40
17 -21 14 -27 -11 -27 -50 0 -62 -56 -21 -101 41 -46 -18 -58 -91 -19 -22 12
-42 13 -49 2 -6 -10 -29 -14 -51 -8 -33 9 -38 4 -27 -27 13 -33 11 -34 -19
-10 -22 18 -34 20 -34 5 0 -12 8 -22 17 -22 9 0 18 -27 19 -60 1 -34 -7 -55
-18 -49 -10 6 -14 19 -8 28 5 9 -4 22 -20 28 -46 18 -37 -53 11 -83 44 -28 26
-62 -47 -90 -29 -11 -32 -21 -13 -55 13 -26 34 -38 52 -31 17 7 39 12 50 12
11 0 14 8 8 19 -7 10 4 18 24 17 19 -1 49 2 65 6 19 5 29 -5 27 -28 -2 -28 3
-31 25 -12 32 26 38 78 8 78 -11 0 -20 9 -20 19 0 11 14 15 30 8 22 -8 27 -2
18 21 -9 22 -1 32 26 32 51 0 105 96 92 165 -8 39 -2 55 17 55 41 0 102 79
109 142 6 45 110 178 141 178 14 0 67 55 67 69 0 7 18 32 40 56 32 34 40 36
40 11 0 -17 -13 -37 -30 -43 -16 -7 -30 -28 -30 -47 0 -20 7 -27 15 -16 26 35
110 22 125 -19 12 -35 14 -35 26 10 10 38 18 43 37 24 39 -39 137 -32 139 10
1 28 3 29 13 5 9 -26 58 -65 84 -69 5 0 11 32 12 73 2 73 -42 122 -70 78 -15
-25 -101 -20 -101 4 0 10 14 13 31 6 25 -9 29 -2 18 31 -9 28 -6 38 9 28 13
-8 17 -1 10 18 -16 41 -40 39 -72 -4 -14 -19 -39 -35 -56 -35 -16 0 -28 -14
-25 -31 5 -34 -85 -51 -105 -19 -7 11 1 20 18 20 16 0 35 9 42 20 7 11 -1 14
-19 8 -23 -9 -28 -4 -19 20 7 19 27 29 45 23 50 -15 102 23 64 48 -16 10 -36
14 -45 9 -9 -6 -16 -1 -16 11 0 11 -17 21 -39 21 -21 0 -44 9 -51 20 -7 11 2
20 19 20 36 0 39 17 11 60 -17 25 -22 23 -32 -13z m-550 -799 c5 -4 -2 -29
-16 -54 -13 -25 -22 -59 -18 -74 3 -16 -3 -29 -14 -29 -11 -1 -31 -8 -44 -17
-29 -18 -54 17 -34 49 9 15 5 18 -12 7 -17 -10 -22 -6 -16 12 5 15 28 25 50
22 41 -6 80 49 54 74 -8 7 -18 0 -23 -14 -9 -27 -65 4 -65 37 0 15 121 4 138
-13z"/>
<path d="M5740 9022 c0 -21 11 -42 25 -47 35 -12 -22 -118 -70 -130 -19 -6
-35 -18 -35 -27 0 -24 35 -23 50 2 7 11 36 14 64 7 48 -12 51 -9 39 40 -11 41
-6 53 18 53 18 0 29 13 25 31 -3 17 -15 30 -25 29 -10 -2 -26 16 -34 39 -20
52 -57 54 -57 3z"/>
<path d="M5120 8999 c0 -12 8 -16 19 -10 10 6 4 -16 -12 -50 -17 -34 -26 -67
-19 -74 7 -6 12 -1 12 12 0 13 14 23 30 23 17 0 30 13 30 29 0 19 12 25 33 17
22 -8 30 -4 23 16 -5 15 -19 28 -31 28 -12 0 -28 7 -37 15 -21 22 -48 18 -48
-6z"/>
<path d="M3365 8985 c-14 -4 -25 -17 -25 -28 0 -11 9 -14 20 -7 11 7 25 -25
33 -73 11 -72 16 -78 30 -41 15 43 57 62 57 26 0 -10 6 -34 13 -52 9 -23 3
-31 -19 -27 -17 4 -32 0 -33 -8 -4 -45 1 -56 19 -45 13 8 13 -6 0 -41 -18 -45
-16 -52 10 -42 18 7 36 0 43 -17 6 -17 19 -30 29 -30 9 0 12 12 7 26 -6 15 11
37 39 50 44 19 49 18 41 -12 -5 -19 4 -4 22 33 30 65 23 118 -9 67 -24 -39
-85 -6 -71 38 8 26 2 38 -18 38 -17 0 -36 26 -43 60 -7 34 -26 60 -43 60 -16
0 -24 -9 -17 -20 7 -11 3 -20 -9 -20 -12 0 -29 17 -37 37 -8 20 -25 33 -39 28z"/>
<path d="M4080 8916 c0 -20 9 -36 20 -36 11 0 20 9 20 20 0 11 17 20 39 20 21
0 44 8 50 18 6 10 -21 17 -59 16 -53 -1 -70 -10 -70 -38z"/>
<path d="M5608 8928 c7 -17 12 -46 12 -64 0 -25 8 -21 33 14 27 39 28 49 5 64
-43 27 -64 21 -50 -14z"/>
<path d="M2510 8900 c-7 -12 -21 -15 -31 -9 -23 14 -24 -12 -2 -47 14 -22 24
-21 50 6 18 18 28 41 22 52 -15 23 -24 23 -39 -2z"/>
<path d="M4972 8888 c-17 -43 -18 -40 38 -100 44 -47 50 -49 50 -16 0 21 -18
49 -39 63 -24 14 -35 37 -28 55 6 16 7 30 1 30 -5 0 -15 -14 -22 -32z"/>
<path d="M5976 8909 c-6 -5 -42 -11 -81 -13 -64 -2 -69 -6 -48 -39 28 -45 97
-51 80 -7 -7 19 0 30 20 30 17 0 36 9 43 20 13 21 4 27 -14 9z"/>
<path d="M2411 8821 c-6 -10 -5 -33 2 -53 11 -27 6 -32 -20 -22 -35 14 -46
-15 -13 -36 11 -7 20 -30 20 -52 0 -22 -8 -35 -18 -29 -10 6 -33 5 -52 -2 -27
-10 -28 -16 -7 -29 21 -13 19 -17 -8 -18 -40 0 -49 -69 -12 -92 16 -10 20 -4
12 17 -13 33 86 89 119 69 9 -6 18 26 19 70 1 44 13 87 27 96 18 11 14 26 -17
57 -23 23 -46 34 -52 24z"/>
<path d="M6050 8701 c-7 -23 0 -59 17 -83 17 -23 26 -54 20 -68 -16 -43 26
-51 61 -12 32 35 31 38 -5 47 -28 7 -36 23 -29 59 12 65 -45 117 -64 57z"/>
<path d="M5895 8545 c-52 -12 -42 -37 25 -65 33 -14 60 -32 60 -40 0 -9 25
-31 55 -50 l55 -34 -53 51 c-34 33 -50 65 -44 89 11 41 -33 62 -98 49z"/>
<path d="M4079 8480 c-23 -15 -20 -21 12 -32 21 -8 57 -28 79 -46 35 -28 37
-28 15 -1 -13 18 -17 40 -9 50 8 11 11 17 7 15 -5 -3 -23 3 -42 13 -19 11 -45
11 -62 1z"/>
<path d="M4610 8440 c-34 -15 -35 -17 -5 -19 39 -1 49 -60 10 -62 -14 -1 -3
-10 23 -21 50 -20 87 -6 49 18 -11 8 -19 34 -17 59 4 49 0 51 -60 25z"/>
<path d="M4468 8408 c7 -17 12 -35 12 -40 0 -4 23 -8 50 -8 28 0 50 9 50 20 0
18 -28 28 -65 22 -8 -1 -15 7 -15 18 0 11 -10 20 -22 20 -12 0 -17 -14 -10
-32z"/>
<path d="M2446 8372 c-17 -31 -27 -33 -65 -13 -49 27 -71 17 -56 -24 23 -58
171 -12 151 48 -7 19 -15 16 -30 -11z"/>
<path d="M3740 8386 c-36 -13 -80 -66 -79 -95 0 -11 9 -5 21 14 11 19 29 35
40 35 12 0 34 14 51 30 30 31 21 35 -33 16z"/>
<path d="M4053 8387 c-7 -7 -47 -15 -88 -16 -110 -4 -110 -79 0 -83 61 -3 75
4 75 34 0 44 36 51 52 11 11 -31 86 -22 166 20 36 18 41 27 18 27 -18 0 -39
-9 -46 -20 -20 -32 -110 -24 -110 10 0 30 -42 41 -67 17z"/>
<path d="M2253 8350 c6 -16 -2 -35 -18 -41 -30 -11 -40 -69 -12 -69 10 0 17
14 17 30 0 17 9 30 20 30 11 0 20 18 20 40 0 22 -9 40 -19 40 -11 0 -15 -13
-8 -30z"/>
<path d="M6135 8367 c48 -19 25 -48 -28 -35 -39 10 -50 7 -43 -14 5 -15 31
-31 58 -34 26 -4 60 -22 74 -40 14 -19 30 -32 35 -29 5 3 9 1 9 -5 0 -5 0 -19
0 -30 0 -11 -25 -21 -55 -23 -46 -2 -48 -4 -11 -11 44 -9 78 -70 57 -104 -6
-10 3 -23 19 -29 17 -7 31 -1 31 13 1 13 10 6 19 -16 16 -38 17 -37 19 6 0 26
15 60 31 77 40 39 38 65 -5 81 -44 16 -93 65 -110 111 -8 19 -24 35 -37 35
-12 0 -17 14 -11 30 8 21 -1 30 -33 28 -24 0 -33 -6 -19 -11z"/>
<path d="M3545 8329 c8 -9 0 -39 -18 -67 -33 -52 -33 -52 7 -16 35 30 43 31
52 6 7 -16 1 -34 -12 -39 -13 -5 5 -8 41 -6 69 3 80 20 40 61 -28 28 -134 87
-110 61z"/>
<path d="M4885 8320 c5 -17 34 -31 67 -33 32 -1 78 -9 103 -17 34 -11 45 -7
45 17 0 20 -11 27 -30 20 -18 -6 -30 0 -30 16 -1 21 -5 20 -20 -3 -13 -20 -19
-22 -20 -5 0 14 -13 25 -28 25 -16 0 -33 -11 -39 -25 -7 -19 -16 -18 -33 5
-20 27 -22 27 -15 0z"/>
<path d="M4439 8291 c13 -15 21 -44 17 -65 -4 -25 8 -38 41 -43 29 -4 42 2 35
14 -7 12 -24 19 -38 15 -13 -3 -17 -2 -9 3 8 5 10 17 4 26 -6 10 5 13 25 6 29
-11 28 -5 -8 30 -51 50 -106 61 -67 14z"/>
<path d="M4125 8287 c-42 -17 -28 -45 19 -36 60 11 96 49 45 47 -21 0 -50 -6
-64 -11z"/>
<path d="M3340 8250 c0 -16 -10 -30 -21 -30 -12 0 -16 -9 -9 -21 8 -13 -9 -16
-49 -9 -58 10 -60 8 -36 -30 21 -34 20 -44 -5 -60 -26 -17 -25 -19 5 -20 19 0
35 15 35 33 0 19 6 28 13 21 7 -8 24 2 38 21 21 28 30 29 56 8 17 -15 41 -21
52 -13 31 19 5 50 -30 37 -16 -6 -29 -1 -29 11 0 12 14 22 31 22 28 0 29 3 2
30 -17 17 -35 30 -42 30 -6 0 -11 -13 -11 -30z"/>
<path d="M3740 8268 c0 -89 91 -137 143 -75 24 30 23 31 -15 11 -42 -22 -68
-14 -68 21 0 9 10 11 23 3 14 -8 18 -5 10 7 -7 12 -2 25 12 30 14 5 -4 8 -40
8 -36 0 -65 -2 -65 -5z"/>
<path d="M4791 8222 c-7 -12 -3 -22 9 -22 12 0 18 -7 13 -15 -5 -8 12 -15 39
-15 26 0 48 10 48 23 0 13 -16 21 -35 18 -19 -3 -41 3 -47 14 -8 12 -18 11
-27 -3z"/>
<path d="M3970 8160 c-11 -17 36 -40 82 -40 15 0 28 12 28 28 0 29 -93 39
-110 12z"/>
<path d="M2980 8149 c0 -8 16 -29 36 -47 20 -17 43 -48 50 -67 7 -19 27 -35
43 -35 55 0 32 49 -49 106 -44 31 -80 50 -80 43z"/>
<path d="M4605 8116 c14 -44 67 -62 127 -45 l58 18 -75 6 c-41 4 -75 16 -75
26 0 11 -10 19 -22 19 -12 0 -18 -11 -13 -24z"/>
<path d="M4520 8101 c-16 -11 -52 -15 -80 -10 -27 5 -11 -5 37 -23 63 -24 92
-27 109 -10 16 16 15 22 -3 22 -14 0 -20 9 -13 20 16 25 -11 25 -50 1z"/>
<path d="M3789 8025 c-22 -19 -50 -35 -64 -35 -14 0 -25 -7 -25 -15 0 -8 0
-26 0 -38 0 -13 20 -5 45 18 25 23 72 56 105 74 49 25 52 31 19 31 -23 0 -59
-16 -80 -35z"/>
<path d="M4100 8026 c0 -25 99 -86 141 -86 49 0 3 47 -48 49 -31 1 -64 16 -74
32 -12 19 -18 20 -19 5z"/>
<path d="M2040 7958 c0 -12 18 -26 40 -32 22 -6 40 -19 40 -30 0 -10 9 -13 20
-6 38 24 22 75 -20 64 -22 -6 -40 -2 -40 8 0 10 -9 18 -20 18 -11 0 -20 -10
-20 -22z"/>
<path d="M3177 7970 c-16 -16 6 -130 25 -130 10 0 18 20 18 45 -1 49 -27 102
-43 85z"/>
<path d="M2360 7905 c0 -25 -99 -63 -111 -43 -21 33 -39 18 -39 -32 0 -29 12
-50 27 -50 19 0 24 -15 15 -49 -8 -31 -1 -60 20 -81 37 -36 30 -51 -28 -55
-24 -2 -36 -14 -30 -29 7 -17 0 -22 -20 -15 -16 7 -37 1 -45 -13 -10 -15 -7
-19 8 -10 15 10 28 -7 36 -47 13 -65 26 -74 60 -40 15 15 25 11 32 -16 8 -31
1 -37 -35 -30 -48 9 -86 -67 -51 -102 10 -10 13 -30 8 -44 -6 -14 9 -36 33
-49 40 -21 41 -25 9 -48 -40 -30 -59 -171 -23 -174 13 -2 31 -2 39 0 23 3 18
-74 -7 -89 -12 -7 -17 -30 -12 -51 9 -31 4 -34 -28 -17 -44 24 -52 -5 -10 -39
32 -27 54 -142 27 -142 -10 0 -12 -28 -5 -61 10 -44 4 -72 -20 -99 -31 -35
-31 -38 9 -59 23 -13 36 -33 29 -44 -9 -14 -18 -13 -28 3 -10 16 -19 17 -28 4
-17 -29 20 -49 65 -35 31 10 37 -1 40 -73 4 -119 -13 -169 -44 -127 -20 27
-27 23 -56 -28 -33 -56 -9 -118 41 -109 41 8 101 -60 90 -102 -15 -60 43 -170
90 -170 43 0 35 61 -37 310 -45 155 -53 368 -18 510 27 109 37 572 14 636 -9
25 -18 100 -20 165 -1 65 -11 119 -21 119 -10 0 -12 -10 -5 -22 10 -16 3 -16
-26 -1 -26 14 -45 15 -59 1 -14 -14 -24 -7 -32 23 -10 40 -6 42 59 30 48 -9
67 -7 58 8 -7 11 -4 21 8 21 11 0 21 17 21 38 0 21 15 43 33 50 18 7 27 18 21
25 -18 18 45 130 65 117 10 -6 23 -2 30 8 20 32 -47 41 -78 10 -20 -20 -31
-23 -31 -7 0 18 -8 17 -31 -2 -26 -21 -30 -21 -25 3 3 15 -5 26 -19 23 -14 -3
-25 5 -25 17 0 13 16 18 36 13 41 -10 81 24 69 60 -9 27 -45 35 -45 10z"/>
<path d="M3965 7887 c-44 -18 -27 -44 26 -38 72 8 114 52 48 49 -27 0 -60 -6
-74 -11z"/>
<path d="M3410 7850 l-60 -27 63 10 c58 10 62 8 52 -41 -6 -33 -23 -52 -45
-52 -41 0 -73 -34 -83 -89 -7 -38 -10 -37 -53 10 -38 40 -41 50 -15 55 17 4
31 25 31 47 0 21 -9 34 -20 27 -23 -14 -84 -125 -75 -138 3 -5 -3 -16 -13 -25
-10 -10 -13 14 -6 56 l11 73 -58 -33 c-38 -21 -48 -35 -30 -39 16 -4 24 -19
18 -35 -7 -17 2 -30 21 -31 58 -5 68 -8 83 -22 8 -8 30 -6 49 4 19 10 40 13
47 6 7 -6 18 3 25 21 7 18 20 28 30 22 25 -15 123 87 108 112 -7 11 -6 19 4
17 40 -7 53 4 26 22 -20 13 -22 19 -5 20 14 0 25 10 25 22 0 12 -13 17 -29 11
-15 -6 -31 -3 -35 6 -3 10 -33 5 -66 -9z"/>
<path d="M5038 7852 c-2 -6 -4 -19 -6 -27 -1 -8 -9 -25 -17 -38 -10 -16 -2
-20 25 -13 22 6 54 -1 71 -14 16 -14 36 -20 43 -13 7 7 2 13 -11 13 -27 0 -22
42 7 67 11 10 4 12 -18 5 -20 -7 -49 -2 -65 10 -15 13 -28 17 -29 10z"/>
<path d="M2090 7801 c-6 -10 -1 -24 12 -32 16 -10 14 -19 -5 -31 -23 -15 -22
-21 1 -36 16 -10 22 -32 15 -51 -8 -22 -4 -29 12 -21 14 7 9 0 -11 -17 -20
-16 -28 -34 -17 -41 49 -31 115 62 75 106 -38 41 -38 42 4 42 23 0 47 9 54 20
7 11 -1 14 -19 8 -18 -7 -36 1 -42 18 -15 38 -64 59 -79 35z"/>
<path d="M3870 7800 c-7 -12 -23 -15 -34 -7 -14 8 -16 4 -7 -12 10 -15 5 -33
-11 -43 -22 -14 -21 -17 6 -18 18 0 39 9 46 20 7 12 21 16 31 9 10 -6 13 3 7
20 -9 24 -3 28 25 19 31 -10 32 -8 7 10 -38 27 -54 27 -70 2z"/>
<path d="M2820 7780 c0 -11 -13 -20 -30 -20 -16 0 -30 -8 -30 -18 0 -10 50
-16 110 -12 61 4 108 14 105 23 -3 9 -25 13 -50 10 -25 -3 -45 4 -45 16 0 11
-13 21 -30 21 -16 0 -30 -9 -30 -20z"/>
<path d="M4068 7783 c6 -9 -2 -34 -18 -55 -16 -22 -29 -27 -29 -13 -1 36 -41
31 -41 -5 0 -45 59 -36 100 15 36 45 35 75 -2 75 -11 0 -16 -8 -10 -17z"/>
<path d="M3529 7734 c-43 -49 -49 -72 -24 -86 14 -8 18 -7 10 2 -19 21 44 68
95 71 40 2 40 2 0 19 -53 23 -57 22 -81 -6z"/>
<path d="M4314 7747 c-15 -15 61 -87 91 -86 15 0 12 10 -10 27 -19 14 -30 31
-24 37 6 5 -2 15 -18 21 -16 6 -34 7 -39 1z"/>
<path d="M4800 7690 c-20 -25 -19 -30 8 -30 17 0 32 -9 32 -19 0 -23 64 -3 84
27 7 11 8 28 2 38 -6 10 -19 6 -28 -9 -13 -20 -17 -20 -18 -2 0 34 -50 31 -80
-5z"/>
<path d="M5172 7703 c-6 -10 -52 -16 -101 -14 -50 2 -91 -4 -91 -14 0 -9 9
-12 20 -5 11 7 20 3 20 -9 0 -11 -13 -21 -30 -21 -16 0 -29 -7 -28 -15 9 -52
-4 -66 -41 -46 -49 27 -67 27 -50 0 7 -11 2 -33 -10 -48 -17 -20 -15 -29 8
-38 37 -14 91 4 91 29 0 10 15 18 32 18 27 0 28 5 8 30 -20 24 -19 30 5 30 17
0 36 -13 42 -28 12 -32 121 -62 153 -42 14 8 14 25 -1 51 -16 31 -14 39 10 39
17 0 31 9 31 21 0 14 -11 15 -35 1 -19 -10 -35 -35 -35 -56 0 -37 -61 -41 -97
-6 -24 23 25 105 57 93 14 -6 43 2 63 18 20 15 26 28 13 28 -13 1 -28 -7 -34
-16z"/>
<path d="M3911 7641 c-8 -12 -23 -16 -35 -9 -11 7 -28 1 -37 -13 -12 -20 -22
-21 -44 -3 -28 23 -71 21 -140 -6 -19 -8 -35 -6 -35 3 0 10 -35 18 -77 17 -47
0 -75 -9 -70 -21 5 -12 35 -18 68 -13 37 5 59 0 59 -15 0 -13 8 -18 19 -12 10
6 24 2 31 -10 10 -14 22 -14 42 2 15 13 28 16 28 6 0 -9 9 -3 20 13 16 25 19
24 20 -6 0 -20 9 -31 20 -24 12 7 16 21 9 31 -6 10 3 13 20 7 17 -7 26 -20 20
-30 -21 -33 9 -18 63 32 30 28 49 55 43 62 -6 6 -17 1 -24 -11z"/>
<path d="M4240 7590 c0 -60 2 -60 57 -13 56 49 54 63 -7 63 -40 0 -50 -10 -50
-50z"/>
<path d="M4594 7583 l-44 -48 50 15 c76 22 134 81 80 81 -23 0 -61 -21 -86
-48z"/>
<path d="M4759 7612 c25 -31 -4 -64 -37 -43 -20 12 -45 -39 -27 -57 6 -6 23
-2 38 10 15 13 40 17 55 11 46 -17 50 33 6 72 -48 42 -68 46 -35 7z"/>
<path d="M2788 7597 c-9 -14 -6 -18 9 -9 35 22 27 -30 -11 -72 -26 -29 -28
-42 -8 -61 20 -20 24 -19 18 5 -4 20 8 28 34 26 22 -3 30 0 18 5 -12 6 -18 32
-13 57 10 52 -24 87 -47 49z"/>
<path d="M3345 7518 c-13 -14 -44 -29 -69 -32 -24 -4 -50 -17 -58 -29 -7 -12
-25 -15 -39 -6 -16 10 -20 7 -11 -8 9 -14 1 -23 -21 -23 -28 0 -30 -5 -10 -25
20 -20 28 -19 42 4 12 18 54 29 118 30 55 0 106 8 115 16 8 8 5 15 -7 15 -12
0 -25 19 -29 41 -5 33 -11 36 -31 17z"/>
<path d="M4030 7520 c-24 -10 -29 -18 -11 -19 16 0 49 -21 75 -44 37 -36 46
-38 46 -12 0 26 -52 99 -66 94 -2 -1 -22 -10 -44 -19z"/>
<path d="M2795 7417 c-43 -45 -46 -71 -5 -37 16 13 43 19 60 13 36 -14 40 14
5 41 -17 14 -36 8 -60 -17z"/>
<path d="M3660 7400 c0 -12 10 -16 22 -9 15 9 18 1 11 -23 -7 -21 -3 -51 8
-68 15 -23 19 -13 15 38 -5 62 -56 118 -56 62z"/>
<path d="M2952 7316 c-40 -32 -72 -49 -72 -36 0 14 -16 18 -40 10 -27 -9 -40
-4 -40 15 0 16 -13 28 -30 28 -16 0 -30 -7 -30 -16 0 -9 9 -17 20 -17 31 0 23
-54 -10 -67 -16 -7 -30 -28 -30 -48 0 -20 -14 -56 -30 -80 -29 -40 -28 -45 14
-67 33 -18 46 -18 52 -1 4 13 38 23 74 23 37 0 73 9 80 20 7 11 -3 20 -23 20
-31 0 -31 3 -4 25 17 14 42 54 56 90 14 35 34 60 43 54 10 -6 18 2 18 18 0 29
42 54 87 52 12 -1 1 -11 -27 -22 -49 -19 -49 -21 -11 -48 34 -25 34 -29 5 -29
-19 0 -34 -13 -34 -30 0 -16 11 -30 25 -30 18 -1 18 -5 -2 -18 -15 -9 -44 -13
-65 -7 -21 5 -38 0 -38 -11 0 -35 82 -50 131 -23 39 20 79 17 243 -23 108 -26
215 -48 239 -48 24 0 50 -7 59 -15 15 -15 -11 -21 -82 -18 -27 1 -17 -10 30
-33 l70 -34 -190 -11 c-131 -8 -156 -13 -80 -15 61 -2 146 -15 190 -28 81 -23
99 -28 146 -33 15 -2 20 -13 12 -26 -8 -14 -5 -18 7 -10 27 17 105 -80 105
-130 0 -20 9 -37 20 -37 11 0 20 -19 20 -42 0 -27 -10 -39 -26 -32 -16 6 -39
-20 -59 -67 -19 -43 -53 -82 -78 -90 -46 -15 -112 -69 -85 -69 9 0 -2 -14 -23
-31 -38 -30 -38 -31 4 -11 23 12 48 35 54 51 6 17 23 31 37 31 83 0 250 224
225 303 -6 20 -2 37 10 37 11 0 3 18 -19 40 -22 22 -40 54 -40 70 0 17 -12 30
-28 30 -59 0 -137 54 -94 65 21 6 49 0 61 -12 17 -17 28 -15 42 7 13 22 18 23
19 4 0 -15 9 -21 20 -14 11 7 20 1 20 -14 1 -19 6 -18 20 4 14 22 19 23 20 4
0 -42 54 -89 67 -59 5 14 11 8 11 -13 2 -36 4 -36 39 4 40 46 44 132 6 137
-12 1 -39 3 -58 5 -28 2 -30 6 -7 20 16 10 41 13 58 7 22 -9 24 -3 9 27 -11
21 -16 49 -11 62 12 33 -67 74 -81 41 -8 -20 -10 -20 -11 0 -3 36 -35 31 -35
-5 0 -17 21 -36 46 -43 49 -12 61 -36 27 -57 -11 -7 -25 1 -32 18 -9 23 -23
25 -62 10 -53 -20 -56 -8 -17 85 11 25 -1 34 -55 40 -49 6 -67 1 -60 -16 5
-13 20 -20 33 -16 15 6 25 -20 28 -71 6 -74 2 -80 -45 -80 -52 0 -66 36 -28
74 16 16 11 28 -20 45 -33 17 -42 17 -43 -3 0 -14 -26 3 -59 38 -63 70 -213
95 -355 59 -54 -13 -65 -10 -65 17 0 23 -11 29 -38 21 -30 -10 -41 0 -51 46
-17 77 -85 77 -179 -1z"/>
<path d="M5400 7219 c0 -12 -10 -15 -21 -8 -12 7 -38 -2 -59 -21 -23 -20 -53
-29 -77 -21 -22 7 -45 3 -53 -8 -16 -27 -174 -12 -285 27 -90 32 -108 24 -50
-21 33 -26 33 -26 0 -15 -22 8 -39 0 -47 -20 -7 -18 -29 -32 -50 -32 -21 0
-38 -13 -38 -30 0 -16 -9 -30 -20 -30 -11 0 -20 -13 -20 -29 0 -16 -10 -35
-23 -43 -17 -10 -20 6 -11 59 9 59 5 73 -22 75 -19 1 -54 4 -79 6 -56 7 -58
-19 -5 -48 57 -30 50 -53 -25 -79 -57 -20 -61 -26 -30 -43 48 -27 -4 -84 -59
-65 -31 11 -31 8 4 -20 45 -36 90 -43 90 -13 0 11 15 20 33 20 18 0 48 18 68
41 31 35 38 37 64 11 23 -23 35 -24 53 -6 13 13 35 24 48 24 14 1 22 23 18 55
-3 35 4 55 21 55 14 0 42 19 62 42 27 31 42 37 59 20 23 -23 -41 -88 -69 -70
-25 15 -42 -35 -20 -57 28 -28 -63 -109 -142 -126 -30 -7 -51 -20 -45 -29 5
-9 -9 -11 -31 -5 -29 7 -40 2 -37 -17 2 -16 -2 -51 -10 -80 -18 -63 23 -166
96 -242 59 -62 65 -80 22 -63 -16 6 -30 2 -30 -9 0 -11 26 -16 57 -11 54 8 93
-35 86 -96 -1 -7 26 -18 59 -24 33 -7 55 -21 49 -31 -18 -29 27 -48 57 -24 14
12 32 16 39 8 7 -7 13 2 13 19 0 17 11 36 25 42 14 5 -9 4 -50 -1 -60 -9 -75
-5 -75 21 0 39 -52 44 -68 8 -6 -14 -5 0 1 30 8 39 3 55 -17 55 -15 0 -66 39
-112 86 -82 84 -109 154 -59 154 20 1 19 4 -1 17 -18 12 -20 29 -6 65 11 26
20 41 21 31 0 -9 35 5 76 30 126 79 468 67 746 -26 203 -67 319 -82 211 -27
-116 61 -543 150 -715 150 -60 0 -82 40 -22 41 32 0 31 3 -4 30 -38 29 -38 29
0 31 39 1 60 4 272 37 84 14 138 11 208 -10 53 -16 100 -25 105 -20 9 9 -79
51 -128 62 -12 2 -48 20 -80 38 -32 18 -41 28 -20 22 20 -6 49 -1 65 11 20 17
34 17 57 -2 25 -20 30 -19 30 8 0 30 5 30 58 3 42 -22 56 -41 48 -69 -7 -26 3
-42 32 -51 23 -8 42 -30 42 -51 0 -42 30 -56 94 -44 40 7 42 14 21 51 -13 24
-24 50 -24 59 -1 8 -14 24 -31 34 -22 14 -23 19 -4 20 42 0 19 85 -26 95 -22
5 -68 8 -103 7 -35 -1 -67 10 -73 24 -12 31 -134 43 -134 13z"/>
<path d="M4226 7125 c7 -28 -1 -52 -21 -63 -26 -14 -22 -23 27 -49 32 -17 47
-32 34 -32 -14 -1 -20 -14 -13 -31 6 -16 18 -25 27 -20 9 5 21 -5 28 -22 10
-26 18 -28 42 -8 16 13 25 33 19 42 -6 10 9 18 35 18 37 1 40 4 16 20 -16 10
-47 14 -68 7 -31 -9 -36 -4 -27 31 8 30 2 42 -22 42 -28 1 -29 3 -4 19 25 16
24 21 -10 33 -21 9 -47 25 -56 37 -10 12 -12 2 -7 -24z"/>
<path d="M2702 6925 c-1 -14 -15 -25 -32 -25 -16 0 -30 -10 -30 -21 0 -12 -9
-16 -19 -9 -40 24 -84 -138 -88 -323 -1 -101 -10 -191 -19 -200 -9 -9 -10 2
-3 24 12 39 12 39 -19 0 -18 -21 -32 -45 -32 -54 0 -25 37 -39 50 -18 8 13 24
12 48 -2 33 -21 31 -27 -26 -80 -41 -37 -54 -62 -40 -72 20 -14 35 -60 56
-175 13 -71 36 -110 64 -110 15 0 26 -7 24 -15 -9 -34 29 -105 55 -105 16 0
29 -10 29 -22 0 -15 12 -13 33 5 31 25 31 23 5 -18 -30 -48 -61 -61 -53 -21 3
13 -11 27 -30 31 -52 12 -43 -24 25 -98 55 -61 60 -62 60 -22 0 25 22 58 51
78 39 25 45 37 25 50 -14 9 -18 17 -7 17 10 0 1 14 -20 31 -28 21 -31 29 -9
26 17 -2 46 4 65 12 43 19 48 75 5 58 -27 -10 -40 13 -32 59 1 8 -18 2 -43
-15 -31 -20 -55 -23 -75 -10 -20 12 -22 18 -5 19 14 0 25 9 25 20 0 11 -14 20
-31 20 -23 0 -28 12 -19 40 8 26 3 41 -14 42 -14 1 -3 9 24 18 l50 16 -45 15
c-47 14 -61 77 -23 100 14 9 15 19 3 27 -41 26 -104 176 -64 151 12 -7 20 -1
18 14 -8 60 2 97 28 97 15 0 37 23 49 50 23 50 -6 67 -85 51 -11 -2 -3 15 18
38 38 42 38 43 0 28 -34 -13 -36 -10 -13 18 15 18 27 60 28 94 2 52 6 58 34
37 18 -14 25 -17 17 -7 -8 9 -7 27 2 39 9 12 10 45 2 72 -8 28 -16 39 -17 25z"/>
<path d="M2932 6880 c-116 -37 -169 -69 -148 -90 6 -6 36 -1 68 11 32 13 126
44 208 70 138 43 144 46 70 47 -44 0 -133 -17 -198 -38z"/>
<path d="M3018 6808 c-49 -26 -122 -47 -163 -47 -53 -1 -75 -10 -75 -31 0 -16
14 -30 30 -30 17 0 30 -13 30 -29 0 -31 67 -77 85 -59 6 6 63 1 126 -11 88
-16 122 -15 145 4 21 17 116 25 307 25 152 0 277 2 277 4 0 3 -52 39 -115 82
-223 151 -468 185 -647 92z m333 -16 c47 -34 38 -46 -41 -55 -50 -6 -61 1 -66
38 -8 53 46 62 107 17z m-214 -76 c53 -84 38 -102 -48 -62 -84 41 -82 108 4
125 2 1 21 -28 44 -63z m404 24 c108 -56 100 -71 -41 -76 -66 -3 -120 -1 -120
5 0 96 59 122 161 71z"/>
<path d="M1916 6785 c-9 -40 51 -349 81 -425 l20 -50 1 60 c1 33 -16 127 -37
209 -38 145 -38 200 0 140 10 -16 19 -62 19 -103 0 -40 9 -79 20 -86 11 -7 20
5 20 26 0 22 5 65 11 97 8 43 -1 70 -41 112 -60 64 -84 69 -94 20z"/>
<path d="M4855 6696 c-162 -103 -165 -114 -30 -115 122 0 279 -14 436 -37 61
-9 138 -9 170 0 33 9 71 11 85 6 36 -13 108 27 93 51 -6 10 7 19 30 19 77 0
41 30 -84 69 -193 60 -233 68 -405 81 l-161 11 -134 -85z m315 24 c-7 -11 -3
-20 9 -20 11 0 22 11 23 25 1 20 3 20 11 0 6 -14 23 -25 39 -25 15 0 28 -9 28
-20 0 -11 -31 -20 -70 -20 -57 0 -70 8 -70 40 0 22 10 40 21 40 12 0 16 -9 9
-20z m-112 -53 c31 -68 27 -70 -105 -55 -133 16 -139 27 -38 71 103 46 115 44
143 -16z m393 -16 c37 -27 35 -30 -38 -61 -113 -47 -148 -34 -93 35 49 62 75
68 131 26z"/>
<path d="M6413 6727 c-7 -8 -13 -31 -13 -52 0 -24 -9 -32 -25 -22 -20 12 -20
8 0 -16 21 -26 20 -42 -3 -86 -15 -29 -23 -71 -17 -93 14 -53 21 -43 55 84 16
59 35 128 42 153 12 43 -10 61 -39 32z"/>
<path d="M4005 6663 c7 -29 2 -49 -15 -56 -14 -5 -24 -31 -21 -57 3 -27 0 -46
-8 -44 -7 2 -42 -27 -79 -64 -52 -53 -70 -62 -84 -40 -9 15 -18 19 -18 7 0
-12 11 -32 24 -45 18 -18 14 -34 -18 -69 -42 -46 -59 -205 -24 -226 9 -6 -1
-41 -22 -79 -79 -140 -66 -449 19 -446 17 1 56 -5 86 -13 84 -23 68 22 -25 69
-94 48 -114 149 -40 195 22 14 40 39 40 55 0 27 25 39 48 25 5 -3 30 15 57 40
32 31 54 38 68 24 29 -29 87 -1 87 42 0 20 13 49 29 65 16 16 23 36 15 45 -8
8 -4 10 8 3 12 -7 39 0 60 16 22 16 27 29 13 29 -14 1 -25 15 -25 31 0 17 -9
30 -19 30 -11 0 -15 -13 -9 -29 10 -24 2 -25 -52 -5 l-64 24 87 77 c48 43 71
72 51 66 -29 -10 -34 -5 -24 25 6 22 1 45 -14 54 -14 8 -20 8 -12 -1 7 -8 -8
-39 -35 -68 -27 -29 -49 -68 -49 -86 0 -56 -23 -97 -53 -97 -15 0 -36 -22 -47
-49 -19 -51 -91 -102 -106 -76 -21 37 -10 145 15 145 14 0 37 14 51 30 21 26
20 29 -5 19 -19 -7 -34 3 -40 29 -6 22 -5 39 2 36 7 -2 16 5 19 16 4 11 21 35
37 54 17 18 26 42 19 53 -14 23 97 66 121 46 8 -7 4 3 -11 22 -16 21 -18 35
-6 35 33 0 50 -79 23 -111 -38 -46 -6 -34 52 20 32 30 47 59 38 73 -11 17 -6
21 16 13 72 -28 2 90 -84 141 l-88 52 12 -45z"/>
<path d="M5806 6662 c-2 -21 12 -42 33 -47 22 -6 39 -34 45 -73 11 -75 -1 -93
-33 -49 -28 37 -159 20 -145 -20 5 -13 18 -21 30 -19 11 3 34 -30 51 -73 17
-43 42 -84 56 -93 16 -10 20 -4 10 20 -24 64 7 135 52 120 28 -8 36 -5 26 11
-8 13 -19 70 -25 127 -10 98 -30 133 -77 134 -11 0 -22 -17 -23 -38z"/>
<path d="M4428 6584 c7 -11 1 -25 -13 -31 -17 -7 -11 -22 20 -50 31 -27 38
-43 20 -50 -14 -5 7 -11 45 -12 64 -2 160 -68 160 -111 0 -7 17 -35 38 -62
l38 -48 0 70 c0 38 -8 65 -18 59 -10 -7 -13 -20 -7 -30 6 -11 2 -19 -10 -19
-11 0 -21 13 -21 29 0 15 -15 43 -33 61 -28 29 -29 37 -5 54 22 16 20 17 -8 8
-22 -7 -40 1 -48 22 -13 34 -86 115 -86 95 0 -6 -19 0 -42 12 -25 14 -38 15
-30 3z"/>
<path d="M2960 6534 c0 -20 -9 -31 -20 -24 -11 7 -20 8 -20 2 0 -79 531 -97
655 -22 36 21 65 46 65 54 0 22 -176 6 -246 -22 -78 -31 -381 -30 -362 1 9 15
5 18 -11 8 -15 -10 -33 -5 -43 11 -14 22 -17 20 -18 -8z"/>
<path d="M4929 6502 c6 -10 -9 -13 -34 -7 -61 14 -27 -19 72 -71 84 -45 439
-63 463 -24 14 23 18 22 -141 32 -66 4 -160 21 -207 37 -47 17 -94 26 -104 20
-10 -6 -18 -2 -18 10 0 11 -10 21 -21 21 -12 0 -16 -8 -10 -18z"/>
<path d="M4293 6389 c7 -17 16 -26 22 -21 13 14 65 -40 65 -67 0 -11 20 -20
45 -19 36 2 38 5 9 12 -23 6 -33 21 -26 39 6 16 3 24 -8 17 -10 -6 -30 7 -44
29 -30 48 -80 56 -63 10z"/>
<path d="M5563 6326 c14 -16 33 -19 54 -8 18 9 47 21 63 27 17 6 -8 10 -54 8
-64 -1 -79 -8 -63 -27z"/>
<path d="M4440 6238 c0 -14 -19 -18 -50 -10 -36 9 -54 4 -63 -18 -6 -16 -24
-30 -39 -30 -15 0 -28 -9 -28 -20 0 -11 10 -20 21 -20 12 0 16 -9 9 -20 -7
-12 -21 -15 -31 -9 -11 6 -19 2 -19 -10 0 -12 23 -31 50 -41 28 -10 50 -27 50
-37 0 -35 57 -40 84 -8 14 18 16 27 3 19 -13 -8 -28 0 -35 17 -7 19 -22 26
-37 17 -14 -8 -18 -7 -10 2 8 9 3 31 -10 48 -22 28 -21 29 9 5 39 -30 76 -16
76 29 0 17 8 25 18 20 9 -6 17 11 17 38 0 28 -3 50 -7 50 -5 0 -8 -10 -8 -22z"/>
<path d="M5051 6227 c-6 -16 -19 -24 -29 -18 -11 6 -26 1 -33 -11 -18 -28 28
-58 65 -44 18 7 33 -5 40 -32 13 -50 98 -78 132 -43 19 18 11 21 -34 9 -38 -9
-54 -7 -45 7 7 11 -1 32 -17 45 -16 13 -24 34 -17 45 8 12 3 15 -10 7 -13 -8
-23 -5 -23 7 0 38 75 22 86 -19 7 -27 21 -36 42 -28 18 7 32 3 32 -8 0 -28 86
-46 109 -23 12 12 6 19 -16 19 -23 0 -30 9 -21 25 11 20 8 20 -13 0 -21 -19
-39 -15 -88 22 -80 61 -145 77 -160 40z"/>
<path d="M3513 6190 c-7 -18 -22 -27 -34 -19 -41 25 -139 32 -139 9 0 -12 9
-17 19 -11 10 7 29 -6 41 -28 16 -31 15 -41 -3 -41 -31 0 -4 -27 32 -32 19 -3
25 11 19 44 -5 26 1 48 13 48 12 0 16 -9 9 -20 -7 -11 -2 -20 11 -20 13 0 18
-13 12 -29 -7 -19 -1 -25 18 -18 20 8 23 21 10 46 -13 23 -11 43 4 58 12 12
17 27 11 34 -6 6 -17 -4 -23 -21z"/>
<path d="M4500 6140 c0 -10 8 -23 19 -29 11 -7 11 -36 1 -72 -14 -47 -11 -64
11 -72 16 -6 29 -23 29 -36 0 -15 20 -23 49 -20 68 7 206 -102 222 -177 10
-44 18 -52 31 -32 22 35 23 118 2 118 -8 0 -41 49 -72 108 -44 85 -73 114
-134 138 -43 17 -78 43 -78 58 0 15 -18 29 -40 31 -22 1 -40 -5 -40 -15z"/>
<path d="M6093 6115 c-31 -28 -61 -91 -80 -165 -17 -66 -37 -140 -44 -165 -10
-34 -5 -45 19 -45 24 0 32 19 32 73 0 58 14 86 68 135 68 62 111 178 75 200
-11 7 -42 -8 -70 -33z"/>
<path d="M5820 6121 c0 -10 -16 -34 -35 -53 -33 -34 -33 -35 0 -23 26 10 35 4
35 -24 0 -28 -11 -35 -45 -29 -25 5 -34 3 -20 -3 35 -17 31 -49 -5 -49 -16 0
-30 -9 -30 -20 0 -19 29 -28 66 -22 10 2 11 -7 3 -19 -7 -12 -30 -18 -51 -13
-21 6 -38 2 -38 -8 0 -10 -13 -18 -30 -18 -16 0 -30 -10 -30 -21 0 -12 17 -16
38 -10 32 10 37 5 28 -30 -9 -32 -16 -36 -28 -16 -12 18 -17 9 -18 -30 0 -43
8 -54 30 -46 53 21 32 -3 -30 -34 -34 -17 -55 -20 -47 -9 8 13 4 16 -10 8 -13
-8 -23 -27 -23 -43 0 -16 -10 -29 -22 -29 -13 0 -18 -18 -12 -40 6 -22 1 -40
-10 -40 -11 0 -15 -13 -9 -29 6 -17 1 -36 -11 -43 -13 -8 -17 -5 -9 7 14 23
-62 57 -82 37 -6 -7 5 -12 25 -12 33 0 33 -3 5 -35 -17 -19 -35 -57 -40 -85
-9 -46 -10 -47 -12 -5 -3 48 -17 54 -59 28 -22 -14 -21 -23 6 -50 18 -18 27
-42 20 -53 -16 -25 9 -108 27 -90 7 7 14 19 16 27 12 61 36 103 59 103 16 0
28 18 28 40 0 22 8 40 19 40 10 0 24 18 31 40 7 22 30 40 51 40 22 0 40 9 42
20 1 11 4 27 6 35 29 103 40 125 73 136 21 6 39 20 41 30 5 40 8 50 24 74 9
14 24 20 34 14 11 -6 19 7 19 30 0 22 -9 41 -19 41 -11 0 -14 14 -8 32 10 25
16 26 29 5 9 -14 20 -22 25 -16 18 18 28 218 11 208 -10 -6 -18 2 -18 18 0 16
11 34 25 40 14 5 5 11 -20 11 -25 1 -45 -6 -45 -17z"/>
<path d="M5576 5933 c-47 -36 -18 -72 41 -50 38 14 33 86 -4 76 -2 0 -18 -12
-37 -26z"/>
<path d="M2904 5736 c-13 -13 -24 -38 -24 -55 1 -22 13 -16 40 19 31 39 43 44
57 23 11 -17 23 -20 30 -7 7 11 -1 25 -19 32 -44 17 -57 15 -84 -12z"/>
<path d="M3884 5709 c-76 -54 -61 -61 264 -122 32 -6 81 -19 108 -29 37 -14
62 -10 102 16 33 22 100 37 187 41 124 5 168 -12 115 -45 -45 -28 -18 -55 43
-42 101 20 171 112 85 112 -17 0 -55 18 -83 40 -62 49 -142 51 -241 6 -92 -41
-283 -52 -324 -17 -77 65 -194 83 -256 40z"/>
<path d="M2933 5686 c-26 -26 -12 -42 27 -32 41 11 56 -22 20 -44 -32 -20 -24
-70 10 -57 17 6 30 24 30 40 0 16 9 24 20 17 11 -7 20 -5 20 4 -1 21 -39 81
-40 60 0 -8 -17 -6 -37 5 -21 11 -43 14 -50 7z"/>
<path d="M3060 5560 c-29 -18 -13 -29 30 -21 11 2 9 -8 -5 -22 -34 -34 -32
-68 3 -39 21 18 30 16 39 -8 14 -35 -31 -60 -76 -43 -15 6 -33 0 -38 -13 -6
-14 -11 -10 -11 9 -1 19 9 38 23 44 19 8 19 10 -1 11 -15 1 -20 13 -12 27 8
14 7 18 -2 10 -9 -8 -38 -1 -65 16 -46 31 -47 30 -26 -10 12 -22 31 -41 42
-41 28 0 23 -55 -6 -67 -15 -6 -11 -10 10 -11 38 -2 48 -52 15 -72 -11 -7 -19
-28 -18 -46 2 -28 4 -27 12 4 7 27 14 31 26 13 26 -43 98 -7 85 43 -8 29 -4
38 12 28 13 -8 23 -27 23 -43 0 -35 32 -38 52 -6 9 14 5 18 -9 9 -15 -9 -23 3
-23 35 0 27 11 53 25 58 19 6 18 17 -5 45 -16 20 -27 53 -24 73 7 40 -28 48
-76 17z"/>
<path d="M5047 5499 c7 -51 92 -156 92 -115 1 19 -21 59 -48 90 -30 34 -47 44
-44 25z"/>
<path d="M3898 5440 c-5 -70 -8 -80 -21 -75 -8 3 -35 -15 -62 -40 -26 -25 -78
-47 -116 -50 -61 -5 -69 -13 -68 -61 1 -41 -9 -54 -40 -56 -22 0 -30 -6 -16
-11 14 -6 20 -19 14 -29 -6 -10 7 -18 30 -18 22 0 41 9 41 20 0 11 13 20 28
20 16 0 32 7 35 15 8 18 212 118 316 155 199 70 597 7 772 -121 77 -57 171
-73 205 -36 30 32 16 35 -37 7 -30 -16 -36 -15 -27 7 5 15 -13 55 -41 88 -42
50 -45 63 -21 72 17 7 30 4 30 -6 0 -10 17 -17 39 -16 21 2 34 11 28 19 -5 9
-17 12 -26 6 -9 -5 -22 4 -28 20 -13 33 -125 41 -172 11 -20 -12 -38 -7 -60
18 -22 24 -43 30 -71 20 -55 -22 -74 -22 -61 0 16 26 -24 47 -54 28 -42 -26
-92 -22 -81 6 6 15 1 27 -10 27 -10 0 -24 -18 -30 -40 -15 -59 -254 -35 -254
26 0 15 -8 13 -19 -5 -10 -17 -25 -24 -32 -16 -8 7 -27 0 -43 -16 -16 -16 -41
-29 -57 -29 -31 0 -74 68 -55 87 7 7 2 13 -11 13 -12 0 -24 -18 -25 -40z m966
-105 c-11 -14 -21 -32 -22 -40 -1 -8 -9 -14 -17 -13 -8 1 -12 11 -9 22 3 12
-8 16 -24 9 -20 -7 -26 -2 -19 18 6 16 34 29 62 29 38 0 45 -6 29 -25z"/>
<path d="M3447 5370 c-15 -32 -16 -50 -3 -50 11 0 15 -21 8 -47 -12 -51 71
-56 103 -6 23 37 27 96 5 83 -11 -7 -14 1 -8 19 7 17 2 31 -10 31 -12 0 -22
-9 -22 -20 0 -31 -36 -23 -44 10 -4 20 -13 13 -29 -20z"/>
<path d="M3318 5286 c-2 -9 -2 -22 -1 -30 1 -7 -24 -19 -55 -26 -54 -11 -72
-90 -20 -90 9 0 12 -14 5 -30 -8 -21 -2 -27 19 -19 17 7 36 25 42 42 7 16 20
24 30 18 11 -6 25 -3 31 7 6 11 3 25 -9 32 -31 19 -24 46 15 54 30 7 29 11
-10 33 -25 13 -46 17 -47 9z"/>
<path d="M3152 5249 c-8 -22 -23 -24 -66 -9 -51 19 -53 18 -18 -9 20 -16 32
-42 26 -58 -8 -20 0 -26 29 -18 23 6 35 21 28 38 -6 17 7 35 33 44 35 13 37
18 11 28 -18 7 -36 0 -43 -16z"/>
<path d="M5268 5246 c6 -7 -1 -22 -16 -34 -54 -42 -63 -119 -13 -106 39 10 42
5 31 -46 -7 -32 -3 -62 9 -69 11 -7 21 2 21 20 0 18 15 64 33 102 18 37 27 74
20 81 -7 7 -13 2 -13 -11 0 -12 -9 -23 -20 -23 -23 0 -18 44 7 62 9 7 -3 18
-27 24 -24 6 -39 6 -32 0z"/>
<path d="M3941 5165 c0 -14 -14 -25 -30 -25 -16 0 -43 -20 -60 -44 -17 -25
-31 -37 -31 -28 0 10 -19 -6 -41 -35 -23 -29 -50 -53 -61 -53 -27 0 -157 -87
-158 -105 0 -25 137 -17 180 10 35 22 46 18 87 -29 32 -38 68 -56 121 -59 49
-4 86 -20 105 -46 27 -38 30 -39 49 -6 15 27 29 31 57 16 36 -20 102 -15 142
10 11 7 32 3 45 -8 39 -32 165 -13 225 34 30 24 74 43 98 43 24 0 52 9 63 20
22 22 148 5 148 -20 0 -8 -23 -31 -52 -52 -29 -21 -63 -48 -75 -60 -13 -11
-35 -17 -48 -13 -14 5 -25 -7 -25 -25 0 -19 -11 -30 -25 -25 -34 12 -122 -79
-89 -92 18 -7 17 -10 -2 -11 -15 -1 -20 -12 -13 -23 8 -14 24 -6 42 20 22 30
42 38 78 29 37 -9 47 -5 39 15 -6 16 32 61 98 112 60 47 115 103 122 125 12
38 70 58 70 24 0 -8 18 -17 40 -19 23 -1 40 10 40 26 0 16 -7 28 -15 27 -42
-7 -57 7 -56 55 1 29 -9 57 -22 61 -13 4 -22 -7 -20 -25 8 -87 -277 -92 -380
-6 -34 28 4 85 47 68 16 -6 23 -2 15 11 -7 11 -27 15 -44 9 -17 -7 -48 4 -69
23 -23 20 -44 27 -52 15 -17 -23 -203 -25 -238 -3 -13 8 -65 5 -115 -8 -106
-26 -145 -16 -170 47 -10 25 -19 34 -20 20z m62 -136 c52 -16 -37 -69 -116
-69 l-49 0 42 45 c25 26 33 47 20 52 -13 4 -7 18 14 34 31 23 37 21 42 -11 4
-21 25 -44 47 -51z m510 -81 c206 -60 161 -91 -140 -99 -499 -12 -673 47 -313
107 161 27 345 24 453 -8z"/>
<path d="M3503 5095 c-12 -12 -44 -24 -72 -27 -28 -3 -62 -17 -76 -32 -27 -28
-36 -159 -10 -143 8 5 15 0 15 -12 0 -29 -46 -27 -80 4 -16 14 -13 6 6 -17 18
-22 34 -57 34 -76 0 -19 9 -29 20 -22 11 7 20 -1 20 -18 0 -16 -9 -35 -20 -42
-26 -16 -26 -90 -1 -90 11 0 15 13 8 29 -6 17 4 45 22 63 18 18 27 48 21 68
-10 32 46 69 95 62 8 -1 15 8 15 19 0 12 -17 16 -38 10 -47 -15 -78 24 -33 41
17 7 31 24 31 38 0 15 11 31 25 37 15 6 11 10 -10 11 -19 1 -35 -10 -35 -24 0
-14 -18 -27 -40 -29 -22 -1 -40 6 -40 16 0 11 8 19 18 19 11 0 46 23 79 50 42
35 62 43 69 25 6 -17 16 -18 30 -5 14 14 13 27 -5 43 -19 17 -32 18 -48 2z"/>
<path d="M4705 5085 c-40 -14 -29 -65 15 -65 22 0 40 7 40 15 -1 31 -31 59
-55 50z"/>
<path d="M5154 5027 c-7 -7 -8 -34 -1 -60 6 -28 2 -47 -10 -47 -12 0 -17 -12
-12 -27 6 -14 24 -26 40 -26 19 0 22 7 9 23 -12 15 -11 31 5 47 19 19 19 28
-3 42 -15 9 -21 27 -13 39 15 24 5 30 -15 9z"/>
<path d="M3506 4825 c-16 -5 -19 -23 -9 -51 18 -52 8 -114 -18 -114 -11 0 -19
-10 -19 -22 0 -15 12 -13 33 5 26 21 35 21 42 2 5 -14 22 -25 39 -25 24 0 26
6 8 28 -40 47 54 56 101 9 22 -22 46 -35 52 -29 16 16 -76 112 -107 112 -14 0
-42 21 -62 47 -20 25 -47 43 -60 38z"/>
<path d="M5071 4822 c-6 -10 -28 -14 -50 -8 -31 8 -36 2 -27 -32 6 -23 19 -42
30 -42 10 0 13 9 6 20 -7 11 -3 20 9 20 29 0 25 -43 -7 -86 -27 -35 -66 1 -55
52 2 9 -15 6 -37 -6 -47 -25 -54 -44 -10 -27 19 7 30 0 30 -19 0 -20 -13 -27
-39 -20 -23 6 -62 -8 -95 -35 -31 -24 -42 -40 -26 -34 17 5 46 -4 66 -21 33
-29 35 -29 23 2 -10 26 -5 31 19 22 17 -7 32 -4 32 7 0 26 64 24 99 -3 16 -12
23 -13 17 -2 -7 11 1 32 16 46 15 14 28 19 28 11 0 -44 41 35 51 98 11 74 -45
114 -80 57z"/>
<path d="M3740 4732 c0 -15 23 -43 52 -61 35 -23 49 -47 42 -72 -9 -32 -4 -35
28 -18 35 19 46 12 40 -26 -1 -9 21 -10 50 -3 35 9 58 4 70 -14 13 -21 17 -17
18 16 0 61 -96 164 -119 128 -13 -21 -22 -17 -40 17 -14 26 -36 40 -53 33 -15
-6 -28 -2 -28 9 0 10 -13 19 -30 19 -16 0 -30 -12 -30 -28z"/>
<path d="M4550 4466 c-71 -20 -163 -26 -315 -19 -150 7 -215 3 -215 -12 0 -13
-14 -5 -31 16 -18 22 -27 29 -21 16 7 -13 -2 -28 -18 -34 -17 -7 -30 -23 -30
-37 1 -20 5 -19 18 1 15 24 20 24 35 0 9 -15 28 -28 42 -29 84 -7 87 -9 76
-46 -7 -21 -3 -44 8 -51 12 -8 21 -4 21 8 0 11 7 20 15 19 51 -8 69 7 29 23
-65 26 -37 63 28 38 28 -11 60 -14 70 -8 10 6 18 0 18 -15 1 -20 5 -19 19 3
16 25 23 25 53 0 20 -16 29 -18 22 -5 -8 13 -7 28 3 34 27 17 42 -115 15 -134
-12 -9 -1 -11 25 -3 30 8 54 4 63 -11 11 -18 25 -19 53 -4 34 20 33 23 -15 41
-74 28 -85 74 -29 111 44 28 48 28 58 -14 7 -24 40 -60 75 -80 82 -46 100 -29
19 18 -88 53 -94 180 -7 167 8 -1 18 8 22 20 4 11 4 20 1 19 -4 -2 -52 -16
-107 -32z"/>
<path d="M3743 4463 c7 -57 -6 -86 -35 -75 -24 9 -29 4 -20 -19 6 -18 12 -39
12 -48 0 -30 98 -36 109 -7 7 19 -1 26 -24 23 -49 -9 -58 29 -13 54 51 27 55
63 8 75 -21 5 -38 4 -37 -3z"/>
<path d="M2999 4375 c25 -64 47 -123 50 -135 7 -35 37 -56 65 -46 25 10 30 4
21 -30 -13 -52 28 -114 67 -98 22 8 20 11 -5 12 -28 2 -73 62 -47 62 23 0 87
-69 78 -84 -6 -9 0 -16 13 -16 13 0 18 -14 12 -31 -9 -22 5 -34 47 -42 33 -7
60 -20 60 -29 0 -41 76 -94 99 -71 18 17 20 14 10 -12 -10 -26 -3 -35 28 -35
22 0 45 -8 51 -17 6 -10 -10 -13 -36 -8 -54 10 -87 -25 -41 -43 17 -6 27 -4
21 4 -5 9 22 16 59 16 38 0 69 -7 69 -16 0 -9 25 -16 55 -17 66 0 122 -39 109
-76 -7 -21 0 -22 31 -6 39 21 65 13 65 -20 0 -9 -13 -11 -30 -4 -16 6 -30 2
-30 -9 0 -11 33 -16 74 -12 43 4 81 -3 89 -17 11 -17 26 -13 56 14 42 38 49
32 42 -39 -4 -37 -2 -37 40 7 33 36 60 45 112 39 44 -5 67 0 67 16 0 19 44 22
167 15 144 -8 170 -4 181 24 7 19 25 28 41 22 20 -8 26 -1 18 23 -9 31 -8 31
17 2 29 -36 51 -22 94 59 13 24 33 38 44 32 12 -7 26 6 32 29 6 23 18 37 27
31 9 -5 27 9 40 32 15 29 35 39 62 32 26 -6 43 2 51 24 6 18 35 53 63 78 44
37 47 45 17 45 -20 0 -31 9 -24 20 30 48 -23 10 -181 -131 -99 -87 -194 -155
-229 -162 -33 -7 -54 -20 -48 -29 5 -10 -6 -19 -26 -20 -36 -1 -83 -9 -156
-23 -21 -5 -68 -2 -103 6 -39 8 -72 6 -86 -8 -23 -23 -299 -34 -331 -12 -40
26 -92 39 -80 19 7 -11 3 -20 -8 -20 -11 0 -25 9 -31 19 -7 11 -25 15 -40 9
-33 -13 -92 66 -77 104 5 16 0 28 -12 28 -12 0 -22 -14 -22 -31 0 -54 -106
-27 -137 36 -16 30 -38 55 -50 55 -12 0 -128 108 -257 240 -234 239 -292 283
-257 195z"/>
<path d="M3394 4315 c-13 -98 -7 -111 33 -71 19 19 23 39 11 58 -23 38 -23 58
3 58 12 0 16 -9 9 -20 -7 -11 2 -20 19 -20 41 0 39 19 -4 52 -53 40 -59 35
-71 -57z"/>
<path d="M5353 4297 c-6 -23 -20 -35 -31 -28 -13 8 -17 1 -9 -19 10 -27 107
28 107 61 0 30 -59 17 -67 -14z"/>
<path d="M3839 4299 c-23 -15 -22 -19 11 -19 28 0 32 -5 15 -17 -27 -17 -24
-91 4 -117 9 -9 11 6 5 33 -7 27 -4 59 6 71 27 32 -5 72 -41 49z"/>
<path d="M3561 4231 c-14 -17 -18 -31 -8 -31 9 0 6 -8 -7 -16 -18 -11 -13 -23
17 -41 28 -18 37 -19 27 -2 -11 17 -1 19 32 10 27 -8 38 -6 24 3 -13 9 -22 33
-20 54 5 49 -33 62 -65 23z"/>
<path d="M3980 4212 c0 -13 14 -42 31 -63 18 -22 25 -26 17 -11 -8 17 0 39 23
55 20 15 28 28 18 29 -11 0 -35 4 -54 8 -19 3 -35 -5 -35 -18z"/>
<path d="M3910 4175 c3 -25 6 -71 7 -103 4 -76 20 -59 32 33 5 45 -1 80 -17
94 -21 17 -26 11 -22 -24z"/>
<path d="M5230 4200 c7 -11 3 -20 -9 -20 -11 0 -21 -22 -21 -50 0 -31 11 -50
30 -50 17 0 30 17 30 38 0 21 14 43 31 50 41 15 18 52 -33 52 -22 0 -35 -9
-28 -20z"/>
<path d="M3452 4129 c-46 -46 -39 -65 18 -54 28 5 50 22 50 36 0 43 -34 52
-68 18z"/>
<path d="M4020 4077 c0 -10 14 -17 30 -17 17 0 28 -11 25 -25 -5 -27 11 -27
73 -3 32 12 36 8 25 -21 -12 -31 -9 -33 17 -11 28 23 27 28 -5 50 -43 30 -165
49 -165 27z"/>
<path d="M4442 4077 c-1 -18 -19 -37 -41 -42 -28 -8 -35 -3 -26 21 8 20 4 26
-12 16 -42 -26 -25 -72 28 -72 52 0 81 39 62 84 -6 17 -10 15 -11 -7z"/>
<path d="M3761 4049 c14 -18 42 -28 62 -22 29 7 33 2 18 -25 -14 -26 -9 -34
22 -37 30 -2 38 8 33 41 -5 34 -18 43 -61 40 -30 -2 -55 5 -55 15 0 11 -10 19
-22 19 -16 0 -14 -10 3 -31z"/>
<path d="M4680 4010 c-20 -24 -21 -37 -3 -55 34 -34 73 10 49 54 -17 31 -21
31 -46 1z"/>
<path d="M3832 3828 c-17 -44 -16 -48 16 -48 30 0 57 49 37 68 -20 21 -40 13
-53 -20z"/>
<path d="M5484 3718 c-3 -32 5 -58 16 -58 11 0 20 -15 20 -32 0 -28 5 -29 31
-7 86 71 79 139 -16 149 -39 5 -48 -4 -51 -52z m84 -46 c-16 -43 -47 -6 -48
57 0 36 3 36 31 9 18 -18 25 -45 17 -66z"/>
<path d="M3535 3707 c14 -6 21 -17 16 -26 -6 -9 8 -32 29 -51 22 -20 40 -27
40 -15 0 12 -11 26 -25 32 -18 7 -17 10 4 11 21 2 18 10 -10 31 -22 17 -48 29
-59 29 -11 -1 -9 -6 5 -11z"/>
<path d="M5652 3628 c37 -89 58 -493 33 -659 -9 -67 -11 -145 -3 -175 9 -33 7
-54 -6 -54 -11 0 -45 -27 -76 -60 -31 -33 -66 -60 -78 -60 -12 0 -22 -16 -22
-35 1 -28 4 -29 18 -7 10 15 28 21 40 13 12 -7 22 -1 22 15 0 34 48 79 66 61
7 -6 1 -23 -12 -37 -13 -14 -40 -45 -60 -70 -23 -28 -51 -40 -75 -34 -22 6
-39 2 -39 -8 0 -10 9 -18 20 -18 11 0 32 -29 47 -65 30 -70 0 -135 -60 -135
-34 0 -35 -43 -2 -80 21 -24 20 -24 -10 -2 -32 25 -44 17 -37 -23 1 -8 -5 -14
-13 -13 -8 2 -19 1 -25 -1 -41 -16 -74 -12 -96 11 -21 23 -19 28 15 28 23 0
41 10 41 22 0 22 -152 15 -310 -13 -33 -6 -90 -11 -126 -11 -36 1 -61 -6 -56
-14 5 -8 -22 -25 -60 -37 -58 -18 -68 -16 -69 11 0 26 -6 25 -31 -8 -17 -22
-42 -38 -56 -35 -15 3 -52 -8 -84 -25 -32 -16 -87 -30 -123 -30 -36 0 -65 -9
-65 -21 0 -14 -12 -14 -39 0 -51 28 -103 28 -61 1 26 -17 25 -19 -5 -20 -19 0
-35 7 -35 16 0 27 -181 71 -202 50 -29 -29 114 -133 163 -120 22 6 39 4 39 -4
0 -9 23 -27 51 -42 27 -15 55 -49 62 -75 6 -26 16 -42 22 -37 17 17 68 -46 55
-68 -7 -11 -2 -20 11 -20 13 0 18 -13 12 -29 -12 -31 34 -23 82 14 14 11 44
15 68 8 24 -6 35 -3 25 6 -10 10 -40 21 -68 25 -27 4 -48 18 -45 31 3 14 -4
25 -15 25 -11 0 -20 -10 -20 -21 0 -12 -9 -16 -20 -9 -39 24 -20 70 29 70 27
0 54 9 61 20 7 12 21 15 31 9 11 -6 19 -2 19 10 0 11 13 21 30 21 16 0 35 23
42 50 7 28 24 50 38 50 14 0 36 14 50 30 14 17 35 30 47 29 13 0 7 -12 -12
-27 -57 -43 -41 -53 77 -44 95 7 181 32 111 32 -13 0 -23 9 -23 19 0 61 271
105 286 47 9 -34 10 -34 12 -1 2 42 42 48 42 6 0 -18 15 -26 40 -21 38 7 42 1
48 -75 1 -14 -18 -26 -42 -27 -53 -3 -191 -87 -143 -88 19 0 38 11 43 25 5 14
14 20 21 13 17 -15 -54 -98 -83 -98 -12 0 -18 -18 -14 -41 5 -23 -4 -46 -21
-52 -16 -6 -24 -20 -17 -30 7 -11 23 -9 40 5 23 19 27 18 17 -8 -7 -17 -27
-36 -46 -41 -29 -7 -29 -9 2 -11 46 -3 44 -33 -5 -82 -22 -22 -33 -41 -25 -41
8 -1 -7 -11 -35 -23 -42 -19 -44 -23 -14 -31 29 -7 31 -14 13 -37 -13 -15 -18
-28 -10 -28 8 0 -7 -29 -32 -64 -25 -36 -48 -78 -50 -95 -3 -16 -17 -39 -33
-50 -15 -12 -24 -32 -19 -46 5 -16 -3 -21 -24 -13 -23 9 -28 4 -19 -20 8 -20
2 -32 -15 -32 -21 -1 -21 -4 2 -19 24 -15 20 -25 -20 -59 -54 -45 -99 -54 -99
-21 0 12 -14 8 -31 -10 -36 -35 -69 -41 -69 -11 0 31 -34 23 -48 -11 -6 -17
-3 -26 7 -20 10 7 24 2 31 -9 8 -13 26 -11 52 7 34 24 138 24 138 -1 0 -17
-57 -66 -76 -66 -11 0 -34 -22 -52 -49 -27 -42 -28 -48 -2 -38 16 6 30 1 30
-11 0 -13 -14 -29 -32 -35 -25 -10 -26 -16 -5 -29 19 -12 12 -18 -23 -20 l-50
-2 50 -16 c48 -15 48 -16 5 -18 -42 -2 -53 -20 -47 -74 1 -11 -20 -33 -48 -48
-35 -19 -47 -38 -39 -64 8 -24 2 -36 -20 -36 -18 0 -31 -17 -31 -42 0 -37 -8
-41 -60 -31 -71 14 -76 1 -17 -50 24 -20 33 -37 20 -37 -13 0 -23 -13 -23 -30
0 -16 -10 -30 -23 -30 -31 0 -117 96 -117 130 0 15 -9 33 -19 39 -11 7 -14 26
-8 42 8 21 2 26 -21 17 -23 -9 -32 -1 -32 31 0 23 -11 41 -25 40 -63 -9 -87 1
-55 21 25 17 23 22 -15 32 -24 7 -40 20 -35 28 6 9 2 37 -9 63 -17 42 -19 43
-20 7 -3 -57 -81 36 -81 97 -1 35 -4 38 -20 13 -12 -19 -20 -21 -20 -6 0 15
-14 20 -33 12 -23 -9 -29 -5 -19 11 8 12 4 23 -8 23 -12 0 -18 8 -12 17 20 33
150 13 181 -28 16 -21 30 -28 30 -15 2 43 -64 90 -112 81 -26 -5 -47 -1 -47 9
0 10 -8 13 -18 7 -10 -6 -33 12 -51 40 -18 28 -42 45 -53 38 -11 -7 -26 6 -32
29 -7 28 -27 42 -60 42 -28 0 -43 9 -36 21 7 11 24 19 37 17 66 -8 91 3 81 37
-8 25 1 21 31 -13 32 -37 48 -43 66 -25 17 17 15 23 -11 23 -19 0 -39 22 -46
51 -9 37 -19 46 -35 30 -11 -11 -42 -21 -67 -21 -25 0 -46 -7 -46 -16 0 -8
-19 -17 -42 -19 -40 -3 -40 -1 -7 23 25 18 28 30 12 40 -13 8 -19 22 -14 31 6
9 -17 22 -50 28 -67 14 -142 72 -95 74 14 1 8 9 -14 18 -37 15 -36 18 15 31
39 10 55 27 54 57 0 40 -2 40 -21 7 -17 -29 -27 -31 -50 -13 -20 17 -28 18
-28 1 0 -12 -13 -22 -28 -22 -31 0 -33 62 -2 85 11 8 2 15 -21 15 -41 0 -89
34 -89 63 0 9 16 10 35 3 30 -12 31 -9 8 19 -14 18 -21 43 -14 54 8 13 -1 16
-23 8 -30 -11 -32 -8 -11 14 14 15 46 29 71 30 85 3 137 69 55 69 -41 0 -68
26 -48 47 7 6 29 3 50 -8 39 -21 57 26 19 50 -21 13 -142 -51 -142 -74 0 -8
-10 -15 -21 -15 -12 0 -16 8 -10 18 6 9 -8 41 -31 70 -34 43 -36 52 -9 52 17
0 31 12 31 28 0 29 86 72 156 77 24 2 47 14 52 26 4 12 29 21 55 19 26 -2 54
6 62 18 10 15 14 14 15 -4 0 -15 10 -20 22 -13 16 10 16 3 0 -27 -32 -60 -27
-104 12 -104 26 0 29 5 10 24 -39 39 -28 61 24 51 35 -6 45 -1 38 18 -6 15
-18 22 -28 16 -10 -6 -12 3 -6 19 13 34 108 -19 101 -56 -3 -17 9 -21 154 -44
42 -7 81 -25 87 -40 6 -16 18 -28 28 -28 9 0 11 15 4 32 -9 26 -3 30 28 20 50
-16 110 5 93 32 -8 13 -17 12 -26 -3 -8 -12 -29 -17 -48 -10 -49 19 -40 47 12
37 29 -6 22 2 -20 22 -36 16 -65 44 -65 60 0 17 -10 30 -21 30 -12 0 -16 -8
-10 -18 6 -10 -3 -23 -21 -30 -50 -19 -53 -15 -39 41 12 47 10 51 -18 28 -18
-15 -31 -17 -31 -5 0 33 -108 78 -177 75 -35 -2 -90 -6 -123 -7 -75 -5 -77
-30 -5 -57 l55 -20 -55 -1 c-31 -1 -61 7 -67 17 -5 9 -21 17 -34 17 -15 0 -13
-8 5 -19 25 -16 23 -21 -10 -33 -21 -8 -47 -19 -57 -24 -11 -6 -13 4 -6 22 7
18 2 39 -10 46 -13 8 -17 5 -9 -7 22 -36 -39 -71 -84 -47 -28 15 -42 15 -47 1
-12 -37 -92 8 -145 80 -44 59 -47 72 -21 86 39 22 39 63 -1 47 -40 -15 -64 46
-27 70 22 14 20 17 -9 18 -29 0 -35 10 -27 43 7 23 -1 54 -15 69 -15 15 -24
43 -21 63 4 19 18 91 31 160 18 91 33 125 57 126 28 0 27 3 -3 21 -19 11 -35
33 -35 49 0 16 -10 29 -22 29 -13 0 -18 -27 -12 -70 9 -67 -11 -110 -34 -73
-42 67 -24 283 22 283 19 0 26 -12 19 -30 -7 -16 -4 -30 6 -30 11 0 14 94 7
220 -10 197 -7 219 21 208 20 -7 37 0 45 20 14 37 70 42 103 9 17 -17 31 -14
55 10 18 18 24 33 13 33 -12 0 -26 -9 -34 -21 -18 -29 -70 16 -57 50 30 76
-183 -19 -220 -99 -176 -378 -162 -924 35 -1364 74 -164 148 -377 176 -506 27
-120 263 -467 462 -676 272 -287 517 -572 654 -760 163 -226 179 -218 394 186
93 176 213 388 267 470 54 83 127 231 163 330 104 290 395 834 487 910 41 34
104 158 201 391 112 271 98 893 -28 1176 -51 116 -119 136 -71 21z"/>
<path d="M4095 3450 c25 -18 41 -39 36 -48 -5 -8 18 -11 50 -6 63 9 83 55 24
56 -19 0 -62 7 -95 15 -60 15 -60 15 -15 -17z"/>
<path d="M3660 3427 c0 -10 7 -27 15 -39 20 -29 105 -74 104 -54 -2 22 -119
113 -119 93z"/>
<path d="M4240 3383 c-28 -7 -50 -25 -50 -40 0 -36 68 -83 102 -69 15 5 28 2
28 -7 0 -10 20 -30 45 -45 41 -26 42 -25 18 4 -15 19 -21 50 -13 75 13 39 10
40 -31 19 -25 -14 -38 -15 -31 -3 7 11 3 26 -8 33 -11 7 -15 21 -9 31 6 11 9
18 5 17 -3 -2 -29 -8 -56 -15z"/>
<path d="M3670 3300 c-7 -11 -3 -20 9 -20 11 0 21 -13 21 -29 0 -16 9 -34 20
-41 11 -7 15 1 8 17 -6 16 0 35 13 43 17 11 16 19 -4 32 -36 23 -52 22 -67 -2z"/>
<path d="M3889 3009 c37 -28 37 -30 2 -56 -31 -23 -32 -26 -4 -26 18 0 49 18
68 40 19 22 24 33 10 25 -16 -9 -25 -3 -25 17 0 19 -17 31 -45 30 -44 0 -44
-1 -6 -30z"/>
<path d="M4004 2989 c6 -5 31 -14 56 -19 24 -5 56 -24 69 -42 13 -18 37 -28
53 -22 20 8 18 11 -8 12 -20 1 -31 11 -24 22 7 11 -11 29 -40 40 -56 21 -124
27 -106 9z"/>
<path d="M4349 2966 c6 -47 35 -52 82 -15 38 30 38 31 -9 18 -32 -9 -43 -6
-33 9 7 12 0 22 -16 22 -16 0 -27 -15 -24 -34z"/>
<path d="M2480 2790 c-14 -17 -20 -30 -13 -30 7 0 3 -24 -8 -52 -16 -43 -14
-51 10 -41 19 7 25 1 18 -18 -6 -16 -26 -29 -44 -30 -30 0 -29 -3 2 -27 19
-14 35 -39 35 -54 -1 -23 -4 -22 -19 2 -14 22 -18 15 -13 -27 3 -31 14 -63 24
-70 10 -7 21 -40 24 -73 4 -33 21 -127 38 -210 18 -82 31 -174 30 -203 -1 -30
11 -65 27 -78 19 -16 29 -63 30 -136 0 -65 12 -129 28 -150 29 -38 20 -101
-11 -82 -10 6 -18 2 -18 -10 0 -11 9 -21 19 -21 11 0 14 -16 7 -35 -14 -36 42
-5 77 43 20 27 1 267 -33 422 -17 77 -35 160 -39 184 -4 24 -12 51 -17 60 -5
9 -15 57 -22 106 -7 50 -16 109 -21 133 -4 24 -14 87 -21 140 -8 53 -18 120
-24 147 -5 28 -9 66 -9 85 1 48 -28 60 -57 25z"/>
<path d="M3480 2799 c0 -12 10 -40 22 -62 19 -37 17 -39 -25 -27 -46 14 -46
13 -7 -17 22 -18 54 -31 70 -31 17 1 20 5 7 10 -13 6 -19 38 -13 79 7 53 2 69
-22 69 -18 0 -32 -10 -32 -21z"/>
<path d="M4120 2750 c14 -16 17 -30 8 -30 -9 0 4 -15 30 -33 39 -27 49 -28 64
-5 22 35 23 63 2 50 -9 -5 -42 3 -73 19 -50 26 -53 26 -31 -1z"/>
<path d="M7052 2554 c47 -95 60 -108 96 -96 23 9 91 18 152 20 60 3 124 14
143 24 19 10 49 18 66 18 18 0 65 14 105 30 96 41 65 75 -44 48 -44 -11 -134
-24 -200 -29 -66 -5 -144 -12 -174 -16 -37 -5 -76 11 -126 52 l-72 59 54 -110z"/>
<path d="M5005 2585 c-14 -4 -25 -21 -25 -37 0 -22 9 -25 35 -11 19 9 45 14
57 10 12 -5 33 5 46 21 25 30 -46 40 -113 17z"/>
<path d="M1699 2530 c-29 -15 -114 -41 -190 -59 -229 -51 -234 -53 -226 -61 5
-4 84 9 178 29 172 38 213 36 159 -6 -17 -12 -32 -48 -34 -79 -4 -56 -3 -55
48 20 28 42 68 101 90 131 44 63 44 63 -25 25z"/>
<path d="M4063 2430 c-29 -16 -38 -31 -24 -39 12 -8 16 -23 9 -34 -7 -12 2
-18 23 -14 23 5 36 26 38 62 1 30 2 54 2 53 -1 -1 -22 -14 -48 -28z"/>
<path d="M4533 2390 c6 -16 2 -30 -9 -30 -11 0 -24 10 -28 22 -4 12 -23 3 -43
-19 -36 -40 -36 -40 25 -39 66 2 114 41 93 75 -20 32 -51 25 -38 -9z"/>
<path d="M1427 2371 c-46 -14 -109 -44 -140 -66 -97 -69 -289 -166 -306 -156
-9 6 -21 -12 -26 -40 -5 -27 -2 -55 8 -61 9 -6 18 10 19 36 2 45 2 45 18 -4 9
-27 17 -39 18 -26 4 54 81 71 101 22 18 -44 19 -43 21 14 2 47 6 52 18 23 13
-34 21 -30 83 35 38 41 125 110 194 155 163 107 161 121 -8 68z"/>
<path d="M8489 2301 c-44 -33 -86 -60 -94 -60 -8 -1 -32 -17 -52 -36 -20 -19
-54 -49 -75 -67 -107 -91 -248 -309 -248 -384 0 -22 -6 -35 -12 -28 -31 31
-198 -233 -173 -274 6 -11 -3 -13 -22 -6 -26 10 -33 0 -33 -50 0 -73 40 -44
100 72 17 32 53 83 81 113 28 30 47 64 43 77 -4 12 2 22 14 22 12 0 22 14 22
30 0 17 7 30 15 30 9 0 24 17 35 38 11 21 37 71 58 111 42 82 242 281 325 324
83 43 161 147 111 147 -9 0 -52 -27 -95 -59z"/>
<path d="M1500 2215 c-77 -72 -92 -107 -61 -144 11 -14 15 -31 7 -38 -7 -7 -2
-13 11 -13 13 0 23 9 23 20 0 17 60 159 94 225 15 28 -4 15 -74 -50z"/>
<path d="M8480 2019 c0 -12 -8 -16 -19 -10 -10 6 -24 -7 -31 -29 -7 -22 -23
-40 -35 -40 -12 0 -16 -6 -9 -13 8 -7 3 -26 -9 -41 -12 -15 -17 -33 -9 -40 7
-8 25 4 40 25 16 22 47 61 70 87 46 52 54 82 22 82 -11 0 -20 -10 -20 -21z"/>
<path d="M3473 1987 c-23 -24 -14 -67 15 -67 16 0 32 -11 37 -25 5 -14 9 4 10
40 2 61 -28 86 -62 52z"/>
<path d="M4760 1950 c-16 -19 -17 -30 -4 -30 12 0 27 9 35 21 7 11 27 16 46
10 18 -5 47 -1 63 9 22 14 11 19 -43 20 -40 0 -83 -13 -97 -30z"/>
<path d="M4680 1920 c25 -17 25 -23 3 -38 -22 -14 -22 -19 -2 -26 15 -5 20
-19 11 -34 -9 -13 -28 -20 -43 -14 -15 6 -32 4 -37 -5 -5 -8 13 -16 39 -19 30
-2 58 12 74 36 13 22 39 40 57 40 18 0 45 16 60 35 22 30 22 31 -2 10 -39 -34
-113 -31 -127 5 -7 17 -23 30 -37 30 -18 -1 -17 -7 4 -20z"/>
<path d="M4134 1887 c8 -22 0 -24 -42 -8 -33 13 -52 13 -52 1 0 -11 14 -20 31
-20 18 0 25 -10 18 -22 -12 -20 8 -20 146 1 3 1 5 9 5 19 0 10 -20 14 -45 8
-32 -7 -37 -4 -18 9 21 15 18 22 -14 30 -29 7 -37 3 -29 -18z"/>
<path d="M2017 1885 c-12 -66 -10 -145 4 -145 9 0 15 36 14 80 -3 74 -11 102
-18 65z"/>
<path d="M8900 1885 c0 -14 -10 -23 -23 -20 -12 3 -43 -42 -69 -100 -35 -79
-40 -105 -20 -105 32 0 73 46 80 88 2 17 19 46 37 66 23 25 27 46 14 66 -12
20 -18 22 -19 5z"/>
<path d="M3470 1825 c-45 -33 -32 -95 20 -98 56 -3 67 22 18 41 -18 7 -27 25
-21 42 13 34 11 35 -17 15z"/>
<path d="M7332 1745 c8 -30 25 -77 40 -105 38 -71 37 0 -1 91 -35 83 -57 91
-39 14z"/>
<path d="M8447 1711 c6 -17 -4 -39 -23 -50 -21 -12 -24 -20 -8 -20 19 -1 20
-11 5 -38 -11 -21 -16 -42 -11 -46 5 -5 -9 -66 -30 -136 -21 -70 -37 -132 -37
-139 1 -7 0 -16 -2 -22 -5 -12 -12 -58 -29 -180 -7 -49 -18 -115 -24 -145 -6
-30 -3 -55 8 -55 10 0 28 52 39 115 20 109 81 371 132 565 26 99 21 180 -11
180 -11 0 -15 -13 -9 -29z"/>
<path d="M1 1705 c0 -14 36 -113 81 -220 144 -342 201 -527 173 -561 -25 -30
-23 -122 3 -149 8 -9 12 23 9 70 -8 112 24 59 44 -73 13 -85 10 -97 -17 -86
-22 8 -29 3 -21 -17 6 -16 17 -25 24 -21 7 5 14 -20 15 -55 4 -96 20 -204 35
-229 8 -12 19 -56 24 -98 21 -151 26 -177 40 -221 31 -100 41 -16 16 139 -15
91 -36 243 -47 336 -39 319 -44 347 -90 500 -2 6 -11 36 -20 69 -9 32 -28 81
-43 110 -15 28 -27 58 -27 67 0 9 -23 68 -52 130 -29 63 -63 141 -77 174 -52
128 -68 159 -70 135z"/>
<path d="M1378 1710 c-2 -5 -5 -19 -8 -30 -3 -11 -6 -34 -7 -51 -2 -18 -13
-25 -26 -17 -16 10 -16 3 -1 -24 14 -26 14 -49 -2 -77 -12 -23 -25 -59 -29
-80 -3 -22 -16 -45 -28 -53 -12 -7 -16 -23 -9 -34 7 -12 4 -27 -8 -34 -11 -7
-20 -34 -20 -61 0 -27 -11 -49 -25 -49 -17 -1 -15 -7 5 -20 23 -15 24 -19 3
-20 -15 0 -22 -13 -17 -28 6 -15 5 -34 -2 -42 -8 -7 -14 -57 -15 -111 -1 -135
73 -180 235 -141 58 14 183 30 276 35 174 8 345 33 570 81 125 27 341 21 335
-9 -10 -52 29 -22 61 46 45 94 -3 175 -54 92 -19 -31 -259 -82 -532 -114 -148
-17 -315 -40 -370 -50 -528 -96 -534 -90 -384 444 93 328 99 357 74 357 -11 0
-21 -4 -22 -10z"/>
<path d="M4905 1698 c-57 -21 -59 -38 -3 -23 23 6 48 1 56 -11 17 -28 96 -9
110 27 8 22 1 23 -40 4 -36 -16 -55 -16 -64 -1 -9 13 -31 15 -59 4z"/>
<path d="M1453 1567 c-25 -26 -13 -67 20 -67 19 0 28 6 21 13 -8 7 -4 25 9 40
23 29 -22 41 -50 14z"/>
<path d="M2329 1442 c-4 -4 -64 -24 -133 -45 -119 -35 -121 -36 -41 -31 47 3
85 0 85 -7 0 -29 -108 -101 -166 -111 -49 -9 -57 -6 -34 10 25 18 23 21 -12
22 -32 0 -46 -16 -56 -63 -17 -85 -9 -87 78 -28 42 28 91 51 110 51 54 0 142
92 128 134 -7 21 -5 28 5 16 25 -29 107 -37 107 -10 0 14 16 18 40 10 22 -7
40 -4 40 6 0 10 16 19 35 19 82 -1 107 6 94 26 -11 19 -261 20 -280 1z"/>
<path d="M7420 1418 c-22 -28 -91 -49 -260 -78 l-230 -39 160 10 c194 11 271
25 304 53 19 15 26 14 26 -3 0 -15 11 -13 31 7 19 19 25 42 15 59 -13 23 -21
22 -46 -9z"/>
<path d="M6800 1300 l-90 -14 105 -3 c59 -2 105 6 105 17 0 11 -7 19 -15 17
-8 -2 -55 -9 -105 -17z"/>
<path d="M4102 1256 c-3 -41 9 -49 103 -66 50 -10 75 -7 75 8 0 12 -16 20 -35
19 -81 -7 -123 5 -131 38 -8 32 -10 32 -12 1z"/>
<path d="M6290 1249 l-180 -26 198 11 c200 11 383 44 232 41 -38 0 -151 -12
-250 -26z"/>
<path d="M5934 1205 c-5 -8 4 -42 20 -75 20 -43 25 -47 19 -15 -7 34 4 53 44
75 l53 28 -64 1 c-35 1 -67 -6 -72 -14z"/>
<path d="M1538 1158 c-43 -43 -39 -70 8 -52 25 9 63 94 42 94 -4 0 -27 -19
-50 -42z"/>
<path d="M4464 1128 c-59 -26 -73 -68 -22 -68 11 0 15 9 8 20 -7 11 1 20 16
20 16 0 40 14 54 30 29 35 29 35 -56 -2z"/>
<path d="M5976 965 c10 -164 18 -180 21 -40 2 74 -4 135 -12 135 -8 0 -13 -43
-9 -95z"/>
<path d="M2601 875 c-3 -8 -7 -24 -8 -36 -2 -11 -16 -29 -33 -39 -23 -15 -24
-19 -3 -20 16 0 22 -12 16 -30 -7 -17 -1 -28 13 -25 13 3 21 -11 18 -30 -4
-24 4 -31 25 -23 21 8 31 1 31 -22 0 -21 11 -30 28 -23 16 6 48 -6 72 -27 35
-30 54 -34 95 -18 99 37 212 -8 250 -101 17 -42 23 -44 30 -16 10 43 90 47
131 6 18 -18 63 -28 114 -26 74 3 93 -5 138 -60 45 -53 56 -58 73 -32 17 27
34 23 134 -28 62 -33 107 -67 99 -77 -8 -9 1 -5 19 9 23 17 38 18 46 4 8 -12
24 -21 37 -21 62 0 -347 215 -487 256 -38 11 -159 49 -269 84 -110 35 -267 81
-348 102 -175 45 -197 61 -208 144 -4 35 -10 57 -13 49z"/>
<path d="M8280 790 c0 -38 0 -74 0 -80 0 -5 -16 -23 -35 -40 -31 -26 -31 -32
-5 -49 17 -11 20 -21 8 -21 -15 0 -23 -55 -23 -155 -1 -153 27 -126 33 31 1
44 10 62 25 52 16 -10 19 3 8 44 -8 32 -23 63 -34 70 -12 7 -7 18 11 25 18 6
32 31 32 54 0 25 9 36 22 28 15 -10 16 -3 3 24 -11 20 -16 48 -11 62 5 14 0
25 -12 25 -12 0 -22 -31 -22 -70z"/>
<path d="M878 676 c-6 -193 -10 -248 -21 -266 -6 -11 -14 -96 -16 -189 -2 -93
-8 -176 -13 -184 -5 -8 0 -20 12 -27 12 -7 21 13 23 49 1 33 4 68 6 76 25 97
48 585 27 597 -9 6 -17 -19 -18 -56z"/>
<path d="M1300 690 c-15 -28 -39 -50 -53 -50 -15 0 -25 -7 -22 -15 9 -30 -73
-142 -110 -152 -25 -7 -33 -19 -24 -35 11 -17 5 -21 -19 -12 -21 8 -29 6 -21
-7 14 -24 92 -4 114 29 8 12 15 15 15 7 0 -23 80 62 80 85 0 11 10 20 22 20
12 0 17 14 10 31 -6 17 -4 26 6 20 16 -10 50 107 36 122 -4 4 -19 -16 -34 -43z"/>
<path d="M5640 642 c-82 -31 -211 -79 -285 -107 -151 -56 -275 -132 -275 -169
0 -14 13 -20 30 -13 20 7 30 -1 30 -24 0 -34 119 81 120 116 0 8 14 15 30 15
17 0 30 10 30 21 0 12 8 16 18 10 10 -6 22 -1 26 11 4 13 32 23 62 23 30 0 54
10 54 23 0 12 9 9 20 -8 17 -26 19 -25 20 5 0 20 15 35 36 35 20 0 74 18 119
40 46 22 99 40 119 40 20 0 50 9 66 20 63 41 -71 18 -220 -38z"/>
<path d="M1731 539 c7 -11 -2 -43 -19 -69 -18 -27 -31 -74 -29 -104 2 -54 3
-54 11 -6 5 28 20 59 33 70 31 25 40 130 12 130 -12 0 -16 -9 -8 -21z"/>
</g>
</svg>
