<?xml version="1.0" standalone="no"?>
<!DOCTYPE svg PUBLIC "-//W3C//DTD SVG 20010904//EN"
 "http://www.w3.org/TR/2001/REC-SVG-20010904/DTD/svg10.dtd">
<svg version="1.0" xmlns="http://www.w3.org/2000/svg"
 width="450.000000pt" height="600.000000pt" viewBox="0 0 450.000000 600.000000"
 preserveAspectRatio="xMidYMid meet">
<metadata>
Created by potrace 1.10, written by Peter Selinger 2001-2011
</metadata>
<g transform="translate(0.000000,600.000000) scale(0.050000,-0.050000)"
fill="#000000" stroke="none">
<path d="M4914 11304 c13 -8 -9 -15 -50 -16 -102 -1 -386 -88 -370 -114 7 -11
2 -14 -10 -6 -45 28 -271 -98 -367 -204 -90 -101 -285 -446 -266 -471 5 -7 3
-9 -4 -3 -30 22 -185 -282 -257 -505 -36 -112 -69 -177 -104 -205 -31 -24 -40
-41 -24 -41 16 -1 7 -10 -19 -20 -26 -11 -54 -15 -62 -10 -21 13 -88 -63 -135
-151 -49 -93 -47 -606 3 -768 43 -141 45 -138 -102 -231 -162 -102 -185 -103
-336 -11 -212 128 -322 109 -790 -137 -329 -173 -508 -336 -712 -651 -258
-398 -262 -409 -782 -2010 -85 -264 -157 -484 -159 -490 -2 -5 -10 -30 -18
-54 -8 -25 -54 -142 -104 -260 -49 -119 -124 -303 -168 -409 l-79 -194 6 -436
5 -437 36 220 c41 248 196 725 324 1003 90 193 238 621 570 1647 285 881 284
881 456 1168 233 391 375 527 745 719 394 203 471 217 606 108 45 -37 117 -88
159 -113 l75 -46 72 57 c132 105 296 205 357 219 110 24 118 105 32 328 -108
279 -132 645 -51 768 34 53 41 55 152 42 l117 -14 0 76 c0 91 70 349 122 452
21 41 38 91 38 111 0 21 26 73 57 116 32 43 96 151 143 239 46 88 109 187 140
220 30 33 65 80 78 104 14 28 61 54 136 76 63 19 147 50 186 70 39 20 129 47
200 60 72 13 150 33 174 45 32 15 80 14 170 -3 69 -13 189 -31 266 -40 77 -8
158 -25 180 -37 22 -13 117 -59 210 -104 324 -156 336 -164 545 -403 180 -204
359 -484 393 -613 51 -193 70 -370 47 -448 -11 -37 -31 -121 -45 -187 -51
-252 -83 -219 -40 40 34 201 41 310 20 310 -11 0 -20 -16 -21 -35 -1 -48 -52
-112 -77 -96 -13 8 -17 54 -12 114 9 90 6 100 -25 87 -63 -26 -117 -35 -89
-15 14 10 20 33 13 52 -15 38 -42 43 -54 9 -4 -13 -18 -16 -33 -7 -19 11 -15
24 16 53 49 46 82 49 82 8 0 -16 13 -30 28 -30 16 0 34 -11 40 -25 7 -14 9 4
5 40 -3 36 2 65 12 65 10 0 4 14 -12 30 -17 17 -50 30 -74 30 -36 0 -41 8 -31
49 10 40 5 48 -28 46 -30 -3 -37 -13 -28 -41 14 -46 -70 -29 -98 19 -9 15 -27
21 -39 14 -63 -39 -119 -26 -106 24 15 61 -28 67 -65 9 -19 -31 -37 -38 -79
-28 -75 18 -99 44 -57 60 19 7 45 3 57 -9 39 -39 55 -25 48 41 -6 49 -17 64
-45 62 -70 -4 -128 -31 -128 -58 0 -43 -31 -33 -56 17 -20 43 -21 42 -23 -19
0 -39 12 -71 31 -82 44 -24 18 -104 -33 -104 -25 0 -34 10 -26 30 6 17 19 30
29 30 47 0 10 40 -57 62 -41 13 -64 28 -50 33 14 5 20 17 13 28 -7 12 -22 10
-39 -4 -24 -19 -21 -30 16 -62 l45 -39 -50 13 c-67 18 -88 40 -68 72 9 15 14
43 11 62 -4 24 8 35 36 35 23 0 47 14 54 30 6 17 20 30 32 30 11 0 9 -13 -5
-30 -20 -24 -19 -30 5 -30 44 0 59 76 18 87 -23 6 -20 9 11 11 27 1 48 -13 56
-39 13 -40 67 -46 93 -10 8 11 28 7 48 -10 31 -26 33 -24 21 15 -8 26 -3 53
14 69 24 22 20 30 -21 51 -59 31 -92 34 -76 7 7 -10 -6 -29 -28 -41 -54 -28
-54 5 -2 79 42 59 36 81 -20 81 -25 0 -32 -11 -25 -40 13 -49 -10 -52 -47 -5
-22 28 -27 29 -25 5 6 -67 -2 -84 -37 -71 -28 11 -30 8 -10 -12 34 -34 32 -57
-5 -57 -16 0 -30 9 -30 20 0 11 -17 20 -38 20 -21 0 -59 18 -85 39 l-47 39 50
-11 c33 -7 42 -4 24 8 -14 10 -20 33 -13 52 18 45 -43 44 -69 -2 -18 -30 -21
-27 -21 21 -1 49 5 55 42 43 45 -14 40 7 -19 76 -37 43 -64 45 -64 6 0 -18 12
-25 30 -18 42 16 38 -27 -5 -51 -32 -19 -33 -24 -3 -77 27 -49 28 -63 4 -99
-23 -35 -24 -45 -2 -57 14 -9 19 -8 11 1 -30 34 26 71 72 46 76 -40 102 -76
56 -76 -23 0 -46 9 -53 20 -19 30 -50 4 -50 -42 0 -27 -11 -39 -35 -35 -19 3
-47 -2 -62 -11 -21 -13 -24 -7 -14 25 11 33 7 40 -17 31 -38 -15 -77 8 -60 36
8 13 19 11 30 -7 12 -18 17 -19 18 -3 0 13 -8 29 -18 35 -24 15 -84 -9 -72
-29 5 -8 -8 -20 -29 -25 -27 -7 -35 -2 -27 17 5 16 16 28 23 29 32 1 86 59 73
79 -10 16 -21 16 -42 -1 -22 -19 -28 -17 -28 9 0 23 -19 32 -71 32 -64 0 -70
5 -58 43 12 37 7 41 -35 33 -69 -13 -110 35 -56 68 51 32 51 49 -1 62 -33 9
-38 3 -28 -28 8 -25 2 -38 -18 -38 -16 0 -34 -13 -40 -30 -6 -16 -24 -24 -40
-18 -16 6 -35 1 -42 -11 -8 -12 2 -21 23 -21 62 -1 91 -31 76 -79 -13 -43
-207 -50 -272 -10 -9 6 -22 -12 -29 -40 -7 -27 -23 -48 -36 -45 -13 2 -22 -12
-20 -31 1 -19 -5 -35 -15 -35 -57 0 -6 -32 53 -34 89 -3 92 -5 70 -77 -10 -32
-18 -44 -19 -26 -2 40 -62 96 -62 57 0 -15 -18 -21 -48 -15 -34 6 -45 1 -38
-17 7 -20 -9 -23 -67 -15 -54 7 -69 4 -49 -9 16 -11 40 -16 55 -10 20 7 27
-10 27 -63 0 -40 -7 -69 -15 -65 -8 5 -33 2 -55 -7 -38 -16 -38 -17 7 -31 26
-7 37 -19 25 -27 -24 -15 8 -161 36 -161 21 0 62 92 62 141 0 44 39 52 76 15
34 -34 30 8 -5 55 -35 45 -40 89 -11 89 11 0 20 -14 20 -31 0 -46 55 -57 94
-18 22 22 33 58 29 96 -6 55 -4 58 27 33 30 -25 38 -23 67 15 38 48 171 81
192 47 7 -12 33 -22 58 -22 27 0 81 -37 133 -90 49 -49 98 -90 109 -90 12 -1
44 -18 71 -40 28 -22 70 -39 95 -40 25 0 45 -9 45 -20 0 -11 40 -41 88 -65
271 -138 335 -173 357 -189 14 -10 66 -31 115 -46 50 -15 99 -32 110 -38 53
-29 226 -81 273 -81 70 -1 97 -78 97 -275 0 -96 7 -144 20 -136 23 14 -45
-172 -136 -372 -32 -72 -66 -177 -73 -234 -10 -68 -37 -134 -83 -198 -37 -53
-73 -127 -79 -166 -42 -256 -262 -592 -456 -693 -69 -37 -80 -28 -54 41 31 81
30 121 -11 407 -7 47 -20 90 -30 96 -25 16 -23 149 2 149 11 0 20 15 20 33 0
30 4 29 40 -3 26 -23 36 -51 29 -74 -7 -21 -1 -51 12 -67 27 -33 99 -40 99 -9
0 10 26 14 57 8 48 -10 65 -2 100 48 l42 59 -116 23 c-163 32 -253 99 -211
159 41 59 59 54 81 -22 23 -81 89 -96 168 -38 50 38 151 2 111 -39 -5 -5 13
-19 40 -32 52 -24 53 -17 12 92 -7 18 -2 23 13 14 12 -8 23 -7 23 2 -1 53
-153 157 -238 163 -110 7 -139 35 -50 49 42 7 81 5 87 -4 12 -18 122 -56 205
-70 89 -15 133 72 63 127 -46 36 -248 61 -353 43 -9 -1 -38 -4 -65 -7 -27 -2
-49 -15 -49 -29 0 -14 -8 -26 -18 -26 -9 0 -22 -17 -27 -37 -6 -22 -36 -42
-76 -50 -81 -16 -92 -7 -63 57 20 42 16 57 -27 103 -31 34 -45 67 -38 90 6 20
2 38 -10 40 -11 1 -32 3 -46 5 -14 1 -25 11 -26 22 -3 63 -33 105 -68 96 -24
-6 -41 3 -49 28 -7 21 -54 55 -104 76 -51 21 -116 56 -144 78 -61 48 -104 57
-137 29 -14 -11 -61 -18 -105 -14 -44 3 -85 0 -92 -6 -11 -11 285 -137 321
-137 32 0 209 -129 209 -153 0 -12 14 -28 30 -34 17 -7 39 -35 50 -62 10 -28
35 -51 55 -51 30 -1 31 -4 5 -22 -20 -14 -23 -24 -7 -30 12 -6 18 -27 13 -49
-8 -29 0 -39 29 -39 52 0 97 -70 111 -170 6 -44 20 -120 30 -169 16 -69 13
-102 -11 -154 -28 -57 -28 -80 -5 -178 24 -100 24 -119 -7 -176 -21 -39 -30
-86 -23 -123 17 -93 -15 -181 -64 -174 -28 4 -45 -8 -54 -40 -12 -45 -13 -45
-35 -6 -39 70 -123 150 -158 150 -19 0 -69 14 -111 32 -56 24 -109 29 -197 20
-67 -7 -193 -18 -281 -25 -164 -12 -251 -54 -202 -98 28 -24 95 -30 81 -7 -17
26 107 -2 239 -55 66 -26 129 -47 141 -47 12 0 57 -17 99 -39 42 -21 104 -44
139 -51 146 -30 159 -42 101 -99 -22 -22 -40 -26 -56 -13 -13 11 -43 15 -66 9
-23 -6 -48 -1 -55 11 -7 12 -35 22 -61 22 -130 0 -154 -82 -35 -122 41 -13 64
-28 50 -33 -34 -11 -221 53 -271 93 -22 17 -57 48 -77 67 -45 43 -77 45 -77 5
0 -16 14 -30 32 -30 24 0 29 -12 20 -49 -7 -27 -3 -54 8 -61 32 -20 23 -56
-10 -43 -16 7 -30 2 -30 -10 0 -12 -24 -44 -52 -71 -51 -47 -51 -49 -12 -59
33 -9 38 -20 26 -54 -9 -24 -12 -54 -7 -68 4 -14 -2 -25 -15 -25 -12 0 -17 -9
-10 -20 7 -11 3 -20 -9 -20 -11 0 -21 9 -21 20 0 11 -49 42 -109 69 -152 67
-254 183 -451 512 -93 156 -190 316 -214 356 -82 137 -146 271 -146 307 0 20
-17 53 -38 74 -21 21 -34 43 -29 48 5 6 14 57 19 115 6 58 20 123 31 144 34
65 115 424 99 441 -37 37 -123 -68 -111 -135 11 -56 6 -67 -31 -77 -28 -7 -39
-20 -29 -36 9 -14 7 -19 -5 -12 -11 7 -37 -5 -56 -26 -20 -22 -61 -40 -92 -40
-112 0 -144 -92 -87 -250 15 -44 29 -133 29 -199 0 -299 128 -566 477 -995
321 -397 815 -871 859 -827 6 7 1 68 -12 136 -21 111 -31 256 -26 360 2 26 19
35 70 35 99 0 204 51 310 150 52 48 139 107 193 130 72 31 155 100 303 252
232 239 207 232 451 119 89 -42 136 -82 209 -177 51 -68 126 -160 166 -205 89
-98 162 -249 262 -539 72 -210 81 -224 192 -320 212 -181 307 -295 452 -539
195 -329 420 -634 767 -1043 48 -56 87 -122 87 -146 0 -24 114 -207 254 -407
218 -312 264 -391 320 -555 105 -303 87 -572 -40 -629 -85 -37 -194 -138 -194
-179 0 -17 -12 -32 -27 -32 -16 0 -28 -21 -28 -48 0 -31 -27 -72 -72 -112 -40
-35 -73 -77 -73 -93 0 -15 -13 -33 -30 -40 -16 -6 -30 -24 -30 -39 0 -15 -9
-28 -20 -28 -12 0 -29 -20 -39 -45 -19 -48 -96 -149 -187 -242 -31 -32 -52
-71 -46 -86 7 -17 -4 -27 -31 -27 -38 0 -156 -109 -157 -145 0 -8 -10 -15 -22
-15 -17 0 -17 7 0 27 12 16 17 44 9 64 -9 22 -6 31 7 23 22 -14 93 56 112 110
7 19 4 40 -7 47 -10 6 -19 -3 -19 -20 0 -18 -16 -37 -35 -43 -83 -27 -121 -55
-111 -81 7 -17 -4 -27 -32 -27 -23 0 -42 -9 -42 -19 0 -35 -123 -88 -140 -61
-15 25 -100 10 -100 -17 0 -7 24 -31 54 -53 353 -260 454 -376 636 -725 48
-91 112 -152 84 -79 -5 15 7 38 28 51 42 26 50 83 15 118 -12 12 -17 37 -10
54 20 53 15 60 -47 63 -46 3 -60 -5 -60 -34 0 -25 14 -38 41 -38 38 0 39 -3
10 -32 -50 -50 -81 -24 -74 61 4 51 -1 71 -15 62 -12 -7 -22 -3 -22 9 0 12
-11 16 -25 8 -14 -8 -7 6 15 31 22 25 61 54 88 64 26 10 43 23 37 29 -6 6 -39
-3 -72 -21 -83 -43 -135 -39 -171 12 -41 59 118 136 348 168 39 6 156 23 260
39 234 35 327 31 336 -15 6 -31 12 -30 63 8 88 64 140 -2 73 -93 -15 -21 -23
-50 -18 -64 6 -14 -4 -31 -22 -38 -18 -7 -32 -21 -32 -31 0 -10 -9 -30 -20
-43 -45 -54 -160 -234 -160 -250 0 -10 -18 -34 -40 -54 -66 -59 -52 9 42 207
121 255 124 272 56 277 -40 3 -55 -5 -55 -30 0 -19 -19 -86 -42 -150 -23 -64
-55 -186 -70 -270 -15 -85 -38 -181 -51 -214 l-23 -60 -29 69 c-16 38 -25 80
-19 95 5 14 3 27 -5 28 -8 1 -39 5 -71 11 -54 8 -64 -55 -14 -93 29 -22 64
-186 43 -199 -65 -40 -162 2 -162 71 0 37 -8 68 -19 68 -10 0 -24 17 -30 37
-11 36 -71 52 -71 20 0 -78 309 -637 352 -637 26 0 48 9 48 20 0 11 19 20 43
20 40 0 41 3 12 35 -17 19 -35 53 -40 75 -8 36 -11 34 -31 -15 -15 -34 -33
-50 -51 -43 -48 18 -54 90 -12 149 38 54 38 55 -3 65 -69 18 -12 87 128 152
68 32 151 82 184 112 143 126 226 190 247 190 13 0 23 28 23 61 l0 62 -65 -45
c-36 -25 -123 -96 -195 -158 -146 -127 -180 -150 -180 -125 0 21 257 311 289
325 78 36 151 112 151 158 0 46 -16 35 -142 -98 -168 -176 -145 -96 41 147
112 146 138 272 66 311 -148 79 -608 35 -1070 -102 -74 -22 -146 -35 -160 -29
-15 6 -8 15 20 24 25 8 45 21 45 31 0 9 13 12 28 6 15 -6 34 -1 41 11 8 12 22
16 32 10 11 -6 19 -3 19 8 0 11 -11 24 -25 30 -19 7 -18 15 5 31 33 23 -44 19
-102 -6 -17 -8 -53 -6 -80 4 -26 10 -59 14 -73 9 -37 -12 -31 49 6 63 18 6 26
3 19 -8 -7 -11 10 -20 39 -20 28 0 51 9 51 20 0 11 18 20 40 20 22 0 40 7 40
17 0 9 23 28 50 43 28 15 50 36 50 48 0 21 118 153 345 389 52 54 95 106 95
114 0 8 16 26 35 40 32 24 30 28 -22 48 l-57 22 63 74 c35 41 113 144 174 228
l110 153 159 36 158 36 0 101 c0 80 -9 107 -40 126 -28 18 -40 47 -40 98 0
205 -141 519 -404 897 -99 143 -197 303 -218 355 -55 139 -108 216 -398 578
-144 180 -331 440 -415 577 -209 341 -275 428 -449 591 -164 153 -186 187
-285 448 -120 313 -320 613 -558 840 -90 85 -90 97 -3 218 89 125 181 322 219
473 16 66 52 165 80 220 402 803 491 1457 263 1920 -295 598 -817 1002 -1421
1099 -198 32 -459 42 -417 15z m-162 -932 c6 -16 27 -23 49 -17 44 11 54 -25
11 -41 -30 -12 -112 37 -112 67 0 29 40 22 52 -9z m819 -101 c30 -30 41 -171
13 -171 -55 0 -87 55 -73 126 15 83 20 86 60 45z m547 -283 c121 -8 170 -56
93 -91 -49 -22 -59 -21 -83 13 -25 33 -28 34 -28 4 0 -19 9 -34 20 -34 28 0
25 -54 -3 -72 -15 -9 -20 -4 -13 14 6 15 -1 40 -17 54 -22 21 -27 20 -27 -5 0
-35 -31 -41 -50 -11 -7 12 -22 15 -34 7 -12 -7 -38 9 -59 35 -21 26 -32 33
-26 15 12 -35 -21 -70 -39 -41 -18 30 11 102 38 91 14 -5 32 0 39 12 7 11 -1
21 -18 21 -17 0 -31 13 -31 29 0 25 11 24 75 -3 41 -18 115 -35 163 -38z m195
-198 c-18 -14 -33 -36 -33 -50 0 -20 -6 -20 -31 1 -17 14 -26 37 -21 52 6 15
-2 27 -19 27 -16 0 -29 9 -29 20 0 11 18 20 40 20 22 0 40 9 40 20 0 11 19 1
43 -23 39 -39 40 -45 10 -67z m-2851 -1596 c-6 -89 -32 -154 -61 -154 -9 0
-12 36 -6 80 6 49 1 91 -15 110 -20 25 -17 33 23 47 62 24 66 17 59 -83z m238
-741 c0 -15 18 -43 40 -63 22 -20 36 -40 31 -45 -5 -5 12 -32 37 -59 33 -35
43 -64 35 -102 -8 -39 -13 -44 -19 -19 -4 20 -17 29 -29 22 -12 -7 -15 -4 -8
8 7 12 -1 36 -19 54 -18 18 -28 50 -22 72 8 29 0 39 -31 39 -23 0 -36 6 -29
13 8 7 -1 24 -19 37 -18 13 -27 34 -19 47 20 31 52 29 52 -4z m1391 -34 c7
-12 32 -19 56 -17 24 2 59 -3 78 -11 40 -18 48 -60 8 -45 -14 6 -43 -11 -62
-38 -44 -57 -78 -63 -62 -10 15 46 -105 75 -211 52 -48 -11 -61 -8 -54 13 21
62 216 106 247 56z m285 -183 c7 -60 -33 -82 -82 -46 -32 23 -32 26 8 36 30 8
39 22 31 44 -9 22 -4 30 12 25 14 -4 28 -31 31 -59z"/>
<path d="M4888 10920 c0 -44 8 -80 16 -80 9 0 16 10 16 22 0 12 14 17 30 11
18 -7 30 0 30 18 0 16 8 29 18 29 10 0 23 14 30 31 9 24 4 26 -22 12 -23 -13
-47 -10 -76 9 -42 27 -43 25 -42 -52z"/>
<path d="M4660 10961 c0 -11 17 -29 39 -40 49 -26 67 -27 51 -1 -7 11 -3 20 9
20 11 0 21 9 21 20 0 11 -27 20 -60 20 -33 0 -60 -9 -60 -19z"/>
<path d="M5211 10942 c-26 -10 -31 -20 -14 -30 28 -18 103 3 103 29 0 22 -34
22 -89 1z"/>
<path d="M5571 10862 c-12 -37 -99 -37 -122 0 -17 28 -163 21 -174 -7 -7 -18
14 -23 79 -18 49 4 100 -3 112 -15 27 -27 114 -29 114 -3 0 10 13 21 28 25 23
5 24 10 1 31 -21 19 -29 17 -38 -13z"/>
<path d="M5080 10845 c1 -43 38 -68 79 -55 44 14 44 14 -9 42 -63 32 -70 34
-70 13z"/>
<path d="M4452 10806 c-14 -15 -55 -25 -127 -32 -51 -5 -59 -30 -15 -47 17 -6
30 -29 30 -50 0 -22 -9 -34 -20 -27 -11 7 -26 -1 -32 -18 -7 -17 -42 -37 -80
-44 -39 -7 -68 -24 -68 -40 0 -36 59 -35 108 2 30 22 46 24 80 5 23 -13 53
-21 67 -18 14 2 25 -3 25 -13 0 -10 23 -14 50 -9 31 6 50 0 50 -14 0 -15 15
-19 40 -11 24 8 40 4 40 -10 0 -14 12 -11 30 7 42 43 39 46 -40 37 -62 -7 -70
-3 -70 39 0 26 -7 38 -15 26 -32 -47 -85 -50 -85 -4 0 33 -5 38 -24 19 -28
-28 -76 -32 -76 -5 0 10 19 24 42 32 33 10 39 23 29 63 -11 42 -7 49 20 39 18
-7 35 -13 39 -13 3 0 2 -18 -4 -40 -8 -31 -3 -38 22 -28 17 7 32 20 32 30 0
10 18 18 40 18 27 0 40 13 40 42 0 35 -5 39 -29 19 -31 -26 -79 -10 -61 19 13
22 -20 44 -38 26z"/>
<path d="M5330 10780 c7 -99 168 -129 170 -33 0 10 -13 7 -30 -7 -27 -23 -39
-14 -32 25 1 8 -12 15 -29 15 -17 0 -26 -9 -19 -20 7 -11 2 -20 -10 -20 -14 0
-18 16 -10 40 9 27 4 40 -15 40 -16 0 -27 -18 -25 -40z"/>
<path d="M5000 10786 c-54 -6 -159 -106 -111 -106 28 0 191 86 191 101 0 10
-2 17 -5 16 -3 -2 -36 -7 -75 -11z"/>
<path d="M4782 10739 c4 -27 -1 -61 -10 -76 -11 -17 -7 -34 10 -44 15 -9 21
-22 14 -29 -6 -7 -30 6 -51 29 -26 28 -51 37 -75 28 -30 -11 -34 -6 -25 30 14
54 -8 55 -54 4 -57 -63 -26 -101 81 -101 80 0 90 -4 68 -30 -17 -21 -18 -30
-2 -30 12 0 22 -10 22 -21 0 -12 -9 -16 -20 -9 -11 7 -20 4 -20 -7 0 -10 29
-23 65 -28 36 -5 83 -16 105 -25 54 -21 12 25 -51 57 -56 29 -57 57 -2 83 24
11 43 36 43 57 0 30 -6 33 -28 14 -22 -17 -32 -17 -44 2 -8 14 -5 28 8 32 34
12 30 55 -8 87 -28 23 -31 20 -26 -23z"/>
<path d="M5274 10738 c13 -13 18 -34 13 -48 -12 -31 25 -59 42 -31 15 23 -30
101 -58 101 -10 0 -9 -10 3 -22z"/>
<path d="M5533 10747 c-19 -20 -16 -71 4 -59 27 17 76 -53 72 -101 -2 -28 6
-40 22 -34 14 5 31 0 38 -12 9 -15 27 -14 57 3 24 13 60 22 79 19 19 -3 35 4
35 15 0 11 -13 16 -30 9 -16 -6 -30 -2 -30 9 0 11 11 25 25 30 14 5 18 16 8
26 -9 10 -25 2 -35 -17 -30 -53 -138 -47 -138 8 0 36 8 40 62 30 44 -9 59 -6
53 12 -6 16 -38 23 -92 18 -65 -5 -83 0 -83 25 0 33 -23 42 -47 19z"/>
<path d="M5132 10717 c10 -16 -3 -20 -40 -13 -34 7 -51 3 -46 -12 5 -12 33
-20 63 -18 46 3 50 -1 30 -25 -39 -48 -10 -53 39 -7 42 40 43 43 8 69 -44 34
-73 37 -54 6z"/>
<path d="M5242 10586 c-1 -14 -15 -20 -30 -14 -17 6 -38 -7 -51 -30 -15 -28
-15 -42 -2 -42 12 0 21 11 21 25 1 17 7 15 19 -5 26 -40 68 1 55 53 -5 20 -10
26 -12 13z"/>
<path d="M5366 10586 c-13 -5 -19 -21 -13 -36 6 -16 -6 -29 -33 -33 l-44 -7
42 -48 c23 -26 42 -58 43 -70 0 -12 9 -6 21 13 11 19 14 45 7 57 -8 13 -6 28
5 35 26 18 1 99 -28 89z"/>
<path d="M4280 10478 c0 -12 -13 -17 -30 -11 -51 20 -33 -19 21 -44 41 -19 52
-17 62 7 6 16 20 24 30 18 11 -7 15 -25 8 -42 -7 -19 3 -34 29 -40 46 -12 55
-66 10 -66 -17 0 -30 -18 -30 -40 0 -27 -13 -40 -41 -40 -23 0 -36 -9 -29 -20
14 -23 91 -27 88 -5 -8 49 7 77 44 80 61 4 101 45 87 88 -7 21 -5 37 4 35 38
-6 67 3 67 22 0 31 -92 24 -120 -10 -30 -36 -56 -22 -81 42 -19 50 -119 71
-119 26z"/>
<path d="M6011 10462 c-6 -9 5 -30 23 -45 29 -24 32 -23 20 8 -14 37 15 49 36
15 19 -30 50 -24 50 10 0 33 -109 43 -129 12z"/>
<path d="M4117 10396 l-74 -19 29 -68 c36 -87 35 -94 -9 -66 -58 36 -119 -5
-74 -50 19 -18 27 -43 20 -55 -10 -16 -3 -16 26 -1 28 15 45 15 62 -2 17 -17
23 -12 23 21 0 26 12 44 30 44 43 0 37 35 -8 49 -46 15 -68 105 -29 119 16 6
27 -3 27 -21 0 -22 10 -27 35 -17 19 8 46 15 60 16 36 1 31 47 -7 62 -17 7
-33 11 -35 10 -1 -1 -36 -11 -76 -22z"/>
<path d="M6060 10327 c0 -20 18 -49 40 -62 33 -21 40 -20 40 2 0 19 17 24 55
17 51 -10 52 -8 21 23 -54 54 -156 67 -156 20z"/>
<path d="M4265 10286 c-79 -10 -66 -46 16 -46 39 0 59 10 59 30 0 17 -2 29 -5
27 -3 -2 -34 -7 -70 -11z"/>
<path d="M6275 10210 c7 -36 1 -50 -22 -50 -19 0 -27 11 -21 27 6 17 -6 32
-30 38 -36 10 -40 3 -33 -52 5 -35 9 -79 10 -97 1 -28 13 -33 61 -23 37 7 60
4 60 -9 0 -12 36 -3 80 20 77 42 83 96 9 96 -14 0 -44 23 -65 50 -22 28 -44
50 -49 50 -5 0 -5 -22 0 -50z"/>
<path d="M4232 10156 c6 -9 -5 -16 -23 -16 -27 0 -29 -6 -10 -29 18 -22 37
-23 82 -8 75 27 75 50 0 61 -32 5 -54 1 -49 -8z"/>
<path d="M4002 10075 c-1 -24 -19 -35 -54 -35 -46 0 -49 -4 -27 -31 20 -24 29
-26 41 -5 13 20 22 20 40 2 18 -18 30 -17 51 4 35 35 35 57 -2 43 -16 -6 -32
3 -37 23 -9 31 -10 31 -12 -1z"/>
<path d="M4343 10082 c-16 -10 -19 -30 -8 -59 l16 -44 45 41 c65 61 24 110
-53 62z"/>
<path d="M4126 9971 c29 -22 30 -28 6 -37 -32 -13 -30 -78 3 -89 13 -4 18 9
12 32 -8 27 2 43 31 52 51 16 19 61 -47 66 -38 3 -39 1 -5 -24z"/>
<path d="M4288 9931 c10 -42 7 -48 -23 -37 -31 12 -32 9 -7 -21 24 -30 24 -32
-5 -21 -18 7 -33 2 -33 -10 0 -12 -10 -22 -21 -22 -35 0 -76 -51 -91 -113 -7
-31 -21 -67 -31 -79 -11 -14 -6 -32 13 -48 16 -14 31 -44 32 -67 1 -30 5 -34
13 -13 13 35 88 92 110 85 38 -12 10 31 -32 50 -54 25 -80 114 -42 146 18 15
28 13 34 -5 4 -14 21 -27 37 -27 46 -3 158 -52 158 -69 0 -9 18 -12 40 -6 22
6 40 18 40 28 0 26 -80 62 -111 50 -36 -13 -60 25 -32 53 14 14 15 33 2 57
-20 38 9 74 31 38 7 -11 22 -20 34 -20 12 0 -2 23 -32 50 -69 64 -100 64 -84
1z"/>
<path d="M3966 9874 c11 -29 -30 -84 -48 -65 -5 5 -33 13 -63 18 -60 11 -96
-20 -46 -39 17 -7 27 -18 23 -25 -5 -7 13 -14 40 -16 26 -1 48 6 48 18 0 12
12 10 29 -4 36 -30 73 -10 58 30 -6 16 -1 29 11 29 12 0 22 -10 22 -21 0 -12
9 -16 20 -9 23 14 27 72 5 66 -8 -3 -37 7 -63 22 -42 23 -47 23 -36 -4z"/>
<path d="M3878 9674 c-25 -19 -28 -33 -10 -64 53 -95 92 -91 92 10 0 84 -23
99 -82 54z"/>
<path d="M3743 9548 c-65 -45 -44 -79 45 -71 62 5 77 -1 86 -35 14 -53 38 -54
52 -2 17 66 -52 136 -97 99 -33 -26 -35 -25 -23 6 16 43 -4 44 -63 3z"/>
<path d="M4030 9535 c-8 -31 -32 -68 -54 -83 -24 -18 -31 -33 -17 -41 33 -21
25 -47 -20 -61 -23 -7 -39 -28 -37 -47 2 -18 0 -46 -6 -63 -31 -91 -55 -178
-67 -245 -9 -50 -25 -76 -46 -77 -22 -1 -25 -5 -7 -12 16 -6 19 -18 8 -33 -47
-60 -37 -233 14 -233 48 0 82 67 82 160 0 54 9 103 20 110 11 7 20 31 20 53 0
23 23 68 50 101 28 32 50 81 50 108 0 27 14 55 32 62 23 8 29 28 20 71 -18 89
24 158 58 95 l25 -47 14 63 c8 36 30 67 52 74 51 17 50 48 -1 45 -22 -2 -40
-14 -40 -27 0 -70 -97 -30 -125 52 -7 20 -15 11 -25 -25z"/>
<path d="M3418 9471 c-12 -34 -26 -101 -32 -151 l-9 -90 60 123 c32 67 69 128
81 136 39 24 23 51 -28 46 -35 -2 -56 -21 -72 -64z"/>
<path d="M5258 9488 c-18 -23 -15 -28 20 -28 23 0 49 0 57 0 8 0 15 10 15 23
0 34 -65 38 -92 5z"/>
<path d="M5455 9436 c-94 -33 -65 -63 50 -50 58 6 91 5 75 -3 -37 -16 -40 -66
-5 -78 14 -5 25 2 25 14 0 15 9 14 28 -3 24 -22 24 -30 0 -58 -41 -46 -36 -55
47 -70 101 -18 116 -33 122 -122 5 -79 31 -124 57 -99 8 9 5 21 -6 29 -25 16
-35 164 -11 164 8 0 26 -11 39 -24 18 -18 30 -18 47 -1 17 17 31 14 55 -10 29
-30 33 -29 39 6 4 22 18 46 30 54 15 9 11 14 -11 15 -18 0 -39 17 -45 38 -7
21 -26 44 -43 50 -16 6 -25 4 -19 -6 14 -23 -46 -72 -64 -52 -8 8 -4 19 10 24
62 23 18 56 -80 62 -111 6 -165 34 -109 55 29 12 28 17 -11 49 -31 25 -57 31
-87 19 -24 -9 -51 -9 -60 0 -10 9 -43 7 -73 -3z"/>
<path d="M6107 9291 c6 -17 -3 -32 -23 -37 -25 -6 -15 -16 34 -38 40 -18 58
-36 45 -44 -13 -8 -31 -9 -42 -3 -10 6 -21 -13 -25 -44 -6 -58 -164 -85 -201
-35 -8 11 -15 -3 -15 -31 0 -47 6 -50 75 -45 56 5 65 2 35 -11 -39 -17 -39
-17 3 -31 51 -16 91 -10 112 18 8 11 15 4 15 -16 0 -20 9 -31 21 -23 11 7 33
2 49 -11 31 -25 78 -9 60 21 -7 10 11 24 39 31 51 12 63 30 38 54 -7 8 -25 4
-40 -9 -20 -16 -27 -16 -27 1 0 12 -17 22 -39 22 -50 0 -68 30 -34 58 59 48
162 14 169 -56 6 -54 12 -61 35 -41 49 40 30 118 -31 130 -46 10 -80 39 -75
66 3 21 -8 32 -30 30 -19 -1 -30 6 -24 15 6 10 -3 18 -21 18 -18 0 -27 9 -20
20 7 11 -11 20 -41 20 -38 0 -50 -8 -42 -29z"/>
<path d="M3579 9262 c-157 -31 -168 -158 -28 -326 25 -30 48 -63 52 -73 4 -10
27 -24 52 -32 69 -21 56 34 -15 66 -107 47 -102 248 6 256 50 4 76 -21 37 -36
-26 -11 -47 -117 -23 -117 12 0 26 26 33 59 6 32 24 63 39 69 36 14 36 72 0
72 -15 0 -32 18 -38 40 -6 22 -18 39 -27 38 -9 -2 -49 -9 -88 -16z"/>
<path d="M4786 9143 c-57 -18 -110 -40 -118 -48 -21 -22 47 -41 87 -25 19 8
77 13 128 11 103 -4 141 27 84 70 -45 34 -51 34 -181 -8z"/>
<path d="M4502 8975 c-2 -30 -37 -45 -87 -37 -8 1 -15 -17 -15 -40 0 -31 9
-39 32 -30 24 9 29 4 20 -19 -6 -18 2 -45 18 -62 17 -16 30 -20 30 -8 0 36 85
23 131 -20 l44 -41 -10 51 c-15 80 46 64 88 -24 46 -93 91 -103 157 -36 64 63
77 64 118 2 55 -85 -28 -176 -116 -127 -25 14 -43 13 -58 -2 -52 -52 -214 17
-214 93 0 27 -6 26 -42 -6 -30 -28 -34 -40 -15 -47 15 -4 37 -23 50 -40 12
-18 80 -59 150 -92 70 -33 134 -71 143 -85 22 -35 54 -31 54 6 0 23 12 28 41
19 23 -8 55 -2 73 13 18 15 35 25 39 22 43 -31 153 146 124 200 -10 19 -32 35
-48 35 -16 0 -29 12 -29 27 0 80 -340 213 -543 213 -92 0 -116 7 -123 35 -9
33 -9 33 -12 0z"/>
<path d="M4335 8346 c-47 -12 -45 -79 4 -105 45 -24 79 9 45 43 -12 12 -16 33
-10 48 6 16 7 27 3 26 -4 -2 -23 -7 -42 -12z"/>
<path d="M4455 8346 c-75 -12 -69 -58 10 -76 36 -9 71 -15 78 -13 7 1 45 4 85
6 97 7 104 70 7 70 -36 1 -78 5 -95 11 -16 5 -55 6 -85 2z"/>
<path d="M4996 8229 c-6 -5 -31 -14 -57 -19 -25 -5 -52 -19 -60 -32 -8 -12
-35 -17 -62 -10 -26 6 -35 6 -20 -1 23 -10 23 -15 0 -29 -20 -13 -17 -18 13
-18 37 -1 37 -3 5 -22 -19 -11 -35 -34 -35 -51 0 -27 -5 -28 -31 -6 -17 14
-30 17 -28 7 8 -43 -3 -66 -40 -78 -22 -7 -34 -24 -29 -39 6 -15 1 -33 -11
-40 -12 -8 -21 3 -21 26 0 21 -15 44 -32 51 -23 9 -29 4 -21 -18 7 -18 0 -30
-18 -30 -16 0 -29 9 -29 20 0 11 -8 20 -18 20 -16 0 -16 -42 -1 -80 2 -5 2
-17 1 -26 -2 -10 8 -10 23 -1 43 27 75 25 75 -5 0 -38 100 -16 136 29 22 29
28 29 44 3 13 -20 19 -22 20 -5 0 54 52 20 90 -60 29 -62 53 -87 90 -91 105
-12 200 -71 200 -125 0 -89 87 -133 138 -71 13 15 72 34 131 41 91 11 109 21
119 61 21 82 -132 274 -160 201 -9 -23 -21 -25 -49 -11 -48 26 -139 26 -139 0
0 -13 -57 -18 -145 -15 -144 5 -145 5 -144 60 0 30 -7 55 -15 55 -39 0 -10 71
51 129 51 48 67 79 65 127 -2 61 -13 77 -36 53z m357 -469 c1 -17 3 -42 5 -57
1 -20 22 -23 82 -13 89 15 115 -20 30 -42 -118 -29 -290 81 -207 135 38 24 87
12 90 -23z"/>
<path d="M3060 8086 c0 -12 32 -74 71 -139 39 -64 75 -139 81 -167 16 -85 71
-264 78 -257 15 16 -71 360 -107 431 -40 79 -123 168 -123 132z"/>
<path d="M2330 8050 c-11 -4 -45 -12 -76 -19 -89 -19 -42 -51 76 -51 203 0
454 -160 646 -410 95 -125 244 -296 244 -280 0 11 -68 132 -115 206 -19 30
-50 66 -70 80 -19 15 -35 44 -35 65 0 22 -10 37 -22 34 -13 -3 -28 8 -33 23
-7 19 -2 23 17 11 24 -14 24 -11 1 17 -15 18 -37 31 -50 28 -13 -2 -20 14 -17
36 4 26 0 32 -11 16 -12 -18 -34 -8 -80 35 -34 32 -71 59 -80 59 -9 0 -55 28
-101 62 -46 34 -84 55 -84 47 0 -8 -11 -5 -25 6 -27 22 -153 46 -185 35z"/>
<path d="M2884 8005 c-20 -7 -15 -22 18 -57 52 -55 69 -59 85 -19 7 19 1 25
-18 18 -17 -7 -35 5 -44 28 -8 21 -27 35 -41 30z"/>
<path d="M3308 7326 c4 -31 27 -141 50 -245 23 -104 42 -236 42 -293 0 -56 14
-142 30 -189 17 -47 49 -194 72 -327 23 -133 54 -290 69 -348 15 -59 32 -171
38 -250 21 -281 36 -394 53 -394 34 0 74 112 68 190 -7 105 -86 607 -97 625
-5 8 -14 51 -21 95 -17 112 -53 272 -74 326 -10 25 -18 67 -18 92 0 26 -13 83
-28 126 -15 44 -32 110 -38 148 -6 37 -30 140 -54 228 -24 88 -48 180 -54 205
-16 67 -47 76 -38 11z"/>
<path d="M4511 7269 c-39 -40 -39 -45 3 -42 20 2 38 -14 42 -37 11 -57 40 -82
65 -57 15 15 6 39 -29 81 -28 33 -45 66 -38 73 7 7 7 13 1 13 -7 0 -26 -14
-44 -31z"/>
<path d="M2180 7222 c0 -10 -16 -16 -35 -13 -19 3 -24 1 -10 -3 14 -5 25 -16
25 -25 0 -9 18 -21 40 -27 22 -5 48 -34 59 -62 11 -29 25 -52 32 -52 6 0 5 10
-2 22 -8 12 -3 29 10 37 17 11 5 34 -39 78 -67 67 -80 74 -80 45z"/>
<path d="M2380 7080 c0 -11 10 -20 22 -20 12 0 49 -19 82 -43 l61 -43 -26 48
c-37 72 -139 114 -139 58z"/>
<path d="M3520 7076 c0 -52 47 -216 62 -216 31 0 20 76 -22 155 -22 41 -40 68
-40 61z"/>
<path d="M5573 7011 c-4 -12 -4 -55 -1 -96 4 -44 -3 -75 -15 -75 -14 0 -13
-11 3 -30 14 -17 29 -69 34 -115 11 -112 22 -140 46 -125 11 7 20 -3 20 -21 0
-32 44 -80 127 -139 21 -15 39 -53 42 -85 6 -79 22 -100 75 -97 58 3 79 172
30 229 -74 83 -220 377 -230 463 -12 105 -103 167 -131 91z"/>
<path d="M1574 6952 c-18 -47 -18 -57 4 -43 22 13 47 -112 31 -155 -8 -22 2
-33 34 -37 27 -4 47 -21 47 -39 1 -55 52 -100 98 -87 33 9 36 7 12 -9 -17 -12
-20 -22 -7 -22 13 0 19 -17 13 -40 -6 -23 -1 -40 13 -40 13 0 18 -8 12 -18 -6
-10 27 -22 74 -27 47 -4 101 -15 120 -24 25 -11 35 -6 35 17 0 53 35 36 57
-28 23 -67 34 -72 73 -33 26 26 12 77 -22 76 -10 -1 -16 21 -14 48 2 27 -6 49
-19 49 -12 0 -38 15 -58 33 -34 31 -40 31 -76 -2 -21 -19 -49 -28 -62 -20 -17
10 -16 18 4 31 20 12 21 22 4 39 -28 28 -67 9 -67 -32 0 -16 -9 -29 -20 -29
-11 0 -20 8 -20 19 0 10 9 24 20 31 33 20 23 42 -30 66 -29 13 -50 15 -50 4 0
-10 -15 -13 -34 -6 -21 9 -25 16 -10 21 13 5 19 18 12 29 -7 11 -1 29 14 40
24 16 24 21 1 30 -23 9 -23 14 0 30 20 14 14 17 -19 9 -38 -8 -44 -3 -34 29 9
28 5 35 -17 26 -18 -7 -34 5 -43 31 -7 23 -20 37 -30 31 -9 -6 -20 1 -25 14
-5 15 -13 10 -21 -12z"/>
<path d="M5992 6928 c-17 -45 -16 -48 25 -48 31 0 40 -21 50 -123 15 -144 15
-143 -37 -103 -28 21 -32 33 -15 40 28 10 35 66 8 66 -29 0 -93 69 -93 100 0
16 -16 33 -36 36 -30 6 -33 1 -17 -29 11 -20 35 -77 53 -127 41 -111 103 -181
147 -166 24 8 22 2 -7 -21 -38 -30 -38 -32 -3 -32 28 -1 35 -12 27 -41 -6 -25
-2 -35 11 -27 14 9 15 -12 4 -65 -9 -43 -15 -100 -13 -128 1 -27 4 -81 6 -120
3 -61 4 -63 12 -15 8 53 46 79 46 32 0 -13 6 -18 12 -11 7 6 3 38 -8 71 -11
32 -13 66 -5 76 53 56 -40 607 -102 607 -12 0 -16 14 -10 30 7 18 1 30 -15 30
-15 0 -33 -14 -40 -32z"/>
<path d="M3640 6805 c0 -12 12 -34 27 -49 15 -15 35 -53 46 -85 11 -32 30 -62
43 -66 35 -12 29 54 -6 68 -16 6 -30 27 -30 46 0 19 -18 51 -40 71 -22 20 -40
26 -40 15z"/>
<path d="M2480 6728 c0 -22 12 -29 37 -23 21 5 52 1 70 -9 41 -22 43 -3 4 35
-39 40 -111 37 -111 -3z"/>
<path d="M2640 6735 c1 -43 33 -82 49 -57 26 42 113 23 174 -38 56 -56 97 -76
97 -48 0 6 -37 46 -82 90 -84 80 -238 115 -238 53z"/>
<path d="M3600 6717 c0 -17 13 -75 30 -129 37 -122 150 -669 151 -732 0 -25
14 -68 30 -96 l29 -50 -12 55 c-15 67 26 76 50 11 l16 -45 23 43 c32 60 30 66
-26 66 -66 0 -82 34 -37 76 21 19 27 27 14 18 -29 -19 -40 10 -45 119 -4 75 0
83 36 73 69 -18 15 89 -60 118 -17 6 -51 80 -77 169 -75 254 -89 296 -106 316
-9 11 -16 6 -16 -12z"/>
<path d="M5237 6684 c-33 -34 -44 -79 -39 -154 5 -61 91 62 95 134 3 64 -9 68
-56 20z"/>
<path d="M3774 6567 c-17 -17 98 -182 145 -206 45 -24 64 9 40 69 -14 34 -16
35 -18 5 -2 -55 -35 -41 -58 26 -30 85 -81 135 -109 106z"/>
<path d="M5051 6553 c-6 -18 -16 -48 -21 -66 -10 -29 -15 -29 -52 4 -35 32
-43 33 -59 8 -39 -62 36 -170 106 -152 23 6 35 -2 35 -24 0 -40 -96 -51 -139
-16 -22 18 -25 17 -14 -2 9 -14 6 -25 -7 -25 -14 0 -15 -12 -3 -35 9 -19 13
-47 8 -61 -26 -74 36 -155 134 -174 50 -9 67 62 26 110 -17 20 -34 60 -37 88
-5 50 10 61 69 53 21 -3 25 26 15 141 -12 146 -40 217 -61 151z"/>
<path d="M5520 6440 c0 -11 9 -20 19 -20 11 0 14 -16 7 -35 -7 -19 -5 -29 3
-21 9 8 34 5 55 -6 22 -12 43 -17 48 -12 15 14 -15 74 -32 64 -9 -5 -21 4 -27
20 -13 33 -73 41 -73 10z"/>
<path d="M6280 6375 c0 -14 -6 -59 -13 -100 -14 -88 18 -102 48 -20 30 81 27
145 -6 145 -16 0 -29 -11 -29 -25z"/>
<path d="M1420 6314 c0 -14 18 -27 40 -29 23 -1 40 10 40 26 0 16 -18 29 -40
29 -22 0 -40 -12 -40 -26z"/>
<path d="M5577 6330 c-17 -17 -1 -140 27 -215 15 -39 14 -63 -2 -82 -17 -21
-15 -34 11 -55 26 -22 35 -22 42 -3 5 14 25 25 46 25 25 0 34 -10 26 -30 -20
-52 83 -37 108 15 59 122 45 199 -26 147 -33 -24 -34 -32 -10 -61 24 -29 24
-37 0 -52 -20 -13 -35 -9 -49 14 -11 18 -34 46 -52 62 -23 20 -29 53 -23 114
5 50 -1 92 -13 100 -12 7 -22 4 -22 -8 0 -33 -36 -24 -44 11 -3 17 -12 25 -19
18z"/>
<path d="M2160 6293 c0 -30 74 -71 125 -68 54 3 42 24 -36 61 -85 41 -89 41
-89 7z"/>
<path d="M2401 6282 c-67 -18 -77 -62 -13 -62 30 0 59 16 72 40 23 42 18 44
-59 22z"/>
<path d="M1260 6252 c0 -31 48 -77 65 -61 6 6 6 29 0 50 -11 44 -65 54 -65 11z"/>
<path d="M1620 6183 c0 -33 84 -103 124 -103 50 0 48 2 -50 68 -40 28 -74 44
-74 35z"/>
<path d="M6261 5765 c-1 -391 -7 -563 -32 -995 -9 -148 -6 -175 15 -154 14 14
27 35 29 45 1 10 4 21 6 24 2 3 7 28 11 55 18 132 53 251 85 287 25 29 27 35
5 23 -16 -9 -8 8 18 37 57 62 82 67 82 16 0 -20 18 -53 40 -73 53 -48 52 -50
-40 -119 -44 -32 -80 -66 -80 -75 0 -27 69 -18 111 14 144 111 198 134 279
123 120 -16 254 32 194 69 -62 39 -55 53 31 61 74 7 76 6 68 -56 -4 -34 3 -69
16 -76 17 -11 17 -22 0 -43 -18 -21 -16 -30 9 -40 42 -16 41 -87 -2 -118 -29
-22 -24 -30 50 -72 53 -31 99 -79 127 -133 68 -133 144 -161 80 -30 -149 303
-200 445 -212 591 -9 102 -29 199 -45 214 -6 5 -7 -23 0 -63 16 -109 -33 -147
-167 -129 -57 8 -113 6 -126 -4 -64 -48 -191 -65 -262 -36 -91 38 -92 87 -8
302 91 234 107 461 46 652 -16 52 -40 48 -44 -7 -2 -25 -22 -60 -45 -79 -23
-19 -39 -41 -36 -50 10 -27 -84 -31 -115 -5 -17 14 -29 59 -29 110 0 94 -15
149 -41 149 -9 0 -17 -187 -18 -415z m159 93 c0 -16 8 -16 29 1 23 19 33 15
52 -22 15 -27 17 -48 6 -51 -11 -4 -16 -49 -12 -101 10 -139 -7 -184 -84 -216
-37 -15 -71 -39 -76 -54 -5 -14 -16 -19 -24 -11 -21 18 30 159 73 202 49 49
48 100 -2 85 -21 -7 -44 -3 -51 8 -8 12 1 21 19 21 30 0 30 3 1 31 -37 38 -41
102 -6 116 44 17 75 14 75 -9z m-50 -578 c-7 -11 2 -20 19 -20 36 0 39 -27 10
-81 -32 -60 -49 -46 -45 36 4 89 3 85 17 85 6 0 6 -9 -1 -20z"/>
<path d="M4191 6121 c-8 -12 -4 -21 8 -21 11 0 20 -7 19 -15 -8 -49 10 -79 66
-106 70 -35 97 -79 48 -79 -18 0 -32 8 -32 18 0 10 -15 23 -33 30 -31 12 104
-151 137 -165 16 -6 24 25 17 72 -1 14 9 25 23 25 15 0 37 17 50 38 13 21 57
49 98 63 83 27 48 73 -40 51 -25 -6 -74 -3 -109 7 -71 20 -80 9 -28 -32 33
-26 32 -28 -5 -23 -22 4 -62 29 -90 56 -83 84 -115 104 -129 81z"/>
<path d="M5980 6033 c0 -15 14 -40 31 -54 17 -14 29 -44 26 -67 -7 -65 52
-232 83 -232 18 0 13 353 -5 372 -15 15 -22 -16 -16 -75 1 -19 -7 -39 -19 -47
-11 -7 -20 -6 -18 4 8 49 -6 87 -42 106 -31 17 -40 15 -40 -7z"/>
<path d="M1500 5979 c0 -35 8 -56 20 -49 11 7 25 -24 32 -69 7 -44 27 -92 44
-106 21 -17 27 -17 18 -1 -8 13 -6 29 6 36 11 7 20 -2 20 -19 0 -17 10 -31 21
-31 12 0 16 9 9 20 -7 12 13 20 49 20 41 0 61 -10 61 -30 0 -16 14 -30 31 -30
17 0 26 9 19 20 -7 11 2 20 19 20 17 0 31 -9 31 -20 0 -11 9 -20 20 -20 11 0
20 11 20 25 0 39 120 87 140 56 17 -29 100 -10 100 22 0 12 -61 18 -160 14
-88 -4 -160 0 -160 9 0 9 -8 11 -18 5 -61 -37 -235 34 -268 111 -41 94 -54 98
-54 17z"/>
<path d="M1345 5930 c-14 -16 -25 -33 -25 -39 0 -20 77 -12 90 9 18 29 50 4
50 -39 0 -20 15 -48 34 -64 29 -24 32 -23 20 10 -8 20 -14 45 -14 55 0 66
-113 116 -155 68z"/>
<path d="M5309 5938 c-7 -11 -29 -14 -49 -8 -20 6 -42 3 -49 -8 -7 -11 19 -26
57 -33 69 -13 112 -1 112 30 0 26 -57 42 -71 19z"/>
<path d="M5772 5862 c-21 -23 -28 -42 -15 -42 13 0 23 -9 23 -20 0 -30 66
-100 94 -100 36 0 32 27 -12 82 -20 27 -41 65 -45 85 -7 35 -9 35 -45 -5z"/>
<path d="M4020 5835 c0 -27 20 -66 43 -87 26 -22 37 -26 26 -9 -9 17 -17 52
-18 79 -1 65 -51 81 -51 17z"/>
<path d="M4802 5832 c-23 -27 -11 -92 18 -92 21 0 39 99 20 110 -9 5 -26 -3
-38 -18z"/>
<path d="M4507 5770 c-38 -59 -40 -72 -16 -104 27 -34 29 -34 41 11 10 35 23
44 56 35 66 -19 205 -34 172 -19 -16 7 -36 23 -44 35 -8 12 -35 22 -60 22 -29
0 -54 17 -66 45 -25 58 -32 56 -83 -25z"/>
<path d="M5311 5822 c-7 -11 -3 -65 7 -97 4 -10 82 64 82 77 0 19 -78 37 -89
20z"/>
<path d="M5234 5720 c-6 -22 -3 -44 6 -50 23 -14 66 44 51 69 -21 33 -45 25
-57 -19z"/>
<path d="M5080 5700 c0 -36 21 -49 65 -42 8 1 15 -8 15 -21 0 -13 5 -19 11
-13 5 6 1 34 -10 63 -24 62 -81 71 -81 13z"/>
<path d="M3860 5705 c0 -9 17 -36 39 -59 21 -23 32 -49 25 -58 -8 -9 2 -4 21
11 20 14 32 31 27 36 -5 5 1 21 14 35 19 20 29 17 50 -13 15 -21 35 -32 45
-26 11 6 19 -3 19 -20 0 -17 -17 -31 -39 -31 -55 0 -68 -33 -25 -64 20 -14 43
-42 50 -61 7 -19 27 -35 43 -35 18 0 31 -18 31 -42 0 -25 16 -46 40 -52 22 -6
39 -21 38 -33 -7 -55 6 -71 65 -84 44 -9 54 -18 36 -30 -20 -12 1 -43 80 -120
101 -97 109 -102 135 -68 22 32 22 40 -4 54 -16 9 -30 30 -30 45 0 15 -11 35
-25 44 -14 9 -39 43 -55 76 -17 33 -46 77 -65 99 -19 21 -35 49 -35 63 0 13
-13 29 -30 35 -16 7 -30 27 -30 45 0 37 -75 114 -133 136 -36 14 -36 16 0 42
43 31 -4 70 -72 59 -19 -3 -40 3 -46 13 -19 30 -89 20 -89 -12 0 -16 -9 -30
-20 -30 -11 0 -18 10 -15 23 3 12 -6 26 -20 31 -14 5 -25 1 -25 -9z"/>
<path d="M1088 5657 c-16 -26 10 -56 39 -45 14 5 48 1 75 -9 34 -13 55 -10 74
9 14 16 57 28 95 28 38 0 69 8 69 17 0 32 -168 19 -194 -15 -14 -17 -25 -22
-25 -9 -1 27 -118 48 -133 24z"/>
<path d="M4990 5620 c-33 -36 -34 -45 -9 -61 68 -43 94 -14 62 67 -14 34 -17
34 -53 -6z"/>
<path d="M2530 5599 c-44 -11 -146 -34 -227 -52 -109 -24 -182 -55 -279 -122
-72 -49 -178 -105 -237 -124 -58 -19 -139 -61 -179 -93 -41 -32 -111 -84 -156
-115 -45 -31 -109 -82 -142 -113 -33 -31 -105 -79 -160 -106 -96 -49 -300
-241 -345 -325 -17 -32 -14 -59 14 -122 72 -161 72 -165 -13 -164 -87 0 -139
-9 -159 -29 -7 -8 -26 -14 -40 -14 -15 0 -44 -16 -66 -35 -67 -61 -93 -80
-155 -112 -89 -46 -96 -86 -20 -103 173 -39 252 -45 252 -20 0 11 -18 19 -40
18 -32 -1 -39 9 -34 50 5 41 17 52 60 53 55 1 84 17 89 51 1 10 3 27 4 38 2
12 25 15 53 8 39 -10 62 1 109 51 58 62 60 63 121 31 35 -18 73 -28 86 -23 18
7 17 10 -1 11 -36 3 -31 96 7 110 21 8 35 -1 42 -28 14 -51 49 -51 86 1 25 33
45 38 120 30 l90 -11 -80 27 c-44 14 -88 22 -98 17 -10 -6 -12 0 -5 12 21 33
-25 51 -58 23 -24 -20 -37 -18 -66 8 -20 18 -47 33 -60 33 -27 0 -19 63 19
147 20 43 37 54 71 48 34 -7 46 1 51 33 6 42 56 64 106 45 22 -9 23 -23 5 -71
-13 -33 -16 -68 -6 -76 9 -9 21 -5 25 9 5 14 17 21 25 15 9 -5 14 18 11 50 -3
36 4 60 19 60 16 0 22 30 19 90 -3 50 2 90 12 90 9 0 23 27 30 60 16 75 52 76
132 4 62 -55 66 -56 156 -29 215 63 168 105 392 -345 223 -447 275 -573 380
-920 40 -132 91 -279 114 -327 l41 -86 -117 -170 c-65 -94 -130 -187 -145
-208 -25 -35 -13 -44 160 -130 l187 -93 104 70 c57 39 112 73 122 77 24 10 49
177 26 177 -10 0 -36 -34 -57 -75 -21 -41 -55 -78 -75 -82 -21 -4 -54 -27 -75
-50 l-38 -43 10 46 c13 60 -64 97 -101 49 -21 -26 -34 -27 -84 -6 -78 32 -97
83 -43 118 22 16 41 40 41 55 0 16 7 28 15 28 9 0 32 37 51 82 20 45 53 87 75
92 45 12 47 22 18 100 -18 51 -14 48 45 -22 36 -44 93 -107 126 -142 176 -185
175 -183 150 -230 -32 -59 -18 -66 66 -31 259 109 799 187 1030 150 496 -80
854 -422 1028 -979 22 -71 57 -170 76 -220 20 -49 48 -145 62 -212 l25 -123
258 -116 c142 -65 262 -124 267 -132 12 -19 -103 -180 -125 -176 -36 7 -67
-116 -36 -142 42 -35 39 -44 -69 -157 -53 -56 -92 -102 -85 -102 7 0 4 -7 -7
-15 -12 -8 -31 -39 -44 -68 -36 -82 -153 -234 -181 -236 -35 -1 -57 -66 -74
-216 l-15 -125 117 0 c70 0 106 7 91 17 -37 23 -22 203 22 269 19 29 34 61 34
72 0 10 27 31 60 45 46 21 60 40 60 83 0 31 13 60 30 67 16 6 30 22 30 36 0
13 22 36 48 50 31 17 46 40 42 64 -4 20 -1 37 6 37 26 0 68 121 60 168 -8 38
-2 44 37 36 40 -7 47 0 47 45 0 36 8 49 23 39 16 -10 20 -3 10 20 -7 20 -13
45 -13 58 0 12 -21 -7 -47 -42 -26 -35 -53 -58 -60 -50 -47 46 78 234 129 193
16 -12 132 -74 258 -138 348 -176 378 -217 185 -258 -36 -8 -65 -22 -65 -31 0
-10 -17 -23 -38 -29 -45 -15 -71 -91 -31 -91 35 0 60 40 25 41 -16 0 -12 8 9
21 19 11 45 14 56 7 12 -7 32 1 45 19 17 22 33 26 54 12 17 -11 21 -20 9 -20
-11 0 -23 -29 -25 -65 -3 -36 -14 -68 -25 -72 -26 -9 -24 -43 2 -43 30 0 79
52 79 82 0 17 8 15 25 -6 18 -22 47 -28 99 -22 59 8 69 15 50 36 -13 14 -35
21 -49 15 -14 -5 -25 1 -25 13 0 12 13 22 28 22 16 0 44 6 64 13 24 10 30 6
20 -10 -8 -13 0 -29 19 -36 19 -7 41 -1 51 15 9 15 18 21 18 13 0 -9 -10 -32
-23 -53 -30 -47 -9 -102 37 -101 34 0 34 1 1 21 -20 11 -30 30 -23 41 17 27
114 -85 158 -183 36 -79 28 -205 -21 -375 -12 -40 -7 -45 50 -45 l63 0 -11 95
c-6 52 -5 82 2 65 15 -33 70 157 68 235 -1 68 16 55 58 -43 21 -48 47 -94 59
-101 12 -7 22 -40 22 -72 0 -33 10 -59 21 -59 12 0 16 -17 10 -37 -10 -31 -4
-36 35 -29 27 6 57 -4 73 -22 18 -23 61 -32 147 -32 90 0 116 6 100 23 -13 12
-46 22 -74 22 -29 0 -52 8 -52 18 0 9 -12 17 -27 17 -34 0 -102 60 -119 105
-7 19 -25 35 -41 35 -25 0 -133 134 -133 166 0 8 27 14 60 14 33 0 60 9 60 20
0 12 -24 16 -54 11 -64 -12 -145 35 -149 84 -1 19 -9 4 -17 -35 l-15 -70 -2
83 c-3 86 -39 123 -81 81 -16 -16 -22 -14 -22 10 0 18 -5 45 -10 60 -6 15 8
48 32 74 26 27 35 52 24 59 -11 7 -26 27 -33 43 -7 17 -10 5 -6 -27 10 -72
-31 -89 -89 -36 -24 23 -69 47 -100 53 -31 7 -55 24 -53 36 3 14 -14 22 -40
19 -48 -5 -62 25 -20 42 14 5 4 11 -21 11 -26 1 -41 10 -35 20 6 9 -5 23 -24
30 -66 24 -125 66 -112 79 8 7 3 13 -10 13 -12 0 -23 18 -23 40 0 22 -9 40
-20 40 -11 0 -20 -9 -20 -21 0 -30 -99 46 -99 76 -1 14 -8 24 -16 23 -46 -8
-86 5 -75 23 9 13 -4 16 -34 9 -33 -9 -59 0 -85 29 -20 22 -52 41 -71 41 -19
0 -50 18 -70 40 -19 21 -43 34 -52 28 -10 -5 -12 3 -6 19 8 22 -16 35 -101 53
-72 15 -107 31 -98 45 9 14 1 17 -22 8 -25 -9 -38 -2 -45 27 -6 22 -23 40 -39
40 -16 0 -34 16 -41 35 -7 19 -30 47 -50 61 -20 15 -31 35 -25 45 6 11 2 19
-10 19 -31 0 -26 73 8 106 35 35 20 56 -26 39 -29 -11 -29 -8 -6 21 24 29 23
34 -6 34 -37 0 -25 77 17 105 13 8 4 15 -22 15 -24 0 -49 9 -57 21 -16 26 30
84 59 73 12 -5 40 -1 62 8 31 13 24 16 -30 14 -78 -5 -123 15 -118 51 8 64 -5
93 -42 93 -27 0 -40 13 -40 40 0 22 -13 40 -30 40 -16 0 -30 16 -30 35 0 39
-90 145 -123 145 -13 0 -16 20 -9 48 10 40 2 50 -43 63 -38 11 -45 18 -22 23
38 9 -36 106 -80 106 -13 0 -22 7 -20 15 2 8 -7 40 -20 71 -24 58 -62 57 -64
-2 0 -24 -9 -18 -29 18 -25 46 -121 90 -175 81 -8 -2 -29 26 -48 62 -18 36
-37 54 -42 40 -5 -14 -17 -25 -28 -25 -11 0 -14 9 -7 19 11 19 -102 77 -169
87 -17 3 -42 12 -56 21 -14 9 -25 6 -25 -6 0 -11 -13 -21 -30 -21 -16 0 -30
10 -30 21 0 12 -9 16 -20 9 -11 -7 -21 8 -22 34 -1 30 -5 36 -13 16 -19 -49
-72 -79 -99 -57 -13 11 -36 13 -50 4 -14 -9 -48 -18 -76 -20 -27 -2 -97 -9
-154 -14 -115 -10 -159 17 -140 87 6 22 3 44 -6 50 -9 5 -21 -12 -28 -38 -13
-51 -63 -59 -91 -14 -12 19 -19 17 -28 -8 -20 -53 -15 -70 17 -57 17 6 30 3
30 -8 0 -34 -23 -41 -81 -25 -34 10 -63 9 -70 -1 -17 -29 -49 -23 -49 9 0 31
-95 71 -135 57 -42 -14 -28 -42 15 -31 31 8 38 3 28 -22 -20 -52 -100 -41 -97
14 1 25 9 58 18 72 10 17 4 24 -22 21 -63 -6 -82 0 -95 32 -6 17 -4 26 6 20
15 -9 42 30 42 60 0 16 -124 -10 -150 -31 -18 -15 -30 -15 -39 -1 -8 12 -7 21
2 21 8 0 -16 23 -53 50 -37 28 -59 50 -49 50 11 0 6 9 -10 19 -38 24 -46 82
-9 67 15 -5 28 0 28 12 0 12 -13 22 -28 22 -16 0 -33 11 -37 25 -11 32 25 115
51 115 42 0 -33 58 -82 64 -31 3 -52 17 -49 31 3 14 -7 55 -21 90 -15 36 -25
91 -24 124 2 32 -11 75 -28 95 -18 21 -32 62 -32 92 0 30 -10 52 -22 50 -12
-2 -20 27 -19 68 2 53 -7 74 -32 81 -19 5 -44 35 -55 67 -11 32 -25 58 -32 58
-7 0 -7 -8 -1 -19 6 -10 1 -25 -12 -33 -16 -10 -20 2 -13 38 6 32 1 50 -12 48
-12 -2 -23 23 -24 56 0 35 -11 58 -25 55 -12 -3 -22 2 -21 10 11 67 -7 151
-22 105 -15 -47 -16 -47 -18 -6 -3 56 -36 78 -48 31 -6 -26 -14 -20 -33 28
-22 59 -123 125 -168 111 -9 -3 -13 6 -8 20 5 14 2 40 -6 57 -53 104 289 367
511 392 44 5 109 19 144 29 73 23 195 5 261 -37 28 -19 45 -21 45 -8 0 49 215
6 284 -58 36 -32 80 -64 98 -69 34 -12 78 -91 78 -144 0 -18 6 -27 13 -19 7 7
26 -6 42 -28 16 -23 42 -37 58 -31 19 8 27 0 23 -23 -3 -20 5 -33 20 -30 14 3
30 -8 36 -24 17 -44 73 16 73 78 0 113 -234 353 -425 435 -144 62 -539 106
-670 75z"/>
<path d="M4591 5551 c27 -36 49 -75 49 -87 0 -12 13 -29 29 -38 15 -9 56 -54
90 -101 34 -47 74 -85 90 -85 20 0 25 -12 17 -33 -10 -26 -5 -31 22 -20 19 7
39 13 43 13 4 0 -19 27 -52 61 -66 68 -73 83 -29 66 17 -6 30 -1 30 11 0 12
-7 21 -15 20 -48 -8 -85 6 -85 32 0 17 -11 30 -25 30 -27 0 -135 125 -135 157
0 10 -18 23 -39 29 -37 9 -36 4 10 -55z"/>
<path d="M875 5554 c-27 -41 -41 -114 -62 -331 -4 -37 -15 -73 -25 -80 -23
-16 -21 -206 2 -244 11 -16 8 -30 -6 -34 -13 -5 -24 -26 -24 -47 0 -21 -8 -38
-19 -38 -10 0 -17 -16 -16 -36 7 -88 114 9 113 102 0 46 4 102 9 124 5 22 15
121 23 220 14 187 23 262 42 355 14 67 2 70 -37 9z"/>
<path d="M5275 5530 c-11 -59 -2 -70 58 -70 57 0 62 33 8 50 -24 7 -35 23 -28
41 6 16 2 29 -9 29 -10 0 -24 -22 -29 -50z"/>
<path d="M5814 5548 c-6 -7 2 -35 20 -61 24 -37 37 -43 54 -26 16 18 15 26 -3
33 -14 5 -25 22 -25 38 0 29 -24 37 -46 16z"/>
<path d="M4408 5517 c-8 -14 -5 -18 7 -10 11 7 35 -10 53 -37 36 -55 71 -66
64 -22 -10 72 -93 118 -124 69z"/>
<path d="M5610 5520 c-14 -23 83 -73 103 -54 17 18 -32 74 -64 74 -15 0 -32
-9 -39 -20z"/>
<path d="M6778 5423 c14 -25 13 -44 -3 -60 -17 -17 -12 -23 21 -23 24 0 44 9
44 20 0 11 14 20 30 20 17 0 30 9 30 20 0 11 -17 20 -39 20 -21 0 -44 9 -51
20 -23 38 -52 22 -32 -17z"/>
<path d="M5685 5418 c-54 -20 -58 -54 -10 -72 19 -7 41 -22 49 -34 22 -33 29
-8 17 60 -10 56 -16 61 -56 46z"/>
<path d="M4520 5383 c0 -42 82 -92 101 -62 13 20 8 37 -15 54 -38 29 -86 33
-86 8z"/>
<path d="M5086 5306 c10 -61 48 -112 71 -98 36 23 26 59 -28 98 -47 35 -49 35
-43 0z"/>
<path d="M3779 5227 c-105 -98 -139 -239 -74 -304 14 -14 26 -31 27 -39 21
-192 137 -453 253 -569 43 -43 45 -73 5 -88 -35 -13 -4 -87 37 -87 14 0 41
-36 61 -81 26 -58 46 -79 73 -75 21 4 62 -22 99 -64 37 -42 67 -61 76 -48 9
13 54 16 124 7 61 -7 92 -15 70 -16 -31 -3 -34 -8 -13 -21 21 -13 21 -19 3
-25 -17 -6 -15 -16 8 -35 28 -23 32 -21 32 20 0 42 4 39 37 -22 31 -58 33 -73
10 -96 -36 -35 -34 -42 8 -34 19 4 58 8 85 9 40 1 44 6 20 21 -22 14 -11 19
44 20 73 0 73 0 46 53 -17 34 -26 105 -23 195 5 142 -18 240 -50 220 -9 -6
-18 6 -20 26 -1 20 -5 54 -9 76 -37 214 -30 257 41 230 26 -9 52 -12 59 -5 7
6 12 1 12 -12 0 -12 14 -23 30 -23 35 0 37 -10 10 -59 -16 -32 -9 -39 53 -50
47 -9 75 -27 82 -52 10 -40 38 -48 93 -27 41 16 41 56 1 89 -25 20 -26 29 -5
42 19 13 14 20 -19 29 -34 10 -40 19 -25 38 14 17 9 39 -19 74 -22 28 -33 58
-25 66 8 9 -13 10 -46 2 -44 -10 -52 -8 -30 7 50 34 157 28 111 -6 -33 -24
-33 -28 -4 -39 18 -7 33 -27 33 -43 0 -17 10 -31 23 -31 14 0 18 25 11 70 -6
39 -7 70 -2 70 26 0 55 -125 58 -245 2 -74 9 -141 17 -149 23 -23 97 -28 121
-7 16 13 39 -10 76 -75 84 -149 187 -233 376 -309 227 -90 239 -133 51 -184
-145 -39 -148 -43 -91 -136 54 -88 50 -133 -20 -262 -59 -108 -82 -253 -39
-253 11 0 27 -16 35 -35 25 -63 945 -885 989 -885 56 0 261 259 373 470 123
231 288 522 350 615 l36 54 -122 127 c-134 140 -144 160 -77 151 25 -3 56 1
70 10 48 30 108 -5 84 -48 -14 -28 -14 -39 2 -39 12 0 20 -20 18 -45 -10 -122
15 -125 101 -10 56 75 62 95 51 177 -12 96 0 158 31 158 10 0 18 -18 18 -40 0
-22 9 -40 20 -40 11 0 20 8 20 19 0 10 18 15 39 11 25 -5 43 6 51 31 12 36 20
40 65 38 8 0 20 34 25 75 10 75 12 76 92 73 58 -2 81 5 81 25 0 15 -7 28 -16
28 -9 0 -17 14 -17 30 0 17 10 30 21 30 12 0 16 9 9 19 -6 11 2 47 19 79 34
66 41 142 14 142 -60 0 -872 -591 -917 -668 -32 -52 -512 -392 -587 -415 -88
-26 -121 -10 -267 123 -184 169 -301 195 -332 75 -44 -171 -65 -220 -124 -287
-69 -78 -87 -83 -115 -30 -32 60 82 344 157 391 11 6 34 61 51 121 32 111 61
140 76 75 4 -19 14 2 23 47 l15 82 75 -14 c41 -7 88 -21 104 -31 15 -10 55
-20 87 -22 33 -1 63 -13 67 -25 10 -29 110 -28 140 2 16 16 24 17 24 2 0 -12
16 -19 35 -15 19 4 78 12 130 19 53 7 91 21 84 31 -6 11 -2 19 10 19 37 0 281
168 281 193 0 24 -73 26 -111 3 -10 -6 -91 -13 -179 -14 -162 -4 -244 -16
-280 -42 -39 -28 -118 -38 -142 -19 -15 13 -42 13 -79 -1 -38 -15 -62 -15 -76
-1 -12 12 -46 21 -77 21 -42 0 -56 10 -56 38 0 58 53 173 65 140 5 -15 17 -21
25 -13 9 8 5 27 -8 42 -25 31 23 64 60 42 11 -7 58 7 106 30 48 23 144 52 214
64 71 12 140 32 155 43 16 13 31 14 40 3 20 -29 78 -33 123 -9 27 14 40 15 40
1 0 -42 32 -19 53 38 17 45 39 61 94 72 75 14 143 67 90 71 -15 1 -52 5 -82
10 -34 6 -55 0 -55 -14 0 -15 -8 -16 -25 -4 -35 27 -235 19 -291 -12 -35 -19
-53 -19 -74 -2 -18 15 -40 16 -64 4 -20 -10 -65 -19 -101 -20 -86 -2 -170 -84
-85 -84 11 0 20 11 20 23 0 13 6 18 13 11 7 -8 25 -4 39 8 21 17 21 11 2 -30
-13 -29 -29 -52 -36 -52 -7 0 -33 -18 -58 -40 -58 -50 -106 -53 -93 -5 5 19
15 54 22 78 9 31 2 45 -27 52 -48 13 -35 95 15 96 29 0 29 3 -2 27 -28 21 -35
57 -35 170 0 291 -169 389 -501 290 -347 -103 -473 -265 -412 -528 28 -121 28
-122 -14 -116 -37 5 -45 24 -55 126 -14 129 -39 207 -81 252 -35 37 -137 251
-137 288 0 41 -53 64 -191 79 l-120 14 -25 -287 c-26 -304 -19 -388 57 -703
50 -211 52 -298 4 -289 -24 4 -38 31 -45 86 -10 80 -10 80 -167 135 -144 50
-413 203 -413 234 0 7 19 89 42 180 27 107 39 203 33 265 -14 151 -44 151 -50
2 -3 -73 -15 -144 -27 -159 -13 -15 -29 -54 -36 -88 -12 -58 -13 -59 -58 -27
-43 30 -44 34 -12 57 33 24 32 27 -10 50 -31 17 -41 34 -31 58 7 18 14 44 15
58 1 32 39 32 70 1 19 -19 24 -16 24 10 0 19 -10 34 -21 34 -12 0 -16 9 -9 20
7 11 3 20 -9 20 -11 0 -21 23 -21 50 0 49 -15 58 -85 51 -43 -4 -45 17 -4 47
40 30 17 92 -33 92 -21 0 -38 -11 -38 -24 0 -18 -5 -19 -24 0 -29 29 -10 50
48 54 44 3 79 50 38 50 -12 0 -22 19 -22 42 0 25 -16 46 -39 52 -37 10 -35 15
22 72 l62 62 53 -59 c72 -79 202 -176 217 -161 6 6 24 -6 40 -28 15 -23 36
-36 45 -30 10 6 28 -7 40 -30 12 -23 30 -36 39 -31 16 10 44 -50 50 -109 1
-16 14 -28 27 -25 13 3 25 -18 27 -45 2 -54 4 -65 22 -110 38 -95 50 -270 21
-287 -26 -15 -26 -21 -3 -36 39 -26 -81 2 -145 35 -45 23 -54 43 -65 153 -7
70 -31 162 -53 205 -49 96 -51 77 -6 -63 28 -90 29 -122 9 -210 -28 -120 -25
-124 104 -155 54 -13 143 -47 198 -75 89 -45 99 -46 86 -14 -17 45 -85 400
-102 531 -19 153 -111 268 -309 388 -93 57 -198 131 -233 165 -80 79 -70 80
-188 -30z m1080 -306 c26 -48 27 -67 2 -52 -27 17 -47 -26 -29 -65 8 -19 15
-43 16 -54 2 -23 92 -32 92 -9 0 9 -16 20 -35 25 -26 7 -24 10 10 12 36 2 45
-9 45 -50 0 -45 -7 -51 -50 -43 -46 9 -69 -11 -35 -30 8 -5 4 -6 -10 -2 -14 3
-25 -5 -25 -18 0 -17 -6 -17 -24 1 -34 34 -83 30 -69 -6 7 -18 0 -30 -18 -30
-50 0 -35 80 16 82 25 0 34 6 20 11 -14 6 -25 18 -25 28 0 10 14 13 30 6 17
-6 30 -1 30 11 0 12 -9 22 -20 22 -11 0 -20 10 -20 21 0 12 9 16 20 9 11 -7
20 1 20 17 0 16 -13 34 -30 40 -16 7 -30 35 -30 62 0 64 87 73 119 12z m979
-79 c116 11 186 -32 168 -102 -6 -24 -1 -40 14 -40 16 0 21 19 15 50 -12 61
15 65 47 7 14 -26 18 -82 10 -145 -9 -72 -7 -93 8 -72 14 22 17 11 7 -40 -23
-128 -134 -167 -158 -57 -43 201 -235 245 -203 47 8 -51 3 -74 -19 -87 -28
-15 -28 -18 1 -29 18 -7 32 -4 32 7 0 11 25 -3 55 -30 30 -26 87 -70 125 -96
39 -25 70 -57 70 -69 0 -13 6 -28 13 -35 21 -22 -6 -91 -35 -91 -19 0 -28 -25
-28 -78 0 -141 -5 -143 -176 -73 -181 73 -264 125 -264 163 0 16 -11 28 -25
28 -65 1 -175 246 -175 389 0 143 101 285 185 259 21 -6 40 2 47 21 8 21 26
28 50 20 28 -8 35 -4 26 18 -8 23 0 28 35 21 26 -5 35 -3 20 4 -49 23 19 46
74 26 27 -11 64 -18 81 -16z m-1893 -116 c8 -5 15 -17 15 -28 0 -11 -9 -15
-20 -8 -11 7 -26 -2 -32 -19 -7 -17 -20 -31 -30 -31 -9 0 -12 12 -6 27 6 15
-4 33 -21 40 -55 21 -35 55 24 41 30 -8 62 -17 70 -22z m1911 -191 c33 -40 90
-195 77 -209 -32 -32 -168 173 -143 215 17 26 41 24 66 -6z m296 -235 c-7 -33
-18 -89 -24 -123 l-13 -64 -26 62 c-14 34 -44 72 -67 84 -59 31 -52 52 23 76
109 35 119 31 107 -35z m1548 -545 c-1 -34 -24 -64 -55 -70 -14 -3 -25 9 -25
26 0 17 9 26 20 19 11 -7 20 2 20 19 0 17 9 31 20 31 11 0 20 -11 20 -25z
m-1882 -180 c15 -41 -2 -74 -40 -75 -27 0 -56 97 -32 107 44 18 55 13 72 -32z
m1362 -334 c0 -37 -77 -186 -301 -586 -94 -167 -181 -275 -224 -275 -64 0
-675 560 -674 617 2 117 105 146 211 60 240 -193 353 -177 736 106 165 122
252 149 252 78z"/>
<path d="M5280 5301 c0 -30 47 -51 55 -25 10 30 105 32 105 3 0 -12 9 -16 20
-9 47 29 13 50 -80 50 -55 0 -100 -8 -100 -19z"/>
<path d="M7460 4809 c0 -50 52 -134 128 -208 83 -80 115 -72 47 11 -25 32 -72
96 -103 143 -63 93 -72 100 -72 54z"/>
<path d="M6850 4780 c9 -27 2 -44 -20 -53 -27 -10 -28 -16 -7 -30 21 -14 17
-26 -20 -57 -62 -52 -36 -51 49 1 55 34 63 49 50 85 -9 24 -12 55 -7 69 4 14
-7 25 -25 25 -24 0 -29 -11 -20 -40z"/>
<path d="M1720 4791 c0 -5 27 -37 60 -71 66 -68 76 -110 30 -127 -43 -17 -39
-93 5 -91 21 1 25 5 10 11 -41 17 -28 59 25 83 67 31 64 47 -30 132 -76 69
-100 83 -100 63z"/>
<path d="M6549 4685 c6 -16 -23 -33 -80 -47 -52 -14 -89 -34 -89 -51 0 -15
-22 -36 -48 -46 -57 -22 -81 -53 -52 -71 11 -7 20 -3 20 9 0 24 78 58 158 70
147 21 249 50 264 74 26 41 21 63 -12 50 -16 -6 -27 -2 -25 10 3 12 -28 23
-70 24 -53 2 -73 -4 -66 -22z"/>
<path d="M1910 4575 c-22 -66 -19 -275 4 -275 40 0 71 80 60 152 -7 39 -2 69
11 73 32 11 2 75 -35 75 -17 0 -35 -11 -40 -25z"/>
<path d="M1330 4510 l-60 -27 54 -1 c69 -2 91 -36 31 -48 -25 -5 2 -8 59 -6
99 3 102 1 72 -32 -34 -38 -29 -44 22 -24 20 8 31 35 30 75 0 35 -6 52 -11 38
-17 -42 -123 -31 -131 13 -5 35 -11 36 -66 12z"/>
<path d="M620 4472 c0 -23 -11 -24 -59 -6 -71 27 -92 12 -63 -43 27 -49 95
-74 128 -46 13 11 31 20 39 21 16 2 16 3 1 62 -12 46 -46 55 -46 12z"/>
<path d="M1593 4415 c-20 -74 -16 -77 62 -63 81 15 117 48 79 71 -12 8 -30 4
-39 -9 -11 -18 -21 -15 -36 11 -28 48 -52 44 -66 -10z"/>
<path d="M7405 4400 c-53 -84 3 -122 77 -54 26 24 52 41 58 37 5 -3 21 -16 35
-28 33 -27 50 -10 33 33 -10 26 -30 32 -81 25 -37 -5 -67 -1 -67 9 0 31 -29
19 -55 -22z"/>
<path d="M7300 4345 c0 -14 -22 -25 -50 -25 -27 0 -50 -10 -50 -21 0 -12 -17
-16 -38 -10 -21 7 -44 4 -50 -6 -20 -33 130 -44 162 -12 16 16 37 24 48 18 24
-15 23 13 -2 51 -13 20 -19 22 -20 5z"/>
<path d="M6985 4275 c5 -14 25 -25 45 -25 20 0 40 11 45 25 5 16 -11 25 -45
25 -34 0 -50 -9 -45 -25z"/>
<path d="M1392 4149 c-38 -28 -32 -89 10 -89 12 0 18 12 12 28 -6 15 -1 37 11
49 34 34 10 43 -33 12z"/>
<path d="M759 4105 c-1 -8 -6 -37 -10 -65 l-9 -50 40 50 c47 60 50 80 10 80
-16 0 -31 -7 -31 -15z"/>
<path d="M1221 4053 c-26 -69 -27 -114 -2 -74 33 52 43 9 13 -51 -17 -32 -35
-75 -41 -95 -7 -21 -23 -33 -39 -27 -22 9 -26 -7 -18 -72 7 -65 4 -77 -13 -54
-19 25 -22 24 -20 -10 2 -22 2 -44 0 -50 -2 -5 -8 -32 -12 -60 -5 -27 -12 -74
-18 -103 -6 -33 2 -63 20 -78 24 -20 29 -15 29 27 0 29 10 58 22 65 16 10 15
19 -4 30 -17 11 -4 22 43 36 47 13 55 20 26 21 -56 3 -71 67 -35 153 35 85 57
90 41 10 -9 -47 -5 -57 18 -48 34 13 38 70 7 101 -27 27 -7 66 33 66 16 0 29
18 29 40 0 22 -10 40 -22 40 -15 0 -14 10 3 32 22 25 22 34 0 47 -14 9 -21 25
-15 35 6 10 3 31 -6 46 -14 22 -22 16 -39 -27z"/>
<path d="M7030 4050 c-11 -3 -45 -12 -75 -19 -76 -16 -69 -51 11 -51 36 0 77
-11 90 -24 19 -19 24 -16 24 10 0 22 16 34 45 35 44 0 44 1 -5 29 -52 30 -57
31 -90 20z"/>
<path d="M5211 3996 c-37 -54 -41 -103 -6 -90 14 5 22 20 19 33 -3 14 13 29
35 35 47 12 56 66 12 66 -16 0 -43 -20 -60 -44z"/>
<path d="M5359 3946 c11 -24 16 -57 9 -73 -8 -23 -1 -27 30 -19 24 6 42 1 42
-12 0 -12 -18 -22 -40 -22 -46 0 -48 -8 -19 -61 11 -22 38 -39 59 -39 51 0 66
-30 41 -79 -12 -23 -31 -60 -42 -83 -18 -35 -16 -40 15 -34 20 5 33 20 30 35
-3 16 6 21 25 14 16 -6 43 1 58 17 16 15 34 22 42 14 20 -19 -64 171 -114 260
-28 50 -48 68 -57 52 -11 -17 -28 -9 -58 25 -38 44 -40 45 -21 5z"/>
<path d="M1642 3896 c-1 -19 14 -43 33 -54 19 -12 24 -21 10 -21 -38 -1 -30
-28 18 -58 37 -24 41 -23 31 5 -7 18 -4 32 7 32 10 0 19 23 19 50 0 31 -11 50
-30 50 -16 0 -30 -9 -30 -20 0 -34 -37 -22 -46 15 -9 32 -10 32 -12 1z"/>
<path d="M1470 3873 c-28 -33 -37 -133 -11 -133 11 0 21 16 21 36 0 20 11 47
24 60 15 15 17 31 5 42 -12 11 -27 10 -39 -5z"/>
<path d="M2015 3829 c-56 -52 -71 -89 -35 -89 11 0 20 14 20 31 0 16 13 35 28
41 16 6 34 24 40 40 15 38 10 36 -53 -23z"/>
<path d="M5180 3775 c-1 -108 -19 -132 -97 -123 -280 32 -274 41 -74 -122 139
-113 151 -106 193 101 17 87 35 129 54 129 35 0 22 -108 -34 -273 l-36 -107
72 -53 c40 -29 113 -92 163 -140 l91 -87 55 105 c30 58 68 128 84 155 27 47
33 142 7 120 -6 -5 -26 2 -43 16 -21 17 -36 19 -44 5 -17 -28 -148 -27 -229 1
-64 23 -68 42 -10 50 88 13 99 31 38 63 -53 28 -55 33 -21 45 34 12 35 14 5
26 -19 7 -34 34 -34 61 0 50 -33 73 -102 73 -26 0 -38 -14 -38 -45z m275 -339
c25 0 45 -13 45 -28 0 -15 -10 -28 -21 -28 -12 0 -16 -9 -9 -20 7 -11 8 -20 3
-20 -5 0 -24 -5 -41 -12 -21 -8 -32 -1 -32 19 0 20 -11 27 -30 20 -17 -6 -35
3 -42 21 -7 18 -25 32 -41 32 -16 0 -24 9 -17 20 6 10 41 14 76 8 35 -6 84
-11 109 -12z"/>
<path d="M7020 3780 c0 -11 -13 -20 -30 -20 -35 0 -40 -31 -9 -51 26 -16 103
49 87 74 -14 23 -48 22 -48 -3z"/>
<path d="M2201 3710 c-2 -33 -9 -49 -14 -35 -8 19 -17 18 -39 -5 -29 -29 -29
-86 2 -158 10 -22 7 -52 -7 -74 -28 -46 -30 -98 -3 -98 11 0 20 10 20 21 0 12
10 15 22 8 16 -10 16 -18 0 -27 -12 -8 -23 -59 -24 -113 -2 -54 -12 -110 -22
-123 -12 -15 -11 -39 3 -65 17 -31 16 -41 -3 -41 -16 0 -14 -11 8 -33 30 -30
36 -30 65 -1 17 17 49 37 71 44 47 15 51 36 12 68 -22 18 -30 18 -38 -2 -5
-15 -18 -3 -32 30 -16 41 -16 68 0 97 12 22 16 46 10 52 -7 6 -1 24 12 40 16
19 17 32 2 42 -12 7 -19 42 -16 78 3 36 -3 65 -12 65 -26 0 -22 95 4 104 16 5
16 33 2 97 -17 77 -20 81 -23 29z"/>
<path d="M891 3682 c-17 -32 -37 -61 -46 -65 -30 -14 -105 -176 -105 -229 0
-30 -12 -69 -28 -86 -15 -18 -34 -54 -42 -82 l-15 -50 45 40 c25 22 70 95 101
162 30 68 75 137 98 153 30 21 36 33 18 39 -17 6 -8 24 26 54 34 29 49 59 42
84 -14 56 -60 46 -94 -20z"/>
<path d="M1402 3699 c-1 -28 9 -62 23 -76 20 -20 19 -28 -2 -41 -21 -13 -20
-19 4 -28 44 -17 68 66 28 95 -17 12 -35 40 -40 61 -8 32 -11 30 -13 -11z"/>
<path d="M1908 3673 c-7 -18 -19 -28 -28 -23 -9 5 -14 -13 -13 -40 3 -57 33
-69 33 -14 0 20 11 47 24 60 13 13 17 29 10 37 -7 7 -19 -2 -26 -20z"/>
<path d="M205 3435 c9 -102 26 -234 39 -295 23 -118 39 -222 43 -295 2 -25 8
-45 15 -45 15 0 69 -414 61 -477 -3 -25 5 -58 17 -73 12 -15 24 -66 26 -113 2
-48 14 -96 26 -107 12 -11 47 -101 79 -200 56 -174 113 -273 142 -244 7 8 2
52 -13 99 -23 75 -34 147 -40 260 -2 19 -9 35 -18 35 -28 0 -79 133 -62 161
11 17 3 39 -24 62 -29 25 -43 64 -46 132 -3 52 -7 95 -10 95 -6 0 -24 159 -27
245 -2 36 -9 65 -16 65 -7 0 -17 38 -23 85 -5 47 -25 148 -44 225 -19 77 -37
158 -39 180 -2 22 -14 85 -26 140 -13 55 -28 134 -35 175 -23 147 -41 72 -25
-110z"/>
<path d="M3153 3591 c-13 -33 8 -51 102 -83 80 -29 81 -21 7 54 -66 65 -92 72
-109 29z"/>
<path d="M655 3497 c-30 -11 -55 -29 -55 -39 0 -24 -135 -24 -143 0 -10 28
-117 2 -117 -28 0 -31 77 -83 148 -101 29 -7 52 -21 52 -31 0 -69 120 -12 143
67 14 47 30 90 36 95 18 16 22 60 6 58 -8 0 -40 -10 -70 -21z"/>
<path d="M1454 3450 c-35 -25 -35 -27 3 -39 45 -14 69 -89 51 -161 -9 -37 -4
-50 19 -50 42 0 61 36 36 67 -28 33 -6 113 29 113 16 0 28 9 28 20 0 11 -22
20 -49 20 -27 0 -56 13 -65 28 -13 24 -22 25 -52 2z"/>
<path d="M880 3409 c0 -17 -14 -58 -31 -90 -27 -53 -27 -59 2 -59 18 0 25 10
18 22 -10 15 0 18 28 9 44 -14 64 34 25 58 -10 6 -14 29 -8 51 6 22 1 40 -12
40 -12 0 -22 -14 -22 -31z"/>
<path d="M1055 3325 c-4 -8 -1 -46 6 -85 8 -38 15 -52 17 -30 1 22 8 60 15 85
11 41 -20 66 -38 30z"/>
<path d="M1411 3229 c-18 -28 -30 -62 -25 -75 4 -13 23 6 42 43 42 81 31 104
-17 32z"/>
<path d="M863 3200 c-24 -33 -35 -60 -24 -60 11 0 29 18 41 40 12 22 35 40 52
40 17 0 25 9 18 20 -20 33 -40 23 -87 -40z"/>
<path d="M1217 3202 c-95 -119 -141 -171 -128 -147 8 15 1 25 -17 25 -17 0
-36 -20 -42 -45 -36 -155 -80 -414 -74 -433 10 -29 84 52 84 91 0 15 9 27 20
27 11 0 19 20 18 45 0 25 -6 34 -11 20 -16 -39 -47 -29 -47 15 0 27 13 40 40
40 22 0 40 10 40 21 0 12 -9 16 -20 9 -11 -7 -28 -7 -38 -1 -21 13 19 111 46
111 25 0 112 105 112 136 0 14 22 48 49 75 26 26 41 53 32 59 -10 5 -38 -16
-64 -48z"/>
<path d="M637 3105 c-16 -19 -44 -69 -63 -110 l-34 -76 60 31 c41 21 60 46 60
78 0 26 20 61 45 79 44 30 44 31 3 32 -23 1 -55 -15 -71 -34z"/>
<path d="M1850 3100 c7 -11 3 -20 -9 -20 -27 0 -28 -74 -1 -90 24 -15 59 68
45 105 -5 14 -18 25 -28 25 -11 0 -14 -9 -7 -20z"/>
<path d="M1612 3032 c-46 -97 -40 -117 18 -64 51 47 65 100 32 121 -10 6 -32
-20 -50 -57z"/>
<path d="M2765 3038 c-53 -85 -57 -118 -15 -118 36 0 75 88 66 149 -5 35 -13
31 -51 -31z"/>
<path d="M5 2925 c5 -91 15 -171 22 -179 7 -7 14 -40 14 -74 2 -51 5 -55 17
-22 16 40 8 195 -12 250 -7 17 -14 59 -16 95 -2 36 -11 72 -19 80 -8 8 -11
-59 -6 -150z"/>
<path d="M740 2939 c0 -12 -7 -17 -15 -12 -8 5 -31 -13 -51 -39 -20 -26 -27
-48 -16 -48 12 0 16 -14 9 -30 -8 -21 -2 -27 19 -19 18 7 26 27 19 50 -7 29 1
39 28 39 25 0 38 14 38 40 0 22 -7 40 -15 40 -9 0 -16 -10 -16 -21z"/>
<path d="M1437 2810 c4 -49 13 -86 21 -81 21 13 14 157 -8 164 -12 4 -17 -28
-13 -83z"/>
<path d="M3820 2818 c0 -47 68 -93 111 -77 38 14 38 15 -1 30 -22 8 -56 29
-75 45 -30 26 -35 26 -35 2z"/>
<path d="M733 2734 c-25 -26 -30 -45 -17 -58 12 -12 16 -33 11 -47 -6 -14 3
-50 18 -79 l28 -54 4 84 c1 46 7 91 13 100 29 47 -19 92 -57 54z"/>
<path d="M3621 2749 c13 -16 19 -47 13 -69 -6 -22 -2 -40 9 -40 39 0 98 -74
85 -107 -7 -18 -3 -33 10 -33 39 0 23 80 -26 129 -31 32 -44 64 -38 95 7 37 0
48 -34 51 -35 2 -39 -2 -19 -26z"/>
<path d="M3352 2637 c18 -114 52 -162 69 -95 7 27 7 62 1 78 -7 20 -16 10 -26
-30 -14 -58 -14 -58 -8 9 4 40 -5 81 -21 97 -24 24 -26 15 -15 -59z"/>
<path d="M3841 2688 c4 -120 238 -177 238 -58 0 11 -9 4 -21 -15 -11 -19 -36
-35 -57 -35 -39 0 -87 45 -71 67 6 7 4 8 -3 3 -8 -6 -30 5 -50 23 -21 18 -37
25 -36 15z"/>
<path d="M3982 2674 c-33 -33 -26 -62 8 -34 22 18 30 19 30 2 0 -17 8 -16 28
2 15 14 24 30 19 35 -18 19 -64 16 -85 -5z"/>
<path d="M2250 2641 c-8 -15 2 -28 29 -35 30 -8 39 -21 30 -48 -13 -41 20 -53
42 -16 8 12 -9 45 -36 72 -35 35 -55 43 -65 27z"/>
<path d="M3228 2628 c7 -17 12 -37 12 -43 0 -7 14 5 31 26 30 37 30 37 9 -6
-14 -30 -40 -45 -76 -46 -50 0 -51 -2 -14 -23 22 -12 45 -30 51 -38 14 -21 43
2 75 59 20 36 21 53 3 75 -34 40 -107 37 -91 -4z"/>
<path d="M3441 2627 c-1 -26 58 -80 60 -54 1 9 8 1 16 -18 12 -30 18 -26 37
25 12 33 14 60 4 60 -10 0 -18 -10 -18 -21 0 -12 -9 -16 -20 -9 -11 7 -20 1
-20 -13 0 -13 -13 -7 -29 14 -17 22 -30 29 -30 16z"/>
<path d="M3840 2614 c0 -4 22 -50 50 -102 l50 -93 -45 -20 c-42 -18 -41 -19 9
-9 62 12 145 -74 129 -134 -5 -20 -2 -36 6 -36 8 0 15 49 15 109 0 62 -8 105
-18 98 -10 -6 -24 8 -30 31 -12 47 -38 55 -52 17 -5 -14 -24 8 -41 49 -27 61
-73 119 -73 90z"/>
<path d="M1680 2505 c0 -30 -6 -77 -12 -105 -9 -40 -7 -44 10 -17 32 49 48
177 23 177 -11 0 -21 -25 -21 -55z"/>
<path d="M4184 2506 c5 -35 1 -59 -8 -54 -9 6 -16 -3 -16 -19 0 -30 112 -67
135 -45 6 7 -5 12 -26 12 -29 0 -32 5 -13 24 34 34 30 63 -7 48 -17 -6 -27 -5
-22 3 5 9 -4 33 -21 55 -29 38 -30 37 -22 -24z"/>
<path d="M2895 2501 c-9 -34 -5 -36 37 -16 57 26 63 55 10 55 -20 0 -42 -17
-47 -39z"/>
<path d="M3062 2467 c-17 -38 -30 -47 -45 -32 -25 25 -82 10 -66 -16 6 -10 23
-12 40 -6 16 6 29 1 29 -12 0 -35 52 21 69 75 19 61 3 55 -27 -9z"/>
<path d="M2340 2462 c-30 -12 -45 -67 -16 -57 8 3 28 -13 45 -35 29 -38 30
-37 26 27 -4 74 -12 83 -55 65z"/>
<path d="M2680 2466 c-48 -18 -100 -81 -98 -120 1 -21 5 -26 11 -11 6 14 23
25 39 25 15 0 26 10 23 23 -3 13 18 30 45 38 28 8 38 16 24 17 -15 1 -21 11
-14 22 14 22 13 22 -30 6z"/>
<path d="M3728 2397 c1 -56 8 -69 27 -53 19 16 25 10 25 -22 0 -40 8 -44 100
-50 16 -1 32 -20 36 -42 3 -22 12 -53 18 -70 7 -16 10 -45 8 -63 -2 -20 8 -32
26 -29 53 7 57 28 14 74 -45 48 -55 108 -22 128 25 15 27 90 2 90 -10 0 -14
-18 -8 -40 14 -54 -23 -51 -50 5 -17 36 -22 38 -23 10 -1 -47 -35 -44 -66 5
-13 22 -35 40 -48 40 -14 0 -28 20 -33 45 -5 25 -8 12 -6 -28z"/>
<path d="M2794 2394 c-46 -56 -43 -78 9 -70 27 4 46 23 50 50 9 61 -18 71 -59
20z"/>
<path d="M3205 2423 c4 -7 19 -42 33 -78 28 -71 37 -75 82 -43 25 19 25 20 -4
11 -41 -13 -65 16 -43 52 29 47 22 65 -26 68 -27 2 -46 -3 -42 -10z"/>
<path d="M3529 2367 c7 -19 1 -41 -13 -50 -21 -14 -21 -20 1 -34 20 -14 17
-20 -13 -28 -30 -8 -37 -2 -29 28 13 48 -19 48 -54 -2 -22 -31 -36 -34 -67
-18 -28 15 -35 15 -25 -1 14 -23 -32 -82 -65 -82 -11 0 -25 -14 -32 -32 -17
-43 -15 -49 10 -43 30 7 116 -146 104 -184 -8 -25 -6 -25 9 -4 11 14 25 26 32
25 7 -1 13 3 13 8 0 6 0 21 0 33 0 13 -6 18 -12 11 -7 -7 -25 0 -40 16 -32 31
-38 110 -8 110 11 0 20 -8 20 -18 0 -10 15 -24 34 -31 32 -12 32 -10 0 25 -42
46 -43 64 -4 64 17 0 30 13 30 29 0 19 12 25 31 18 27 -10 26 -17 -5 -53 l-36
-41 52 38 c29 21 49 50 43 64 -5 14 5 25 23 25 18 0 32 -16 32 -35 1 -30 3
-31 20 -5 12 19 12 32 -1 37 -28 9 -23 98 6 110 19 7 18 15 -5 31 -44 31 -66
27 -51 -11z"/>
<path d="M2963 2346 l-47 -9 42 -30 c23 -16 42 -40 42 -53 -1 -16 -6 -15 -18
3 -11 18 -22 20 -30 7 -18 -30 10 -42 73 -30 30 6 55 23 55 38 0 16 9 28 20
28 11 0 20 -9 20 -19 0 -11 18 -29 40 -41 27 -15 40 -15 40 -1 0 12 -13 21
-28 21 -15 0 -33 14 -39 30 -13 33 -73 42 -73 11 0 -11 -14 -14 -31 -8 -17 7
-27 25 -21 40 6 15 9 26 6 24 -2 -1 -25 -6 -51 -11z"/>
<path d="M4155 2346 c27 -5 50 -28 57 -57 11 -44 69 -72 68 -34 -1 31 -97 105
-133 102 -28 -2 -26 -5 8 -11z"/>
<path d="M2635 2318 c-53 -30 -23 -58 33 -31 27 12 44 29 39 38 -12 20 -29 18
-72 -7z"/>
<path d="M25 2307 c-14 -6 -25 -33 -25 -62 0 -47 3 -49 35 -21 19 17 48 26 63
21 20 -7 25 0 15 24 -7 19 -13 38 -13 43 0 10 -43 8 -75 -5z"/>
<path d="M2287 2274 c-21 -25 -53 -52 -72 -59 -19 -8 -35 -30 -35 -49 -1 -27
-5 -30 -17 -10 -14 22 -22 22 -45 0 -15 -14 -64 -53 -108 -85 -256 -190 -704
-606 -900 -835 l-80 -94 -230 -25 c-126 -14 -264 -25 -305 -25 -46 0 -65 -6
-50 -17 14 -9 -6 -11 -46 -4 -130 22 -399 -126 -399 -220 0 -61 7 -62 88 -13
67 42 246 98 342 108 33 4 83 16 110 28 60 26 320 86 374 86 21 0 47 8 57 18
10 10 37 22 59 25 21 4 73 43 114 87 59 63 79 75 99 55 20 -20 18 -25 -8 -25
-21 0 -30 -11 -23 -28 11 -30 168 107 168 147 0 11 18 29 40 41 22 12 54 48
71 82 24 47 40 57 73 47 38 -12 215 142 216 188 1 48 38 70 72 42 31 -26 34
-25 23 4 -9 25 3 39 47 55 33 11 57 32 54 46 -3 15 17 49 44 76 l50 50 -45 6
c-65 10 -55 32 26 62 40 14 100 50 135 81 35 30 84 66 108 78 30 16 40 35 32
57 -9 22 -5 28 11 18 12 -8 23 -5 23 6 0 42 -38 40 -73 -4z"/>
<path d="M2501 2281 c2 -40 61 -84 93 -70 32 14 31 17 -10 24 -34 6 -41 15
-26 32 14 18 9 24 -19 24 -21 0 -39 -4 -38 -10z"/>
<path d="M4094 2287 c-17 -16 5 -110 31 -137 13 -13 15 -5 7 23 -9 28 -3 46
17 54 17 7 25 25 19 42 -13 32 -51 41 -74 18z"/>
<path d="M4691 2279 c7 -11 -3 -44 -21 -72 -18 -28 -29 -55 -23 -60 5 -6 20 9
32 32 13 23 31 37 41 31 32 -20 43 30 13 60 -35 34 -62 40 -42 9z"/>
<path d="M3820 2220 c13 -24 18 -65 11 -91 -9 -38 -5 -45 20 -36 21 8 30 3 27
-15 -8 -47 25 -178 45 -178 11 0 15 7 10 16 -6 9 -15 51 -21 95 -14 107 -62
236 -92 246 -18 6 -19 -2 0 -37z"/>
<path d="M5375 2246 c-53 -14 -42 -46 15 -46 31 0 50 11 50 30 0 31 -5 32 -65
16z"/>
<path d="M4280 2209 c0 -25 -8 -26 -45 -9 -44 22 -44 21 -5 -9 21 -18 52 -30
68 -27 37 8 47 76 10 76 -15 0 -28 -14 -28 -31z"/>
<path d="M1760 2183 c0 -36 46 -123 64 -123 10 0 11 11 3 25 -9 14 -16 42 -16
63 -1 39 -51 73 -51 35z"/>
<path d="M4322 2141 c-21 -13 -20 -26 8 -68 35 -53 28 -126 -10 -103 -11 7
-20 -1 -20 -18 0 -38 33 -59 50 -32 17 28 55 25 46 -3 -5 -13 -24 -26 -44 -29
-49 -7 -52 -14 -20 -44 16 -15 28 -17 28 -5 0 12 9 21 20 21 11 0 20 -26 20
-59 0 -43 12 -62 45 -72 54 -16 115 -67 115 -95 0 -12 -6 -15 -13 -8 -7 8 -27
2 -44 -11 -26 -21 -28 -19 -17 11 7 20 6 31 -4 25 -10 -6 -22 7 -28 29 -6 22
-19 40 -30 40 -11 0 -16 -18 -10 -40 6 -22 20 -40 30 -40 11 0 15 -13 9 -30
-7 -16 -3 -30 7 -30 10 0 14 -13 8 -29 -9 -22 0 -27 32 -21 27 5 40 0 34 -16
-5 -13 -17 -23 -26 -21 -10 2 -18 -17 -18 -41 0 -25 10 -45 22 -45 12 0 18 16
13 36 -6 24 1 37 21 37 18 0 38 10 46 23 9 15 5 18 -12 7 -17 -11 -21 -8 -12
7 8 13 26 23 40 23 14 0 23 19 20 45 -2 25 -6 54 -7 65 -1 11 -10 7 -20 -9
-14 -23 -21 -17 -32 25 -7 30 -20 50 -28 45 -23 -15 -95 77 -85 108 5 14 1 22
-8 16 -10 -6 -20 15 -22 46 -2 32 -18 85 -36 118 -17 34 -24 61 -15 61 29 0
65 -47 65 -84 0 -26 14 -34 50 -31 58 4 68 35 12 35 -21 0 -43 14 -50 32 -17
43 -15 52 7 39 31 -20 39 17 9 45 -23 21 -28 20 -28 -5 0 -17 -8 -31 -18 -31
-20 0 -75 62 -65 75 14 18 -9 22 -35 6z"/>
<path d="M8745 2145 c-14 -4 -25 -22 -25 -38 0 -16 9 -24 20 -17 53 33 59 -19
8 -72 -42 -44 -48 -58 -23 -58 18 0 39 10 46 22 8 12 39 33 70 46 60 25 55 70
-10 80 -19 3 -40 14 -48 25 -7 12 -24 17 -38 12z"/>
<path d="M2654 2061 c14 -55 60 -66 118 -28 59 39 60 38 -45 54 -75 12 -82 9
-73 -26z"/>
<path d="M3127 2056 c-8 -14 -4 -16 13 -6 20 12 23 7 14 -17 -7 -18 -6 -33 2
-33 9 0 30 -31 47 -70 22 -47 25 -70 10 -70 -13 0 -45 -6 -73 -13 -27 -7 -43
-6 -35 3 8 9 -4 30 -27 46 -33 23 -46 24 -65 3 -18 -19 -16 -22 11 -13 19 7
40 4 47 -7 6 -10 -7 -19 -30 -19 -29 0 -41 -13 -41 -45 -1 -31 -6 -37 -17 -19
-13 21 -22 20 -42 -5 -28 -33 49 -179 83 -158 9 5 16 1 16 -8 0 -10 13 -18 28
-18 17 0 25 15 21 38 -8 42 37 102 60 80 7 -8 22 -1 32 16 15 24 18 22 19 -10
0 -30 6 -33 23 -16 18 18 17 31 -2 53 -29 36 -12 72 35 72 29 -1 30 -3 4 -20
-18 -12 -20 -20 -6 -20 33 0 51 34 26 50 -27 17 -26 71 3 65 12 -3 27 8 32 23
8 21 -2 24 -42 14 -54 -13 -63 2 -57 89 2 35 -69 47 -89 15z"/>
<path d="M4787 2026 c2 -20 -17 -38 -47 -45 -30 -8 -51 -29 -54 -52 -3 -35 -3
-35 7 -2 8 28 25 35 69 28 58 -8 89 63 40 94 -9 6 -16 -4 -15 -23z"/>
<path d="M5940 2048 c0 -11 11 -31 24 -44 13 -13 18 -29 11 -36 -7 -7 -28 2
-45 20 -45 44 -56 40 -29 -10 16 -30 36 -39 71 -33 26 5 48 1 48 -9 0 -10 9
-13 20 -6 30 18 24 50 -9 50 -16 0 -43 20 -60 44 -17 25 -31 36 -31 24z"/>
<path d="M4980 1998 c0 -22 9 -35 20 -28 11 7 20 -2 20 -19 0 -17 10 -31 22
-31 12 0 17 14 10 32 -7 17 -12 39 -12 47 0 9 -13 22 -30 28 -21 8 -30 -1 -30
-29z"/>
<path d="M3428 1988 c7 -17 12 -40 12 -50 0 -10 9 -18 20 -18 11 0 20 23 20
50 0 33 -11 50 -32 50 -21 0 -28 -11 -20 -32z"/>
<path d="M6800 2003 c0 -28 96 -108 116 -95 11 6 24 -6 30 -28 6 -22 27 -45
47 -52 20 -7 65 -44 100 -83 42 -48 73 -67 95 -59 41 16 1 94 -48 95 -42 1
-100 48 -100 82 0 16 -38 46 -85 67 -46 20 -73 41 -60 45 48 16 25 45 -35 45
-33 0 -60 -7 -60 -17z"/>
<path d="M2320 1978 c-23 -16 -24 -24 -5 -31 19 -8 18 -20 -5 -53 -38 -54 -38
-76 -2 -62 16 6 34 32 40 58 7 25 17 61 24 78 14 37 -8 41 -52 10z"/>
<path d="M8934 1949 c-31 -27 -51 -49 -45 -49 6 0 -12 -36 -41 -80 -29 -44
-69 -80 -87 -80 -19 0 -45 -20 -58 -45 -14 -25 -72 -65 -129 -89 l-104 -44 86
-1 c48 -1 103 8 123 19 43 22 68 -18 47 -73 -10 -26 -5 -31 22 -21 19 8 52 5
73 -7 23 -12 39 -13 39 -2 0 10 -22 24 -50 31 -64 16 -66 79 -3 138 25 24 63
69 82 99 20 30 51 55 71 55 28 0 35 19 37 100 1 55 0 100 -2 99 -3 0 -30 -22
-61 -50z"/>
<path d="M4068 1965 c-55 -38 -45 -116 15 -108 7 1 18 -12 25 -29 6 -16 3 -25
-7 -19 -10 7 -24 3 -31 -9 -7 -11 -3 -20 9 -20 11 0 21 -16 22 -35 0 -29 3
-30 17 -5 24 43 44 216 21 179 -15 -23 -18 -24 -19 -2 0 24 -5 24 -33 0 -30
-24 -31 -23 -10 18 26 48 25 52 -9 30z"/>
<path d="M3650 1945 c7 -15 -1 -25 -22 -25 -19 0 -28 -7 -20 -15 9 -8 26 -15
38 -15 13 0 33 -20 45 -45 30 -60 55 -85 37 -36 -10 26 -8 33 9 23 12 -8 23
-35 23 -61 0 -26 14 -52 30 -58 17 -7 30 -8 30 -4 0 4 5 22 12 39 8 21 1 32
-21 32 -25 0 -30 11 -20 43 9 28 6 38 -9 28 -12 -7 -28 1 -34 18 -7 17 -22 31
-33 31 -11 0 -33 16 -49 35 -16 19 -23 24 -16 10z"/>
<path d="M2440 1911 c0 -27 11 -33 48 -23 99 24 120 -10 38 -60 -42 -26 -68
-47 -59 -47 10 -1 5 -21 -10 -46 -62 -100 -78 -154 -41 -141 30 11 30 8 -3
-30 -29 -32 -39 -81 -44 -208 -4 -91 -8 -168 -10 -171 -10 -16 -4 -121 9 -141
8 -13 4 -24 -8 -24 -12 0 -17 -9 -10 -20 7 -11 1 -20 -14 -20 -21 -1 -21 -4 0
-17 15 -9 29 -30 31 -45 2 -15 11 -39 20 -53 8 -14 10 -34 3 -45 -7 -11 4 -20
24 -20 28 -1 30 -5 9 -18 -20 -12 -21 -21 -4 -31 12 -8 17 -32 10 -53 -6 -21
-2 -38 10 -38 11 0 21 -18 21 -40 0 -22 9 -40 20 -40 11 0 20 -22 20 -50 0
-27 10 -50 21 -50 12 0 16 -17 10 -37 -7 -22 1 -48 19 -63 16 -14 30 -41 30
-61 0 -44 32 -69 45 -34 19 52 -3 371 -35 505 -21 91 -31 210 -28 340 3 132
-4 216 -21 248 -15 29 -18 52 -6 60 63 41 87 182 30 182 -28 1 -30 4 -7 18 46
30 106 207 77 226 -15 9 1 16 40 16 122 0 177 -92 98 -166 -31 -29 -48 -68
-49 -113 -1 -39 -14 -79 -30 -91 -16 -11 -33 -52 -39 -90 -6 -39 -17 -92 -24
-120 -14 -54 48 64 155 300 104 228 107 252 31 291 -98 51 -377 65 -377 20z"/>
<path d="M4640 1910 c-2 -22 -8 -29 -13 -15 -6 14 -18 25 -28 25 -10 0 -13
-13 -6 -30 6 -16 23 -30 36 -30 16 0 23 -20 18 -55 l-7 -55 19 57 c11 33 11
74 1 100 -17 41 -18 41 -20 3z"/>
<path d="M8655 1914 c-30 -12 -55 -29 -55 -38 0 -26 -190 -216 -216 -216 -39
0 -28 32 25 71 27 20 44 44 39 53 -19 30 -66 16 -116 -34 -28 -27 -45 -50 -39
-50 6 0 -10 -18 -36 -41 l-47 -40 68 5 c97 8 104 -39 8 -54 -42 -7 -92 -21
-111 -31 -19 -10 -53 -19 -75 -19 -22 0 -40 -10 -40 -21 0 -12 -7 -17 -15 -12
-18 11 -96 -42 -83 -56 6 -5 35 4 66 20 31 16 63 24 72 19 9 -6 20 0 24 12 4
12 50 23 102 24 63 1 94 10 94 27 0 15 13 21 30 14 19 -7 30 0 30 19 0 17 29
49 65 71 73 45 155 132 155 164 0 12 8 17 17 11 20 -13 71 41 89 93 7 19 11
34 8 33 -2 -1 -29 -12 -59 -24z"/>
<path d="M2192 1866 c-9 -30 -25 -40 -48 -33 -29 9 -30 8 -4 -13 23 -17 24
-26 5 -33 -14 -6 -25 -25 -25 -43 0 -20 21 -3 51 42 29 42 48 87 43 100 -4 13
-14 4 -22 -20z"/>
<path d="M5900 1869 c0 -21 15 -30 43 -25 64 9 71 56 9 56 -34 0 -52 -11 -52
-31z"/>
<path d="M149 1844 c-10 -8 -22 -40 -26 -73 -4 -32 -21 -80 -39 -108 -35 -53
-38 -63 -55 -208 -10 -78 -6 -95 20 -95 21 0 31 19 31 59 0 32 8 63 17 69 10
6 13 34 8 62 -7 37 -2 50 18 46 17 -4 27 12 28 44 1 28 9 84 18 126 17 81 12
100 -20 78z"/>
<path d="M1120 1822 c0 -18 82 -46 96 -33 4 5 2 18 -5 30 -16 25 -91 28 -91 3z"/>
<path d="M6180 1812 c0 -13 -18 -25 -40 -27 -23 -1 -35 6 -29 17 7 11 -16 18
-56 15 -59 -4 -68 -11 -59 -45 6 -23 15 -30 19 -16 5 13 23 24 42 24 26 -1 27
-4 6 -18 -21 -13 -20 -19 6 -29 21 -8 28 -5 20 9 -9 13 4 19 34 16 26 -3 68 6
94 20 26 14 42 17 35 5 -24 -39 23 -42 58 -3 20 22 33 41 28 42 -65 14 -158 8
-158 -10z"/>
<path d="M2329 1777 c-32 -27 -131 -97 -219 -157 -365 -248 -459 -328 -1040
-886 -55 -54 -122 -111 -150 -127 -56 -34 -171 -187 -141 -187 11 0 29 18 41
39 11 22 59 66 107 99 47 33 117 89 155 126 493 475 710 656 1105 926 191 130
221 157 209 192 -5 14 -30 5 -67 -25z"/>
<path d="M3652 1803 c-8 -12 -9 -32 -1 -44 7 -11 1 -34 -12 -51 -19 -22 -20
-35 -2 -53 22 -22 28 -12 21 38 -1 7 9 19 21 26 14 9 16 30 5 61 -11 31 -22
39 -32 23z"/>
<path d="M6380 1758 c0 -11 -8 -15 -18 -9 -44 27 -65 -46 -25 -86 27 -27 43
-33 49 -17 6 16 25 8 58 -21 27 -25 67 -45 89 -45 29 0 40 -13 39 -45 -2 -33
11 -47 45 -52 26 -3 52 -23 57 -43 15 -55 166 -108 166 -58 0 13 20 19 50 13
28 -5 56 -2 62 8 6 9 -8 17 -30 17 -26 0 -37 10 -30 27 6 15 -4 33 -21 40 -22
8 -31 0 -31 -28 0 -42 -29 -52 -51 -18 -8 14 -23 8 -40 -15 -15 -20 -28 -25
-28 -12 -1 22 13 38 93 106 32 28 31 31 -20 49 -30 10 -54 27 -54 36 0 10 -9
12 -20 5 -11 -7 -20 -3 -20 9 0 13 -20 17 -49 10 -42 -11 -47 -7 -36 33 9 35
5 42 -19 33 -17 -7 -39 -4 -49 5 -33 32 -167 78 -167 58z"/>
<path d="M4149 1726 c8 -23 -3 -47 -33 -72 -33 -27 -36 -34 -11 -26 20 6 35 0
35 -14 0 -15 8 -13 20 6 27 41 25 140 -2 140 -13 0 -17 -15 -9 -34z"/>
<path d="M3551 1655 l14 -65 -55 60 c-30 33 -49 50 -43 37 7 -12 -1 -34 -19
-48 -37 -31 -22 -117 27 -154 26 -20 27 -25 4 -25 -45 1 -81 30 -87 70 -3 20
-19 39 -36 41 -22 3 -28 -8 -22 -38 8 -36 6 -38 -14 -13 -19 25 -20 22 -11
-13 17 -61 -8 -147 -42 -147 -16 0 -24 -9 -18 -19 7 -10 -6 -15 -28 -11 -23 4
-41 -1 -41 -11 0 -11 -13 -19 -30 -19 -16 0 -31 -7 -31 -15 -1 -8 -5 -33 -10
-56 -9 -48 79 -159 110 -139 12 7 17 21 11 31 -6 9 12 32 39 50 28 19 51 47
51 62 0 16 8 24 18 18 10 -6 23 3 29 19 7 17 26 30 42 30 17 0 31 10 31 23 0
12 19 39 43 60 28 24 33 37 16 37 -16 0 -8 14 18 32 30 21 43 46 37 70 -6 21
-3 34 5 28 21 -12 43 100 28 140 -22 58 -50 31 -36 -35z"/>
<path d="M2881 1675 c0 -14 18 -61 39 -105 21 -44 38 -93 38 -110 -1 -21 -4
-22 -11 -5 -6 14 -18 20 -28 15 -9 -6 -14 5 -10 25 5 25 -6 38 -31 40 -40 3
-53 -44 -18 -65 11 -7 20 -23 20 -36 0 -15 -6 -17 -15 -4 -26 35 -60 30 -71
-11 -10 -38 13 -49 81 -40 14 1 25 -7 25 -19 0 -12 -9 -17 -19 -10 -11 6 -35
-6 -54 -28 -37 -44 -72 -38 -54 9 6 16 2 29 -9 29 -27 0 -45 -105 -21 -133 12
-15 10 -26 -6 -31 -13 -5 -17 -19 -9 -32 21 -35 52 -29 54 11 1 22 5 25 11 9
19 -45 -33 -88 -71 -60 -27 20 -28 20 -7 -4 30 -34 33 -133 5 -150 -12 -7 -19
-2 -15 11 3 13 -8 29 -23 34 -21 8 -25 -2 -15 -41 7 -29 4 -57 -8 -65 -15 -9
-14 -21 1 -39 16 -19 15 -28 -2 -34 -14 -5 -18 -25 -10 -51 12 -36 26 -21 90
103 42 81 101 173 131 205 94 97 137 217 122 335 -18 137 -113 350 -110 247z"/>
<path d="M3935 1668 c-8 -8 5 -30 28 -51 42 -36 77 -33 77 5 0 11 -10 14 -21
7 -12 -7 -33 2 -46 20 -13 18 -30 27 -38 19z"/>
<path d="M4874 1665 c-9 -13 -7 -40 3 -60 10 -19 16 -69 12 -110 -3 -41 2 -75
11 -75 10 0 5 -25 -11 -55 -16 -30 -20 -58 -10 -61 10 -4 14 -20 8 -35 -6 -16
-1 -29 11 -29 13 0 27 11 31 25 4 14 14 43 22 65 20 56 23 129 5 117 -25 -15
-18 22 9 52 17 18 17 23 1 14 -13 -8 -29 -5 -36 7 -7 11 -4 20 6 20 29 0 42
72 20 103 -15 21 -17 19 -9 -8 8 -22 1 -35 -16 -35 -16 0 -31 20 -35 45 -4 31
-11 37 -22 20z"/>
<path d="M4190 1620 c-7 -22 -7 -48 -1 -58 6 -10 -5 -14 -24 -9 -22 5 -46 -9
-63 -37 -25 -41 -25 -43 2 -21 44 37 96 9 110 -58 6 -32 28 -70 49 -85 20 -14
31 -32 24 -39 -8 -7 6 -13 29 -13 30 0 39 9 31 30 -6 17 -24 30 -40 30 -16 0
-26 13 -23 29 3 16 -12 42 -34 59 -40 30 -40 30 0 62 36 30 37 32 3 21 -27 -8
-34 -4 -26 18 6 16 3 35 -7 41 -10 6 -13 24 -7 41 6 16 6 29 0 29 -5 0 -16
-18 -23 -40z"/>
<path d="M4782 1615 c-9 -25 -11 -49 -4 -55 6 -5 13 -19 14 -30 6 -51 34 -108
59 -118 21 -8 23 1 9 39 -11 27 -22 85 -25 129 -6 89 -28 103 -53 35z"/>
<path d="M3819 1552 c18 -23 16 -33 -13 -50 -22 -13 -26 -21 -10 -21 32 -1 84
47 84 78 0 11 -19 21 -42 21 -35 0 -38 -5 -19 -28z"/>
<path d="M760 1540 c0 -11 27 -20 60 -20 33 0 60 9 60 20 0 11 -27 20 -60 20
-33 0 -60 -9 -60 -20z"/>
<path d="M1703 1498 c-19 -31 -20 -49 -5 -64 16 -16 22 -12 22 13 0 20 8 30
18 24 23 -14 82 8 82 31 0 9 -13 12 -30 5 -16 -6 -30 -1 -30 11 0 35 -28 25
-57 -20z"/>
<path d="M1531 1356 c-9 -25 -14 -55 -12 -65 2 -11 -11 -30 -29 -43 -23 -17
-26 -28 -9 -38 28 -18 65 17 68 65 2 19 10 48 19 62 9 15 8 35 -3 46 -13 13
-25 4 -34 -27z"/>
<path d="M5348 1314 c8 -51 14 -191 14 -312 -1 -186 4 -219 28 -209 17 6 30
28 30 49 0 21 9 38 21 38 18 0 79 116 79 149 0 6 -22 11 -50 11 -61 0 -64 32
-7 79 l43 35 -41 41 c-23 23 -37 46 -32 51 13 13 -46 128 -76 146 -16 10 -19
-12 -9 -78z"/>
<path d="M3978 1375 c-11 -33 -8 -99 5 -107 9 -6 17 -1 17 11 0 11 9 21 21 21
11 0 19 -11 18 -25 -7 -52 2 -67 46 -70 41 -2 42 -1 10 23 -19 15 -35 51 -35
82 0 47 -4 51 -30 30 -26 -22 -29 -20 -18 7 7 18 2 33 -10 33 -12 0 -23 -2
-24 -5z"/>
<path d="M782 1332 c-32 -38 -1 -44 59 -12 27 15 50 14 78 -4 34 -21 83 -11
59 13 -31 30 -172 32 -196 3z"/>
<path d="M2166 1288 c-79 -67 -196 -72 -155 -7 26 42 -47 15 -93 -34 -43 -48
-44 -52 -8 -39 113 42 122 -27 10 -75 -16 -8 -10 -10 15 -5 25 4 45 0 45 -11
0 -17 19 -5 89 58 16 14 43 25 60 25 18 0 38 14 44 32 7 17 27 27 45 23 24 -7
32 6 33 48 0 31 0 57 0 56 -1 0 -39 -33 -85 -71z"/>
<path d="M6832 1328 c-17 -45 -15 -52 10 -37 23 14 104 -19 162 -68 19 -15 53
-23 75 -17 23 5 41 2 41 -8 0 -10 9 -18 20 -18 36 0 21 37 -20 50 -41 13 -57
70 -20 70 11 0 20 -9 20 -20 0 -11 13 -20 28 -20 16 0 32 -9 35 -20 4 -11 36
-23 72 -27 36 -4 59 0 53 11 -7 10 -25 14 -40 8 -18 -7 -28 3 -28 29 0 28 -14
39 -49 39 -36 0 -47 8 -38 30 9 23 -5 30 -62 30 -53 0 -71 -8 -67 -29 3 -15
-1 -29 -9 -30 -45 -4 -53 2 -42 29 9 23 -5 30 -59 30 -45 0 -74 -11 -82 -32z"/>
<path d="M590 1269 c-22 -27 -55 -54 -74 -60 -29 -9 -31 -18 -11 -50 25 -39
64 -23 65 27 0 13 9 24 20 24 11 0 18 -7 15 -15 -3 -8 3 -15 12 -15 9 0 18 32
19 70 3 82 5 82 -46 19z"/>
<path d="M4380 1280 c-26 -16 -23 -25 17 -64 l47 -46 -13 45 c-9 28 -5 45 9
45 12 0 17 9 10 20 -15 25 -31 25 -70 0z"/>
<path d="M3040 1205 c0 -25 -22 -65 -50 -89 -27 -24 -50 -55 -50 -70 0 -14
-11 -26 -25 -26 -30 -1 -115 -127 -115 -171 0 -19 -9 -26 -23 -17 -16 10 -20
1 -13 -24 5 -22 -2 -51 -17 -64 -31 -29 -37 -93 -7 -74 11 7 20 3 20 -9 0 -38
52 -22 96 29 24 28 53 50 64 50 11 0 20 18 20 40 0 23 13 40 31 40 17 0 26 9
19 20 -7 11 2 20 19 20 18 0 41 25 52 55 11 30 25 68 31 84 9 26 13 26 31 0
38 -55 -4 128 -44 191 -35 55 -38 57 -39 15z"/>
<path d="M3551 1204 c-16 -15 13 -64 31 -53 10 6 18 3 18 -8 0 -10 -15 -24
-32 -31 -25 -10 -27 -19 -9 -40 16 -21 17 -32 1 -42 -16 -10 -16 -21 0 -40 17
-20 12 -34 -20 -56 l-43 -30 46 -32 c25 -18 73 -31 106 -29 48 2 51 4 16 11
-25 5 -45 16 -45 25 0 9 -11 15 -25 14 -14 -2 -25 6 -25 17 0 19 5 21 75 27
39 3 47 73 15 123 -15 24 -20 20 -20 -20 -1 -45 -3 -47 -23 -13 -15 26 -15 43
1 59 12 12 22 40 23 63 0 40 1 40 30 2 32 -42 40 -19 9 29 -17 27 -109 44
-129 24z"/>
<path d="M4920 1171 c0 -41 -8 -52 -30 -44 -16 7 -30 3 -30 -8 0 -10 14 -19
30 -19 17 0 30 -13 30 -30 0 -34 31 -40 50 -10 7 11 4 20 -6 20 -10 0 -19 28
-20 62 -2 78 -24 104 -24 29z"/>
<path d="M5138 1165 c-4 -89 1 -123 57 -370 29 -129 57 -229 63 -223 34 34 -4
485 -43 511 -12 7 -11 17 3 26 32 19 27 51 -8 51 -16 0 -30 14 -30 30 0 55
-40 31 -42 -25z"/>
<path d="M1301 1142 c-42 -60 -53 -102 -26 -102 28 0 125 101 125 131 0 49
-55 33 -99 -29z"/>
<path d="M3825 1165 c-14 -4 -25 -21 -25 -37 0 -35 -40 -38 -41 -3 -1 32 -57
-66 -58 -102 -1 -14 10 -22 24 -18 14 5 22 30 18 56 -6 39 -2 43 21 24 22 -18
34 -15 56 15 21 29 32 32 43 15 12 -19 21 -18 41 3 17 18 17 23 2 15 -13 -8
-31 -1 -40 14 -9 15 -27 23 -41 18z"/>
<path d="M4380 1165 c0 -9 8 -26 17 -36 26 -28 46 -153 23 -139 -11 7 -20 3
-20 -9 0 -11 9 -21 20 -21 11 0 20 -10 20 -21 0 -12 -8 -16 -19 -10 -10 6 -25
1 -33 -12 -9 -14 -6 -18 9 -9 13 8 23 3 23 -12 1 -19 5 -19 19 3 28 44 10 215
-27 251 -17 18 -32 25 -32 15z"/>
<path d="M4060 1129 c0 -28 -5 -29 -30 -9 -18 15 -30 17 -30 4 0 -11 9 -24 20
-27 12 -4 28 -55 38 -113 9 -59 27 -117 41 -130 19 -19 21 -11 10 33 -10 40
-6 63 13 75 23 14 22 17 -5 18 -18 0 -37 20 -44 43 -14 54 2 83 33 63 46 -29
69 -22 59 18 -7 26 -16 31 -25 16 -10 -16 -23 -14 -47 10 -31 30 -33 30 -33
-1z"/>
<path d="M4210 1135 c-5 -14 -6 -43 -1 -65 4 -22 9 -53 9 -68 3 -56 28 -2 36
78 8 76 -23 114 -44 55z"/>
<path d="M7183 1142 c-19 -12 -21 -21 -5 -31 13 -8 17 -22 11 -32 -6 -11 -1
-19 11 -19 12 0 17 -9 10 -20 -15 -25 10 -25 49 -1 26 16 25 21 -5 32 -40 15
-45 61 -9 76 17 7 15 10 -5 11 -16 1 -42 -6 -57 -16z"/>
<path d="M7405 1143 c-17 -11 -16 -27 2 -64 24 -45 19 -73 -23 -138 -3 -6 -14
3 -24 19 -11 17 -10 38 1 52 13 15 9 31 -11 48 -35 29 -33 31 -64 -57 -22 -61
-21 -66 11 -58 26 7 35 -2 34 -32 -1 -29 11 -42 39 -43 23 0 38 -11 34 -28 -4
-18 7 -24 35 -16 23 5 41 2 41 -8 0 -26 136 -78 171 -65 21 8 26 2 17 -21 -9
-23 -1 -32 31 -32 24 0 39 -7 33 -16 -5 -9 12 -33 39 -53 51 -38 67 -81 24
-65 -14 4 -52 -5 -85 -22 -33 -17 -49 -34 -36 -39 13 -4 44 3 68 16 41 22 43
20 30 -30 -11 -45 -7 -53 22 -47 26 5 34 22 30 61 -6 47 0 55 43 55 66 0 81
28 49 93 -25 51 -73 67 -60 20 5 -15 0 -16 -12 -3 -11 11 -26 52 -33 90 -10
52 -8 62 7 40 18 -26 21 -25 22 5 0 21 -15 35 -37 35 -27 0 -38 14 -38 47 0
52 -81 158 -108 141 -9 -6 -17 -1 -17 11 0 11 -20 18 -45 16 -27 -3 -43 5 -40
20 5 25 -19 33 -74 26 -22 -4 -24 2 -6 23 26 31 -28 45 -70 19z"/>
<path d="M8394 1096 c-43 -45 -28 -76 36 -76 70 0 102 68 44 94 -34 14 -52 10
-80 -18z"/>
<path d="M2135 1086 c-19 -5 -35 -21 -35 -36 0 -15 -16 -31 -35 -36 -27 -7
-25 -10 9 -12 43 -2 106 45 106 79 0 11 -2 18 -5 17 -3 -2 -21 -7 -40 -12z"/>
<path d="M3907 1084 c-23 -15 -24 -94 -1 -117 8 -7 14 -29 14 -48 0 -39 -73
-66 -87 -32 -6 13 -10 10 -11 -7 -1 -16 7 -43 18 -60 17 -26 19 -26 20 3 0 18
18 37 40 43 26 7 40 0 40 -18 0 -15 9 -28 20 -28 12 0 16 20 10 45 -6 25 -14
84 -18 131 -7 96 -14 108 -45 88z"/>
<path d="M5002 1075 c-1 -20 13 -36 33 -37 19 0 25 -5 13 -10 -29 -12 -15
-377 16 -435 13 -24 35 -92 48 -153 14 -60 25 -90 26 -66 1 24 11 49 22 56 33
20 23 135 -31 353 -29 114 -52 223 -52 242 0 19 -12 35 -27 35 -14 0 -31 11
-37 25 -6 15 -10 11 -11 -10z"/>
<path d="M1776 1024 c-83 -60 -84 -61 -55 -104 17 -26 23 -26 44 2 14 17 37
27 53 22 16 -5 23 2 18 18 -5 15 3 40 17 54 74 74 21 80 -77 8z"/>
<path d="M1164 1018 c-27 -42 -32 -118 -8 -118 29 0 81 137 55 147 -13 5 -34
-8 -47 -29z"/>
<path d="M4600 1001 c0 -7 10 -23 22 -35 27 -27 7 -66 -33 -66 -16 0 -23 -12
-17 -29 6 -16 23 -24 38 -18 14 5 33 -1 41 -15 10 -15 7 -19 -8 -10 -13 8 -34
7 -48 -1 -17 -10 -8 -19 25 -27 38 -10 50 -25 49 -66 0 -30 10 -54 23 -54 15
0 20 -28 13 -85 -5 -47 -3 -79 4 -72 30 29 27 297 -3 297 -19 0 -25 13 -17 38
7 21 3 45 -9 52 -11 7 -15 21 -9 31 6 11 2 19 -9 19 -11 0 -16 12 -11 27 6 15
-3 26 -20 26 -17 0 -31 -5 -31 -12z"/>
<path d="M2123 974 c-12 -15 -17 -34 -9 -41 7 -7 -13 -13 -44 -13 -53 0 -55
-2 -21 -27 24 -17 31 -37 21 -55 -12 -21 -8 -21 16 2 17 17 34 48 37 70 4 22
16 46 26 54 11 8 15 19 8 25 -6 7 -22 0 -34 -15z"/>
<path d="M2192 968 c-17 -46 -16 -48 28 -48 22 0 40 4 40 8 0 25 -26 72 -40
72 -9 0 -21 -14 -28 -32z"/>
<path d="M758 880 c-59 -55 -113 -100 -121 -100 -7 0 -62 -60 -120 -134 -114
-144 -397 -432 -472 -481 -31 -21 -45 -49 -44 -92 l1 -63 110 119 c60 65 125
121 144 124 19 3 46 23 61 46 32 47 67 55 50 11 -6 -17 -2 -30 9 -30 11 0 24
9 28 21 3 11 27 22 51 24 25 2 45 14 45 26 0 13 18 44 40 69 42 48 54 91 20
70 -11 -7 -15 1 -8 17 6 16 29 34 52 40 27 7 37 21 29 42 -7 19 -1 31 15 31
15 0 38 27 52 60 14 33 33 54 43 48 10 -6 1 -35 -20 -64 -21 -30 -49 -106 -62
-169 -13 -63 -32 -119 -42 -126 -11 -6 -19 -21 -19 -33 0 -13 11 -12 30 4 17
14 30 36 30 50 0 13 23 49 50 78 28 30 45 64 38 75 -6 11 1 35 17 53 17 19 49
84 71 144 35 91 60 108 45 30 -2 -11 6 -10 19 2 35 35 42 168 8 168 -15 0 -28
-11 -28 -25 -1 -14 -19 -47 -41 -75 -40 -50 -40 -50 0 45 49 117 49 117 -81
-5z"/>
<path d="M3380 902 c0 -34 9 -62 20 -62 11 0 20 -18 20 -40 0 -38 2 -38 36 -5
24 24 27 37 11 41 -14 4 -27 30 -31 59 -9 77 -56 82 -56 7z"/>
<path d="M4266 945 c5 -8 -8 -32 -29 -53 -20 -22 -37 -30 -37 -19 0 11 -13 20
-29 20 -45 0 -27 -69 21 -78 31 -6 41 -1 34 18 -6 16 11 34 42 46 49 19 56 81
9 81 -11 0 -15 -7 -11 -15z"/>
<path d="M3340 919 c0 -12 -9 -16 -20 -9 -11 7 -20 4 -20 -6 0 -9 -22 -28 -50
-40 -50 -23 -55 -121 -7 -173 9 -10 17 -37 17 -60 1 -34 4 -36 20 -11 16 26
19 26 20 1 0 -18 7 -22 19 -10 21 21 52 329 33 329 -7 0 -12 -10 -12 -21z"/>
<path d="M8368 905 c-6 -19 -20 -56 -30 -81 -10 -25 -18 -48 -18 -50 0 -2 27
-6 60 -8 61 -4 84 37 38 65 -16 10 -16 18 1 28 25 16 8 81 -22 81 -10 0 -23
-16 -29 -35z"/>
<path d="M1571 841 c-68 -71 -60 -150 8 -82 36 36 78 141 57 141 -5 0 -34 -26
-65 -59z"/>
<path d="M4349 829 c0 -38 8 -69 16 -69 8 0 15 -18 15 -40 0 -22 9 -40 20 -40
11 0 20 18 20 40 0 22 -10 40 -22 40 -13 0 -18 16 -13 37 5 20 -1 51 -14 69
-20 27 -24 21 -22 -37z"/>
<path d="M1811 846 c-6 -16 -2 -44 8 -63 16 -27 20 -23 20 23 1 66 69 61 118
-8 36 -49 83 -49 83 0 0 28 -10 36 -40 28 -43 -11 -57 25 -15 39 14 5 -17 9
-69 10 -65 1 -97 -8 -105 -29z"/>
<path d="M2212 846 c-29 -8 -31 -14 -12 -26 15 -9 27 -44 27 -78 0 -34 7 -62
16 -62 10 0 17 41 17 90 0 50 -2 89 -5 88 -3 -2 -22 -7 -43 -12z"/>
<path d="M1700 794 c0 -14 10 -36 23 -49 17 -17 12 -46 -21 -115 -46 -98 -42
-130 17 -130 43 0 71 101 34 125 -14 9 -8 15 17 16 22 1 29 7 15 12 -14 6 -25
45 -25 89 0 56 -8 78 -30 78 -16 0 -30 -12 -30 -26z"/>
<path d="M4275 797 c-20 -10 -44 -14 -55 -7 -11 7 -30 6 -42 -1 -36 -23 25
-49 82 -36 41 10 46 7 25 -14 -29 -32 -33 -59 -7 -59 18 0 53 116 39 130 -4 4
-23 -2 -42 -13z"/>
<path d="M3142 760 c1 -27 14 -86 29 -130 l28 -80 -11 100 c-13 112 -47 195
-46 110z"/>
<path d="M3949 715 c4 -53 -2 -100 -11 -107 -25 -15 32 -68 73 -68 25 0 29 6
13 26 -23 27 -22 69 3 109 9 15 6 25 -8 25 -14 0 -18 14 -10 34 7 19 7 28 -1
21 -8 -8 -26 1 -40 20 -21 30 -24 21 -19 -60z"/>
<path d="M226 746 c-17 -47 -45 -65 -100 -66 -59 0 -80 -40 -37 -72 32 -23 29
-28 -27 -57 -34 -18 -62 -47 -62 -65 0 -23 22 -11 73 41 41 40 80 73 87 73 12
0 49 27 136 101 14 13 23 33 18 46 -12 39 -73 38 -88 -1z"/>
<path d="M2073 718 c-22 -32 -26 -50 -11 -60 16 -9 16 -17 0 -27 -15 -9 -18
-40 -10 -83 8 -44 5 -68 -10 -68 -12 0 -22 -9 -22 -20 0 -33 80 26 82 60 1 20
4 22 11 5 15 -36 67 -31 67 6 0 18 -9 26 -23 17 -16 -10 -19 7 -9 59 8 41 7
72 -2 71 -37 -6 -54 4 -32 18 14 9 17 26 8 42 -13 20 -24 15 -49 -20z"/>
<path d="M4604 671 c-19 -41 -17 -54 12 -72 30 -20 30 -21 1 -12 -19 6 -59 3
-90 -7 -47 -14 -44 -24 5 -19 6 1 24 -15 40 -35 26 -33 27 -33 16 -1 -9 25 -2
35 25 35 21 0 28 -7 17 -15 -28 -21 -36 -85 -11 -85 12 0 21 -13 21 -30 0 -16
8 -30 18 -30 14 0 13 143 -2 295 -4 40 -28 29 -52 -24z"/>
<path d="M6988 697 c-20 -32 57 -117 104 -117 27 0 48 -9 48 -20 0 -11 -10
-20 -21 -20 -12 0 -16 -9 -9 -20 19 -30 76 -24 216 22 192 63 154 135 -41 79
-57 -16 -65 -14 -65 20 0 40 -55 34 -84 -9 -9 -13 -36 -9 -80 13 l-66 33 66
-7 c42 -4 63 2 58 17 -8 25 -112 32 -126 9z"/>
<path d="M1355 657 c-19 -10 -35 -32 -35 -48 0 -44 74 -35 86 11 13 49 -6 63
-51 37z"/>
<path d="M3644 655 c-11 -14 -24 -57 -27 -95 -6 -57 -15 -69 -47 -64 -40 5
-40 5 0 -27 40 -33 40 -33 0 -26 -28 5 -43 28 -51 77 -10 68 -11 68 -22 16 -6
-30 -2 -63 10 -75 11 -11 13 -27 4 -36 -9 -8 -20 -4 -25 10 -5 14 -19 25 -31
25 -12 0 -7 -16 9 -35 17 -19 28 -46 25 -60 -3 -15 -2 -18 3 -8 6 10 27 14 49
9 49 -13 139 9 139 34 0 10 -13 14 -30 7 -16 -6 -30 -1 -30 11 0 12 10 22 23
22 30 0 76 61 76 103 1 18 15 38 31 44 42 16 37 46 -10 59 -25 6 -48 -3 -61
-23 -17 -27 -19 -25 -9 12 14 50 5 57 -26 20z"/>
<path d="M4271 653 c-20 -15 -28 -37 -20 -59 18 -48 48 -43 35 6 -6 22 -1 40
12 40 12 0 23 -16 25 -35 4 -45 11 -110 15 -135 2 -11 12 -5 23 13 12 22 12
52 -1 87 -11 29 -16 61 -10 70 17 28 -45 38 -79 13z"/>
<path d="M4391 642 c-17 -28 26 -106 50 -91 12 7 10 28 -4 55 -30 59 -31 60
-46 36z"/>
<path d="M3030 580 c7 -11 4 -20 -6 -20 -10 0 -19 -27 -20 -60 -2 -68 32 -78
77 -25 45 53 37 110 -17 118 -27 4 -41 -1 -34 -13z"/>
<path d="M1500 560 c0 -12 9 -17 20 -10 26 16 26 -16 0 -42 -13 -13 -6 -21 20
-22 30 -3 38 7 33 40 -7 45 -73 76 -73 34z"/>
<path d="M4914 539 c-20 -72 -18 -79 21 -80 33 0 33 -2 1 -26 -23 -17 -27 -34
-15 -54 25 -40 24 -126 -3 -153 -16 -16 -15 -33 1 -64 13 -24 18 -51 12 -61
-7 -10 -2 -24 10 -32 12 -7 17 -26 11 -41 -8 -21 7 -28 59 -28 38 0 69 9 69
20 0 11 -13 20 -30 20 -20 0 -30 20 -30 62 0 54 -4 59 -30 38 -36 -30 -28 6
25 112 30 59 29 66 -13 125 -39 55 -40 61 -8 51 29 -10 31 -8 6 9 -16 12 -39
50 -51 86 -22 64 -22 65 -35 16z"/>
<path d="M1125 527 c-14 -6 -25 -23 -25 -38 0 -16 12 -23 30 -16 17 6 30 1 30
-11 0 -13 -13 -28 -29 -34 -38 -15 -75 -125 -54 -162 21 -38 111 66 94 109 -6
15 5 51 24 80 19 30 24 47 10 38 -16 -10 -25 -4 -25 16 0 32 -11 35 -55 18z"/>
<path d="M2918 525 c-2 -8 -1 -23 0 -32 6 -31 -40 -71 -69 -60 -17 7 -29 -1
-29 -19 0 -16 -14 -35 -31 -42 -22 -8 -28 -25 -19 -53 11 -32 3 -44 -30 -53
-33 -9 -41 -23 -35 -59 5 -26 2 -47 -6 -47 -33 0 -43 -85 -14 -114 25 -25 37
-16 93 71 35 55 78 111 94 125 24 20 25 28 4 41 -19 12 -17 16 9 17 19 0 35
10 35 21 0 13 17 16 40 9 37 -12 39 -6 28 64 -7 42 -13 92 -14 111 -2 34 -51
51 -56 20z"/>
<path d="M3290 520 c7 -11 3 -20 -9 -20 -11 0 -21 -28 -21 -61 0 -55 3 -59 30
-32 34 34 41 133 9 133 -12 0 -16 -9 -9 -20z"/>
<path d="M5256 505 c-11 -47 3 -105 25 -105 11 0 19 13 19 29 0 16 18 39 40
51 58 31 49 60 -18 60 -38 0 -60 -12 -66 -35z"/>
<path d="M7425 500 c2 -24 18 -40 39 -40 43 0 45 14 7 51 -38 39 -49 36 -46
-11z"/>
<path d="M3981 501 c-24 -15 -24 -23 -2 -49 17 -22 18 -32 3 -32 -12 0 -22
-16 -22 -35 1 -27 4 -29 18 -8 12 20 21 12 31 -30 8 -33 6 -59 -6 -63 -12 -4
-16 -19 -10 -35 6 -16 19 -24 29 -18 10 6 18 1 18 -11 0 -12 10 -16 23 -8 12
8 38 -7 58 -34 20 -26 43 -40 52 -31 9 9 -6 33 -33 54 -38 29 -42 38 -17 39
19 0 37 -10 41 -23 5 -13 20 -19 36 -14 21 7 17 20 -16 53 -24 24 -44 53 -44
64 0 11 -9 20 -20 20 -11 0 -20 -22 -20 -50 0 -54 -13 -60 -60 -30 -17 11 -20
20 -7 20 24 0 24 57 -1 133 -7 24 -4 49 7 56 29 18 26 51 -4 51 -14 0 -38 -9
-54 -19z"/>
<path d="M4220 503 c0 -11 -6 -34 -12 -52 -11 -28 -6 -29 40 -8 29 13 50 34
46 45 -9 28 -74 41 -74 15z"/>
<path d="M912 436 c-31 -41 -42 -70 -29 -78 14 -9 12 -17 -6 -23 -19 -7 -11
-23 28 -58 68 -60 70 -85 5 -69 -29 7 -50 4 -50 -8 0 -11 10 -20 23 -20 14 0
10 -15 -10 -37 -37 -40 -44 -83 -13 -83 11 0 20 -13 20 -30 0 -17 13 -30 28
-30 30 0 54 99 57 235 1 47 11 85 23 86 12 0 7 12 -12 26 -30 23 -31 32 -5 82
51 97 16 101 -59 7z"/>
<path d="M1759 487 c-50 -14 -81 -80 -61 -132 10 -26 13 -71 8 -101 -8 -41 -3
-54 22 -54 17 0 32 -9 32 -20 0 -11 -9 -20 -20 -20 -11 0 -20 -22 -20 -48 0
-90 20 -112 102 -112 l77 0 -41 105 c-23 57 -38 129 -33 159 5 34 -3 58 -20
65 -34 13 -15 88 33 128 18 15 7 12 -24 -6 -56 -33 -57 -33 -35 8 12 22 20 40
17 39 -3 -2 -20 -6 -37 -11z"/>
<path d="M8870 480 c7 -11 -6 -20 -28 -20 -47 0 -57 -13 -71 -92 -5 -32 -18
-101 -28 -153 -10 -55 -10 -100 0 -107 9 -5 18 1 19 16 14 155 30 186 85 164
22 -8 30 -26 23 -48 -7 -21 1 -40 18 -47 24 -9 31 11 36 93 5 86 12 103 41 98
21 -3 35 7 35 25 0 17 -17 31 -38 31 -21 0 -43 14 -49 30 -7 17 -22 30 -34 30
-12 0 -16 -9 -9 -20z"/>
<path d="M2345 440 c-14 -22 -17 -40 -7 -40 10 0 14 -17 8 -38 -6 -26 5 -46
32 -61 33 -18 38 -31 23 -59 -13 -25 -11 -48 9 -76 16 -23 24 -45 19 -51 -36
-35 40 -109 114 -112 l80 -3 -14 115 c-10 88 -27 129 -71 176 -32 33 -58 67
-58 75 0 18 -83 114 -99 114 -6 0 -23 -18 -36 -40z"/>
<path d="M4078 459 c0 -5 -4 -25 -8 -45 -4 -20 6 -42 22 -48 47 -17 55 7 20
57 -18 25 -33 42 -34 36z"/>
<path d="M1460 421 c0 -41 -76 -62 -107 -31 -37 37 -68 2 -35 -38 24 -28 122
-20 122 10 0 10 18 18 40 18 54 0 51 -53 -5 -84 -25 -13 -51 -23 -58 -21 -7 2
-17 -19 -22 -46 -12 -61 16 -65 32 -5 6 24 17 38 25 31 18 -18 64 31 87 93 16
42 13 55 -18 72 -48 25 -61 25 -61 1z"/>
<path d="M4342 400 c-2 -40 -7 -44 -22 -20 -15 23 -19 17 -20 -28 0 -55 2 -56
37 -25 20 18 47 33 61 33 13 0 19 9 12 20 -7 12 -20 16 -30 10 -9 -6 -21 5
-26 25 -7 24 -10 20 -12 -15z"/>
<path d="M6482 396 c-32 -52 -4 -83 56 -61 43 16 43 17 7 59 l-37 43 -26 -41z"/>
<path d="M2151 387 c-7 -19 -4 -39 5 -45 10 -7 16 -28 13 -48 -8 -53 72 -36
92 19 14 36 10 41 -25 32 -34 -9 -38 -4 -27 32 17 52 -38 61 -58 10z"/>
<path d="M744 321 c-59 -54 -99 -205 -45 -172 38 24 30 -80 -9 -113 -39 -34
-39 -35 16 -35 34 -1 51 7 43 20 -7 11 -3 32 8 46 13 15 14 35 2 54 -26 41
-24 119 3 119 13 0 18 18 12 42 -8 31 -1 45 27 53 22 5 39 18 39 27 0 32 -30
19 -96 -41z"/>
<path d="M3193 312 c1 -37 13 -85 26 -105 21 -33 23 -32 13 13 -6 28 -12 75
-12 105 0 30 -7 55 -15 55 -9 0 -14 -31 -12 -68z"/>
<path d="M4662 334 c-1 -32 -11 -51 -22 -44 -40 25 -19 -26 25 -58 25 -19 34
-28 20 -22 -14 7 -25 -1 -25 -19 0 -17 14 -31 32 -31 25 0 29 12 19 52 -7 29
-3 64 11 80 18 22 16 28 -8 28 -17 0 -35 16 -40 35 -6 21 -10 13 -12 -21z"/>
<path d="M8691 295 c-7 -36 -17 -110 -22 -165 -11 -142 25 -50 42 109 15 129
3 163 -20 56z"/>
<path d="M3480 289 c-28 -15 -85 -28 -127 -28 -71 -1 -76 -5 -63 -46 7 -25 18
-70 24 -100 6 -31 24 -55 41 -55 24 0 25 5 5 30 -14 17 -20 37 -13 44 7 7 13
2 13 -12 0 -13 8 -19 18 -13 10 6 16 -11 13 -39 -3 -30 5 -50 20 -50 17 0 23
25 18 80 -8 75 -4 82 61 109 72 30 81 43 55 84 -12 18 -28 17 -65 -4z"/>
<path d="M5812 287 c-7 -18 -8 -37 -3 -43 13 -12 71 35 71 58 0 32 -55 19 -68
-15z"/>
<path d="M4333 285 c-7 -12 -4 -46 7 -75 11 -29 16 -61 10 -69 -5 -9 3 -27 19
-40 23 -19 27 -12 22 43 -7 87 -41 169 -58 141z"/>
<path d="M5693 267 c-25 -26 -13 -43 23 -34 24 6 45 -6 61 -37 13 -25 19 -30
14 -9 -6 20 -11 49 -11 65 0 28 -62 39 -87 15z"/>
<path d="M8813 235 c-18 -66 -16 -75 17 -75 17 0 30 9 30 20 0 11 -10 20 -22
20 -17 0 -16 8 1 28 13 17 15 33 4 40 -10 6 -24 -9 -30 -33z"/>
<path d="M1993 247 c-24 -25 -13 -46 17 -34 50 19 34 -27 -25 -71 -49 -36 -51
-41 -14 -41 54 -1 109 66 95 117 -10 41 -46 55 -73 29z"/>
<path d="M3725 226 c7 -27 0 -48 -19 -55 -43 -16 -50 -14 -34 14 11 19 8 20
-11 2 -14 -13 -19 -34 -11 -47 10 -17 21 -17 36 -2 33 33 63 26 35 -7 -14 -16
-18 -40 -9 -54 10 -16 4 -20 -19 -11 -18 7 -33 4 -33 -7 0 -10 23 -19 50 -19
28 0 50 -9 50 -20 0 -11 8 -20 18 -20 10 0 11 30 3 67 -9 37 -9 80 -1 95 9 17
-1 44 -25 68 l-41 40 11 -44z"/>
<path d="M1488 225 c-38 -25 -56 -107 -21 -94 21 9 64 111 45 109 -1 0 -12 -7
-24 -15z"/>
<path d="M2180 223 c0 -11 -5 -32 -10 -46 -12 -31 96 -39 123 -9 10 11 2 13
-19 6 -26 -10 -34 -4 -30 21 4 19 -9 37 -29 41 -19 4 -35 -2 -35 -13z"/>
<path d="M595 176 c-42 -53 -45 -103 -7 -134 22 -18 30 -12 42 32 39 144 27
179 -35 102z"/>
<path d="M1059 169 c-18 -35 -21 -66 -8 -103 26 -73 75 -88 58 -17 -10 36 -3
64 20 90 32 36 32 39 -4 59 -32 17 -44 12 -66 -29z"/>
<path d="M5628 205 c8 -14 4 -25 -8 -25 -12 0 -17 -8 -11 -18 6 -10 -3 -23
-19 -29 -17 -7 -30 -34 -30 -61 0 -30 -14 -53 -35 -58 -19 -5 20 -10 87 -12
125 -2 156 25 103 93 -11 13 -13 40 -6 59 7 19 7 28 -1 20 -8 -8 -33 2 -55 21
-22 19 -33 24 -25 10z"/>
<path d="M3080 180 c0 -39 9 -50 36 -44 15 4 39 -3 53 -15 20 -17 26 -10 26
29 0 42 -9 50 -57 50 -32 0 -58 -9 -58 -20z"/>
<path d="M4202 95 c-2 -84 3 -95 40 -95 32 0 38 6 22 25 -11 14 -29 57 -40 95
l-20 70 -2 -95z"/>
<path d="M3003 86 l-3 -85 81 7 c44 4 85 12 91 18 15 15 -29 94 -53 94 -28 0
-23 -35 6 -46 14 -5 19 -15 11 -24 -8 -8 -29 0 -48 19 -26 26 -37 28 -49 9
-10 -16 -19 -4 -24 34 -7 45 -10 39 -12 -26z"/>
<path d="M4031 141 c-6 -10 -3 -23 7 -30 10 -6 23 0 29 14 6 15 10 11 11 -10
1 -19 12 -35 24 -35 12 0 17 14 10 32 -7 17 -12 35 -12 40 0 16 -58 8 -69 -11z"/>
<path d="M6560 142 c0 -41 26 -82 52 -82 37 0 35 30 -3 69 -36 35 -49 39 -49
13z"/>
<path d="M4586 116 c7 -18 1 -38 -12 -45 -18 -8 -18 -14 1 -23 14 -6 20 -20
14 -30 -6 -10 16 -18 50 -18 33 0 61 8 61 18 0 10 -20 13 -43 7 -33 -9 -41 -4
-33 18 7 16 -2 46 -19 68 -23 30 -28 31 -19 5z"/>
<path d="M4680 118 c0 -10 0 -25 0 -33 0 -8 15 -16 35 -18 19 -1 47 -6 63 -10
15 -4 32 6 37 21 6 16 1 22 -11 14 -12 -7 -29 -1 -38 13 -19 29 -86 39 -86 13z"/>
<path d="M375 106 c-19 -5 -35 -17 -35 -27 0 -10 -12 -13 -27 -7 -14 5 -48 -8
-75 -31 l-48 -40 100 11 c101 11 190 52 190 88 0 20 -42 23 -105 6z"/>
<path d="M8123 85 c-14 -25 -17 -46 -9 -47 9 -2 -11 -10 -44 -18 -51 -13 -45
-16 45 -18 102 -2 134 19 78 52 -15 9 -31 29 -37 46 -7 23 -15 20 -33 -15z"/>
<path d="M2240 70 c-14 -17 -20 -36 -14 -43 21 -20 74 10 74 42 0 40 -28 40
-60 1z"/>
<path d="M5990 49 l-60 -49 94 0 c89 0 94 3 78 44 -22 61 -43 62 -112 5z"/>
<path d="M8795 68 c42 -19 28 -45 -30 -54 -33 -5 -17 -9 41 -11 115 -4 136 63
24 71 -33 3 -49 0 -35 -6z"/>
</g>
</svg>
